<svg width="100" height="15" viewBox="0 0 100 15" fill="none" xmlns="http://www.w3.org/2000/svg">
<path d="M0.649703 12.7955L1.15051 12.4358C1.23173 12.5413 1.2024 12.6157 1.06253 12.6588C0.922668 12.702 0.785054 12.7475 0.649703 12.7955ZM100 13.0401C99.9549 13.0593 99.896 13.076 99.8243 13.0905C99.752 13.1048 99.7069 13.1264 99.6886 13.1552C99.6797 13.1743 99.7069 13.1983 99.7698 13.2271C99.8332 13.2559 99.8916 13.2894 99.946 13.3278L99.5396 13.486C99.3322 13.4669 99.1901 13.4261 99.1134 13.3638C99.0366 13.3014 98.9579 13.2367 98.8767 13.1695C98.8045 13.112 98.7277 13.0569 98.6465 13.0041C98.5654 12.9514 98.4797 12.9058 98.3891 12.8674L98.3757 12.853C98.3035 12.8147 98.2203 12.7907 98.1252 12.7811C98.0307 12.7715 97.947 12.7907 97.8748 12.8387C97.8119 12.8866 97.7871 12.9274 97.8005 12.9609C97.8139 12.9945 97.8931 13.0209 98.0371 13.0401C98.0827 13.0496 98.1119 13.0785 98.1252 13.1264C98.1391 13.1743 98.1639 13.2223 98.2 13.2702C98.1277 13.2702 98.0733 13.2702 98.0371 13.2702C98.0015 13.2702 97.9743 13.2655 97.9559 13.2559C97.5951 13.0257 97.2094 12.8075 96.799 12.6013C96.3881 12.3951 95.953 12.2008 95.4926 12.0186C95.3213 11.9419 95.1703 11.8603 95.0391 11.7741C94.9084 11.6877 94.7708 11.6014 94.6262 11.5151C94.5545 11.4767 94.4797 11.4384 94.403 11.4C94.3262 11.3616 94.2114 11.3664 94.0579 11.4144C94.049 11.4144 94.0376 11.4144 94.0243 11.4144C94.0104 11.4144 93.9946 11.4144 93.9767 11.4144C93.9589 11.4144 93.9361 11.4144 93.9089 11.4144C93.8822 11.4144 93.8594 11.4096 93.8416 11.4C93.6609 11.3616 93.4802 11.3209 93.3 11.2777C93.1193 11.2345 92.9391 11.189 92.7584 11.141C92.7317 11.141 92.702 11.1386 92.6708 11.1338C92.6391 11.129 92.6188 11.1218 92.6094 11.1123C92.5193 10.9972 92.3703 10.9348 92.1629 10.9252C91.9555 10.9157 91.7525 10.8965 91.554 10.8677C91.4094 10.8485 91.2698 10.8197 91.1342 10.7814C90.999 10.743 90.8634 10.7094 90.7282 10.6807C90.5475 10.6327 90.3673 10.5872 90.1866 10.544C90.0064 10.5008 89.8213 10.4601 89.6317 10.4217C89.0545 10.297 88.4748 10.1747 87.8926 10.0549C87.3104 9.93497 86.7352 9.80788 86.1668 9.67361C85.8149 9.59685 85.4584 9.52014 85.0975 9.44338C84.7366 9.36668 84.3733 9.29235 84.0079 9.2204C83.6426 9.1485 83.2748 9.07893 82.905 9.0118C82.5347 8.94466 82.1693 8.87752 81.8084 8.81038C81.4837 8.74325 81.1634 8.68092 80.8475 8.62335C80.5317 8.56583 80.2114 8.50826 79.8861 8.45075C79.5797 8.4028 79.2703 8.35004 78.9589 8.29247C78.648 8.23495 78.3252 8.19176 77.9916 8.163C77.8198 8.15338 77.6505 8.13424 77.4837 8.10543C77.3168 8.07668 77.152 8.04792 76.9896 8.01911C76.7911 7.99035 76.5906 7.96397 76.3876 7.94002C76.1842 7.91602 75.9837 7.89445 75.7851 7.87526C75.6317 7.8465 75.4782 7.81769 75.3248 7.78893C75.1713 7.76018 75.0178 7.73618 74.8649 7.71699C74.702 7.70742 74.5421 7.70023 74.3842 7.69542C74.2262 7.69066 74.0658 7.67385 73.9035 7.64509C73.6782 7.60671 73.4391 7.58033 73.1861 7.56595C72.9337 7.55157 72.6856 7.53 72.4416 7.50119C72.3064 7.49162 72.1757 7.47481 72.0495 7.45087C71.9228 7.42687 71.7921 7.41011 71.6569 7.40049C71.4946 7.39092 71.3317 7.3813 71.1693 7.37173C71.0069 7.36216 70.8446 7.35254 70.6822 7.34297C70.3302 7.31416 69.9807 7.29021 69.6332 7.27102C69.2856 7.25183 68.9361 7.22788 68.5842 7.19907C68.0158 7.16074 67.447 7.11756 66.8787 7.06961C66.3104 7.02166 65.7371 6.97371 65.1599 6.92576C64.9252 6.90657 64.6634 6.88976 64.3748 6.87538C64.0861 6.861 63.7881 6.849 63.4812 6.83944H63.4139C63.1342 6.82981 62.8134 6.81543 62.4525 6.79624C62.0827 6.78668 61.6881 6.77706 61.2683 6.76749C60.8485 6.75792 60.4089 6.74349 59.9485 6.72435C59.4792 6.71473 59.0099 6.70516 58.5411 6.69554H58.0401C57.6881 6.68597 57.3139 6.67878 56.9168 6.67397C56.5198 6.66916 56.1134 6.66678 55.6985 6.66678C55.4005 6.66678 55.0985 6.66678 54.7916 6.66678C54.4847 6.66678 54.1827 6.67159 53.8847 6.68116H53.9792C53.5916 6.69078 53.2079 6.69316 52.8287 6.68835C52.45 6.68359 52.0708 6.68597 51.6921 6.69554C51.1777 6.71473 50.6634 6.72911 50.149 6.73873C49.6347 6.7483 49.1292 6.78668 48.6329 6.85381C48.4434 6.873 48.2472 6.88738 48.0441 6.89695C47.8411 6.90657 47.6403 6.91614 47.4418 6.92576C47.3696 6.93533 47.2952 6.94252 47.2185 6.94733C47.1418 6.95214 47.0673 6.95933 46.9951 6.9689C46.959 6.9689 46.9184 6.97371 46.8733 6.98328C46.8282 6.9929 46.7966 6.99766 46.7786 6.99766C46.5981 6.92095 46.4086 6.89695 46.21 6.92576C46.0115 6.95452 45.8175 6.96409 45.6281 6.95452C45.619 6.95452 45.6077 6.95452 45.5942 6.95452C45.5807 6.95452 45.5694 6.95452 45.5603 6.95452C45.5243 6.95452 45.4859 6.95452 45.4453 6.95452C45.4047 6.95452 45.3663 6.95933 45.3302 6.9689H45.3438C44.9919 7.05523 44.6287 7.11037 44.2542 7.13437C43.8797 7.15831 43.503 7.17988 43.124 7.19907C42.9164 7.21826 42.7134 7.24226 42.5149 7.27102C42.3164 7.29978 42.1179 7.32378 41.9193 7.34297C41.5223 7.39092 41.1207 7.43406 40.7147 7.47243C40.3086 7.51081 39.9025 7.54914 39.4965 7.58752C39.3251 7.60671 39.1513 7.62352 38.9753 7.6379C38.7994 7.65228 38.6257 7.66904 38.4543 7.68823C38.2918 7.70742 38.1316 7.72661 37.9738 7.7458C37.8158 7.76499 37.6601 7.78893 37.5068 7.81769C37.1639 7.87526 36.821 7.9304 36.4781 7.98316C36.1351 8.03592 35.7923 8.09105 35.4494 8.14862C35.4403 8.14862 35.4313 8.151 35.4223 8.15581C35.4133 8.16057 35.4043 8.163 35.3952 8.163C35.1336 8.14381 34.8899 8.16057 34.6643 8.21333C34.4387 8.26609 34.2041 8.29728 33.9605 8.30685C33.8251 8.30685 33.6988 8.32366 33.5815 8.35723C33.4642 8.3908 33.3378 8.41718 33.2025 8.43637C32.9949 8.47469 32.7806 8.50588 32.5596 8.52983C32.3385 8.55383 32.1242 8.58502 31.9166 8.62335C31.5105 8.70011 31.1045 8.77681 30.6984 8.85357C30.2924 8.93028 29.8818 9.00223 29.4667 9.06937C29.178 9.12688 28.8892 9.17488 28.6004 9.21321C28.3117 9.25159 28.0229 9.28997 27.7342 9.3283C27.6439 9.34749 27.5582 9.3643 27.477 9.37868C27.3958 9.39305 27.3146 9.40506 27.2334 9.41462C27.0258 9.46257 26.816 9.50814 26.604 9.55133C26.3919 9.59447 26.1821 9.64004 25.9746 9.68799C25.9655 9.68799 25.9565 9.69037 25.9475 9.69518C25.9385 9.69999 25.9295 9.70237 25.9204 9.70237C25.6226 9.6448 25.3677 9.65442 25.1556 9.73112C24.9436 9.80788 24.7202 9.8654 24.4856 9.90378C24.242 9.93254 24.0119 9.97811 23.7953 10.0404C23.5788 10.1028 23.3577 10.158 23.1321 10.2059C23.069 10.2251 22.9967 10.2395 22.9155 10.249C22.8343 10.2587 22.7486 10.2682 22.6584 10.2778H22.6449C22.3741 10.3066 22.1102 10.3378 21.853 10.3714C21.5958 10.4049 21.35 10.4553 21.1153 10.5224C20.8898 10.5895 20.6529 10.6519 20.4047 10.7094C20.1566 10.767 19.9061 10.8197 19.6535 10.8677C19.1031 10.954 18.5774 11.0643 18.0766 11.1986C17.5758 11.3329 17.0682 11.4623 16.5539 11.587C16.3012 11.6446 16.0576 11.7069 15.823 11.7741C15.5884 11.8412 15.3582 11.9083 15.1326 11.9755C14.9702 12.0234 14.7965 12.0618 14.6115 12.0906C14.4265 12.1193 14.2438 12.1529 14.0634 12.1913C14.0182 12.2008 13.9731 12.2105 13.928 12.22C13.8829 12.2296 13.8423 12.244 13.8062 12.2632C13.5354 12.3975 13.2287 12.515 12.8857 12.6157C12.5429 12.7164 12.2045 12.8195 11.8706 12.925C11.6901 12.9825 11.5209 13.0401 11.363 13.0976C11.2051 13.1552 11.0089 13.1935 10.7742 13.2127C10.7472 13.2127 10.7223 13.2271 10.6998 13.2559C10.6772 13.2846 10.6434 13.3134 10.5983 13.3422L11.1261 13.3134L10.4494 13.6156L9.08228 13.4429C9.17253 13.3853 9.26955 13.3374 9.37332 13.2991C9.47708 13.2607 9.48386 13.2127 9.39361 13.1552C9.54703 13.1456 9.63951 13.136 9.67109 13.1264C9.70267 13.1168 9.74104 13.0785 9.78614 13.0113L9.35302 13.112L9.63723 12.7955C9.67337 12.7859 9.71168 12.7811 9.75228 12.7811C9.79292 12.7811 9.8403 12.7763 9.89441 12.7667L9.77262 12.5509C9.72748 12.5509 9.6846 12.5533 9.64401 12.5581C9.60342 12.5629 9.56955 12.5701 9.54252 12.5797C9.34396 12.666 9.14545 12.75 8.94693 12.8315C8.74842 12.913 8.5454 12.9921 8.33782 13.0688C8.29272 13.088 8.24084 13.1024 8.18218 13.112C8.12352 13.1216 8.06262 13.1264 7.99945 13.1264C7.98144 13.1264 7.96787 13.1264 7.95886 13.1264C7.94985 13.1264 7.93629 13.1264 7.91827 13.1264H7.93178C7.76936 13.1168 7.6295 13.1264 7.51218 13.1552C7.39485 13.1839 7.30015 13.2223 7.22792 13.2702C7.14673 13.3278 7.05876 13.3734 6.96401 13.407C6.86926 13.4405 6.76772 13.4621 6.65946 13.4717C6.38876 13.5005 6.15861 13.558 5.96916 13.6443C5.77965 13.7306 5.59015 13.8122 5.40064 13.8889C5.17505 13.9848 4.95852 14.0879 4.75095 14.1982C4.54341 14.3085 4.34037 14.4164 4.14185 14.5219L3.41094 14.4787L3.85761 14.1478C3.97492 14.1574 4.07869 14.1718 4.16892 14.191C4.25916 14.2102 4.32684 14.2102 4.37196 14.191C4.45317 14.1814 4.50956 14.1598 4.54115 14.1263C4.57273 14.0927 4.54341 14.052 4.45317 14.004C4.42609 13.9848 4.41482 13.9584 4.41933 13.9249C4.42384 13.8913 4.43963 13.8649 4.4667 13.8457C4.52987 13.7978 4.60431 13.7522 4.69004 13.7091C4.77576 13.6659 4.85923 13.6203 4.94045 13.5724C5.30139 13.3806 5.55856 13.2439 5.71198 13.1623C5.86535 13.0808 6.00074 13.0065 6.11802 12.9394L5.63074 13.1839C5.64881 13.1743 5.66683 13.1623 5.6849 13.148C5.70292 13.1336 5.72099 13.1264 5.73906 13.1264C6.00074 13.1072 6.17668 13.0496 6.26693 12.9537C6.35718 12.8578 6.50604 12.7667 6.71361 12.6804L6.06391 12.7092C6.13609 12.5845 6.15639 12.5102 6.1248 12.4862C6.09322 12.4622 5.94658 12.4406 5.6849 12.4215C5.66683 12.527 5.59916 12.6181 5.48188 12.6948C5.36455 12.7715 5.20663 12.8482 5.00812 12.925C4.71034 13.0209 4.42835 13.1288 4.16215 13.2487C3.89596 13.3686 3.6275 13.486 3.3568 13.6012C3.29363 13.6395 3.23272 13.6755 3.17406 13.7091C3.11541 13.7426 3.06352 13.7834 3.01841 13.8313V13.817C2.9372 13.8937 2.83343 13.956 2.70709 14.004C2.58076 14.052 2.4409 14.0855 2.2875 14.1047C2.03483 14.1335 1.86564 14.1862 1.77992 14.2629C1.69419 14.3397 1.61072 14.4164 1.52951 14.4931C1.48439 14.5315 1.45055 14.5722 1.42799 14.6154C1.40543 14.6586 1.32648 14.6898 1.19112 14.709C1.09186 14.6322 1.08058 14.5602 1.15728 14.4931C1.23399 14.426 1.29489 14.3588 1.34001 14.2917C1.36708 14.2342 1.3761 14.1838 1.36708 14.1407C1.35806 14.0975 1.33099 14.052 1.28587 14.004C1.69193 13.9848 1.94008 13.9536 2.03032 13.9105C2.12055 13.8673 2.19726 13.7498 2.26042 13.558L1.55658 13.5148L1.23173 13.1983L0.893342 13.1695C0.893342 13.16 0.891084 13.1503 0.886574 13.1408C0.882059 13.1312 0.879807 13.1216 0.879807 13.112C0.933946 13.0641 0.988089 13.0137 1.04223 12.9609C1.09637 12.9082 1.14149 12.8578 1.17758 12.8099C1.21368 12.7523 1.26556 12.7044 1.33324 12.666C1.40092 12.6277 1.48439 12.5941 1.58365 12.5653C1.76412 12.5078 1.91752 12.4406 2.04386 12.3639C2.17019 12.2872 2.25591 12.2008 2.30103 12.105C2.21982 12.0858 2.12507 12.0666 2.01678 12.0474C1.9085 12.0282 1.85436 12.0091 1.85436 11.9899C1.85436 11.9419 1.88143 11.8963 1.93557 11.8532C1.98971 11.81 2.03483 11.7693 2.07093 11.7309C2.098 11.7117 2.12055 11.6901 2.1386 11.6661C2.15665 11.6422 2.16116 11.611 2.15214 11.5727C1.9085 11.6589 1.65584 11.7357 1.39415 11.8028C1.13247 11.87 0.94748 11.9802 0.839198 12.1337C0.794079 12.2008 0.692564 12.2296 0.534649 12.22C0.376737 12.2105 0.19852 12.1673 0 12.0906C0.0631653 11.9851 0.157914 11.8843 0.284245 11.7885C0.410576 11.6925 0.559465 11.6014 0.730916 11.5151C0.929436 11.4192 1.13472 11.3232 1.34678 11.2273C1.55883 11.1315 1.72803 11.0211 1.85436 10.8965C1.91752 10.8293 2.01002 10.7694 2.13184 10.7166C2.25365 10.6639 2.35968 10.6039 2.44992 10.5368C2.52211 10.4888 2.5785 10.4385 2.61911 10.3857C2.65972 10.333 2.65746 10.273 2.61235 10.2059C2.5582 10.1292 2.58076 10.086 2.68002 10.0764C2.77928 10.0668 2.89659 10.0716 3.03195 10.0908C3.03195 10.0621 3.0342 10.0381 3.03871 10.0189C3.04322 9.99968 3.03646 9.98049 3.01841 9.96135C2.94622 9.89421 2.86726 9.85821 2.78154 9.85345C2.69581 9.84864 2.59881 9.87021 2.49052 9.91816C2.41834 9.94692 2.3484 9.97811 2.28073 10.0117C2.21305 10.0452 2.14311 10.0764 2.07093 10.1052L1.96264 10.0621C2.0619 10.0141 2.15665 9.96135 2.24689 9.90378C2.33712 9.84621 2.43638 9.7935 2.54467 9.7455C2.64393 9.69755 2.7274 9.65204 2.79507 9.60885C2.86275 9.56571 2.86501 9.50576 2.80184 9.429C2.76575 9.39068 2.78379 9.3403 2.85598 9.27797C2.92817 9.21564 2.99134 9.15088 3.04548 9.08375L3.49215 9.21321C3.53727 9.18445 3.5869 9.15326 3.64104 9.11969C3.69518 9.08612 3.7403 9.05018 3.7764 9.0118C3.81249 8.98304 3.8373 8.94709 3.85084 8.9039C3.86438 8.86076 3.89821 8.82476 3.95236 8.796C4.1599 8.7193 4.34714 8.63778 4.51408 8.55145C4.68101 8.46513 4.85021 8.37399 5.02163 8.27809C5.0397 8.26852 5.0803 8.26371 5.14347 8.26371C5.20663 8.26371 5.2698 8.26371 5.33297 8.26371L5.19762 8.09106C5.23371 8.08149 5.26302 8.07187 5.28559 8.0623C5.30817 8.05268 5.33297 8.04792 5.36005 8.04792C5.63975 8.01911 5.88114 7.97116 6.08421 7.90402C6.28723 7.83688 6.46545 7.75056 6.61886 7.64509C6.64589 7.6259 6.66396 7.60671 6.67297 7.58752C6.68203 7.56833 6.69104 7.54914 6.70005 7.53C6.70906 7.52038 6.71134 7.50362 6.70683 7.47962C6.70233 7.45568 6.70906 7.44368 6.72713 7.44368C6.94371 7.4053 7.10837 7.34054 7.22119 7.24945C7.33396 7.15831 7.48059 7.08399 7.66109 7.02647C8.20248 6.85381 8.73713 6.67397 9.265 6.48693C9.79292 6.2999 10.3231 6.1153 10.8554 5.93307C11.1352 5.84675 11.4127 5.75561 11.6879 5.65971C11.9631 5.56381 12.2406 5.46792 12.5203 5.37197C12.6015 5.35278 12.6917 5.33364 12.791 5.31445C12.8903 5.29526 12.985 5.27126 13.0752 5.2425C13.3189 5.16577 13.558 5.09144 13.7926 5.01951C14.0272 4.94757 14.2619 4.87324 14.4965 4.79651C14.7492 4.87324 14.9161 4.914 14.9973 4.9188C15.0785 4.9236 15.2229 4.89722 15.4304 4.83968C15.3221 4.75335 15.2793 4.67423 15.3018 4.60229C15.3244 4.53036 15.4395 4.47042 15.647 4.42246L15.2274 4.48001L15.1597 4.42246L15.8365 4.24982L15.9177 4.29298L15.7011 4.39369C15.8004 4.39369 15.8997 4.39129 15.9989 4.3865C16.0982 4.3817 16.1929 4.3793 16.2832 4.3793C16.3734 4.36971 16.4546 4.36492 16.5268 4.36492C16.599 4.36492 16.6396 4.33135 16.6486 4.26421C16.6486 4.25462 16.6983 4.23783 16.7975 4.21386C16.8968 4.18988 16.9735 4.18269 17.0276 4.19228C17.1901 4.22105 17.2848 4.21386 17.3119 4.1707C17.3389 4.12753 17.3796 4.08677 17.4337 4.04841C17.4788 4.06759 17.5239 4.08437 17.569 4.09876C17.6142 4.11315 17.6548 4.12514 17.6908 4.13473C17.7901 4.19228 17.8916 4.23303 17.9954 4.25701C18.0992 4.28099 18.2187 4.25462 18.3541 4.17789C18.3992 4.15871 18.4421 4.14432 18.4827 4.13473C18.5233 4.12514 18.5661 4.12034 18.6112 4.12034C18.6112 4.12034 18.6135 4.12034 18.618 4.12034C18.6225 4.12034 18.6248 4.12034 18.6248 4.12034C18.8865 4.12034 19.1076 4.08917 19.288 4.02683C19.4685 3.96449 19.6445 3.90454 19.8159 3.847C19.8159 3.78945 19.8047 3.7319 19.7821 3.67436C19.7595 3.61681 19.7708 3.56885 19.8159 3.53049C19.8881 3.49212 19.9874 3.46095 20.1137 3.43697C20.24 3.413 20.3573 3.38662 20.4656 3.35785H20.4792H20.5062V3.37224L20.9529 3.42978C20.9168 3.40101 20.8898 3.37463 20.8717 3.35066C20.8536 3.32668 20.8311 3.3051 20.804 3.28591L21.4131 3.14205L21.6838 3.40101C22.0448 3.36264 22.3877 3.31229 22.7125 3.24995C23.0374 3.18761 23.3757 3.12286 23.7277 3.05573L23.4434 2.94063C23.5247 2.93105 23.6058 2.91666 23.6871 2.89748C23.7683 2.87829 23.8314 2.8735 23.8765 2.88309C24.0299 2.91186 24.1473 2.91186 24.2285 2.88309C24.3097 2.85432 24.3819 2.81115 24.4451 2.75361C24.6616 2.82074 24.8556 2.83753 25.0271 2.80396C25.1985 2.77039 25.3609 2.72004 25.5144 2.6529C25.6768 2.68167 25.8256 2.69606 25.961 2.69606C26.0964 2.69606 26.2362 2.6577 26.3806 2.58097C26.4708 2.53301 26.5972 2.49944 26.7596 2.48026C26.922 2.46108 27.0709 2.4371 27.2063 2.40833C27.3236 2.38915 27.4432 2.36996 27.5649 2.35078C27.6868 2.3316 27.8018 2.30282 27.9101 2.26446C27.9823 2.24528 28.0477 2.23089 28.1064 2.2213C28.165 2.21171 28.2395 2.21651 28.3297 2.23569C28.429 2.25487 28.517 2.25727 28.5937 2.24288C28.6703 2.2285 28.7358 2.20212 28.79 2.16375C28.9253 2.06784 29.099 2.01509 29.311 2.0055C29.5231 1.99591 29.7329 1.98632 29.9404 1.97673C30.0307 1.96713 30.1254 1.96234 30.2247 1.96234C30.324 1.96234 30.4142 1.95275 30.4954 1.93357C30.9105 1.86643 31.3256 1.7945 31.7406 1.71777C32.1557 1.64104 32.5889 1.59788 33.0401 1.58829C33.2296 1.5787 33.4191 1.55951 33.6086 1.53074C33.7981 1.50197 33.9921 1.51156 34.1906 1.55951C34.371 1.50197 34.5808 1.48039 34.82 1.49477C35.0591 1.50916 35.2463 1.45401 35.3817 1.32933C35.4268 1.28137 35.5035 1.26219 35.6118 1.27178C35.7201 1.28137 35.8149 1.30535 35.896 1.34371C35.9953 1.38208 36.081 1.39886 36.1532 1.39407C36.2254 1.38927 36.2976 1.3629 36.3698 1.31494C36.4149 1.28617 36.4623 1.26219 36.5119 1.24301C36.5615 1.22383 36.6179 1.21423 36.6811 1.21423C36.8977 1.19505 37.1143 1.17587 37.3308 1.15669C37.5474 1.13751 37.7685 1.1423 37.9941 1.17107C38.0662 1.17107 38.1316 1.17347 38.1903 1.17827C38.249 1.18306 38.3098 1.16148 38.373 1.11353C38.4182 1.08476 38.5039 1.06797 38.6302 1.06317C38.7565 1.05838 38.8694 1.05119 38.9686 1.04159C39.1851 1.02241 39.404 1.00563 39.625 0.99124C39.8461 0.976856 40.074 0.960071 40.3086 0.940887C40.4079 1.0368 40.5522 1.07516 40.7417 1.05598C40.9312 1.0368 41.1072 1.02241 41.2696 1.01282C41.5584 0.99364 41.8449 0.967266 42.1291 0.933697C42.4134 0.900128 42.6999 0.868954 42.9886 0.84018C43.1781 0.821001 43.3676 0.806611 43.5571 0.797021C43.7466 0.787431 43.9406 0.777837 44.1392 0.768247C44.6445 0.749068 45.152 0.734678 45.6619 0.725088C46.1717 0.715499 46.6793 0.705904 47.1846 0.696314C47.726 0.686725 48.2652 0.68193 48.8021 0.68193C49.339 0.68193 49.8782 0.68193 50.4198 0.68193C50.898 0.68193 51.3738 0.684325 51.8475 0.689119C52.3213 0.693919 52.7926 0.701109 53.2619 0.710704C53.5149 0.720294 53.7698 0.729883 54.0267 0.739473C54.2842 0.749068 54.5391 0.758657 54.7916 0.768247C55.3693 0.777837 55.949 0.794621 56.5307 0.8186C57.1129 0.84258 57.6881 0.883344 58.2564 0.940887C58.4644 0.960071 58.6718 0.974456 58.8792 0.984045C59.0866 0.99364 59.3035 0.99364 59.5292 0.984045C59.6554 0.984045 59.7837 0.996035 59.9149 1.02001C60.0455 1.04399 60.1787 1.06078 60.3139 1.07037C60.6842 1.09914 61.054 1.12072 61.4238 1.13511C61.7941 1.1495 62.1639 1.17107 62.5337 1.19985C62.9668 1.23821 63.3955 1.27658 63.8198 1.31494C64.2441 1.3533 64.6678 1.39167 65.0921 1.43004C65.3807 1.44922 65.6693 1.4732 65.9584 1.50197C66.247 1.53074 66.5356 1.55951 66.8247 1.58829C67.1223 1.61706 67.4203 1.64583 67.7178 1.67461C68.0158 1.70338 68.3089 1.73695 68.5975 1.77532C69.1119 1.84245 69.6218 1.91199 70.1272 1.98392C70.6327 2.05586 71.1381 2.12539 71.6431 2.19253C72.1307 2.26926 72.6153 2.34599 73.0985 2.42272C73.5812 2.49944 74.0658 2.57617 74.5535 2.6529C74.8059 2.70086 75.0634 2.74402 75.3248 2.78238C75.5866 2.82074 75.8436 2.8687 76.0965 2.92625H75.6901C75.8708 3.04134 76.0332 3.11087 76.1777 3.13485C76.3218 3.15883 76.5431 3.15164 76.8406 3.11327C76.8767 3.15164 76.904 3.1924 76.9223 3.23556C76.9401 3.27872 77.0302 3.2955 77.1926 3.28591L77.3144 3.11327C77.3955 3.24755 77.5153 3.35066 77.6733 3.42259C77.8312 3.49452 78.0322 3.54488 78.2757 3.57365C78.2757 3.57365 78.2757 3.57605 78.2757 3.58084C78.2757 3.58563 78.2757 3.58803 78.2757 3.58803C78.3208 3.59762 78.3683 3.60961 78.4178 3.624C78.4673 3.63839 78.501 3.65517 78.5193 3.67436C78.5644 3.71272 78.6025 3.75348 78.6342 3.79664C78.6658 3.8398 78.7089 3.89495 78.7629 3.96209L79.2639 3.83261C79.3451 3.8422 79.4554 3.86378 79.595 3.89735C79.7351 3.93092 79.8817 3.96209 80.0351 3.99086C80.3693 4.03882 80.6827 4.10356 80.9757 4.18508C81.2693 4.2666 81.5604 4.34573 81.849 4.42246C82.0926 4.48001 82.3431 4.53516 82.6 4.58791C82.8574 4.64066 83.1079 4.69581 83.3515 4.75335C83.6312 4.82049 83.9178 4.88283 84.2109 4.94038C84.504 4.99793 84.7589 5.07466 84.9757 5.17057C85.147 5.24731 85.3456 5.30726 85.5713 5.3504C85.797 5.39354 85.9545 5.47268 86.0451 5.58776C85.7743 5.69328 85.5282 5.71485 85.3074 5.65252C85.0861 5.59019 84.854 5.53981 84.6104 5.50149C84.7183 5.53981 84.7817 5.58776 84.7995 5.64533C84.8178 5.7029 84.8856 5.74123 85.0025 5.76042C85.1198 5.78918 85.2465 5.8108 85.3817 5.82518C85.5168 5.83956 85.6614 5.85631 85.8148 5.8755C85.7337 5.99059 85.747 6.08173 85.8554 6.14887C85.9639 6.216 86.1441 6.26876 86.397 6.30709L86.9787 6.0913L86.8163 5.91869L87.7366 5.94745C87.701 6.00497 87.6693 6.05773 87.6421 6.10568C87.6149 6.15368 87.7099 6.18243 87.9262 6.192L87.2767 6.5085C87.4569 6.60445 87.651 6.64759 87.8589 6.63802C88.0663 6.6284 88.2604 6.62364 88.4406 6.62364L90.0109 7.12718C89.9748 7.14631 89.9475 7.16075 89.9297 7.17031C89.9114 7.17988 89.8936 7.1895 89.8753 7.19907C89.8035 7.21826 89.7376 7.23745 89.6792 7.25664C89.6208 7.27583 89.6183 7.3094 89.6723 7.35735C89.7267 7.39573 89.799 7.42211 89.8891 7.43649C89.9792 7.45087 90.0559 7.43887 90.1193 7.40049C90.2183 7.35254 90.3134 7.33578 90.4035 7.35016C90.4936 7.36454 90.5881 7.37173 90.6876 7.37173C90.796 7.3813 90.9089 7.38373 91.0257 7.37892C91.1431 7.37411 91.2604 7.37173 91.3777 7.37173C91.4233 7.37173 91.4728 7.37892 91.5267 7.3933C91.5807 7.40768 91.6352 7.41968 91.6891 7.4293C91.4183 7.51557 91.2718 7.58752 91.2495 7.64509C91.2267 7.70261 91.3059 7.80331 91.4861 7.94721C91.6218 7.92802 91.7594 7.91121 91.899 7.89683C92.0391 7.88245 92.1767 7.90402 92.3119 7.96159C92.3391 7.98078 92.3886 7.98554 92.4609 7.97597C92.5332 7.9664 92.596 7.96159 92.65 7.96159C92.9119 7.95197 93.1084 7.97116 93.2391 8.01911C93.3698 8.06711 93.4396 8.14862 93.449 8.26371C93.4579 8.38837 93.4941 8.46994 93.5569 8.50826C93.6203 8.54664 93.7693 8.58502 94.004 8.62335C93.9495 8.70011 93.8955 8.74568 93.8416 8.76006C93.7871 8.77444 93.7104 8.76724 93.6114 8.73849C93.2505 8.62335 92.8941 8.51069 92.5421 8.40037C92.1901 8.29009 91.8381 8.17738 91.4861 8.0623C91.4139 8.03354 91.3327 8.00954 91.2426 7.99035C91.1525 7.97116 91.0441 7.9424 90.9178 7.90402L90.8906 8.163C90.9356 8.17257 90.9698 8.18219 90.9921 8.19176C91.0149 8.20138 91.0351 8.20138 91.053 8.19176C91.2064 8.19176 91.3371 8.20614 91.4455 8.23495C91.554 8.26371 91.6668 8.30685 91.7842 8.36442C91.9644 8.45074 92.1698 8.52264 92.4 8.58021C92.6297 8.63778 92.849 8.70492 93.0564 8.78162C93.5436 8.96385 94.0421 9.14131 94.552 9.31392C95.0619 9.48657 95.5198 9.68318 95.9257 9.90378C96.0975 10.0093 96.2822 10.1076 96.4807 10.1987C96.6792 10.2898 96.8688 10.3833 97.0495 10.4793C97.1124 10.508 97.1713 10.5416 97.2253 10.58C97.2792 10.6183 97.3292 10.6567 97.3743 10.6951C97.4554 10.7718 97.5228 10.8221 97.5772 10.8461C97.6312 10.8701 97.7891 10.9108 98.051 10.9684C98.096 10.8917 98.0827 10.827 98.0104 10.7742C97.9381 10.7214 97.8703 10.6711 97.8074 10.6231C97.6629 10.5176 97.5005 10.4169 97.3198 10.321C97.1396 10.2251 96.9678 10.1244 96.8054 10.0189C96.5079 9.82707 96.1693 9.6568 95.7906 9.50814C95.4114 9.35949 95.0282 9.21321 94.6401 9.06937C94.5767 9.04061 94.5139 9.01661 94.4505 8.99742C94.3871 8.97823 94.3421 8.94947 94.3153 8.91109C94.2792 8.88233 94.2634 8.85114 94.2678 8.81757C94.2723 8.784 94.2698 8.74325 94.2609 8.6953C94.4683 8.76243 94.6604 8.82 94.8361 8.86795C95.0124 8.9159 95.1723 8.96866 95.3168 9.02618C95.4792 9.09331 95.6302 9.16764 95.7703 9.24921C95.9099 9.33073 96.0475 9.41462 96.1832 9.50095C96.3723 9.59685 96.5574 9.69756 96.7381 9.80307C96.9183 9.90859 97.0901 10.0189 97.2525 10.134C97.4777 10.2778 97.6965 10.4265 97.9089 10.58C98.1208 10.7334 98.3352 10.8917 98.5515 11.0547L98.1049 11.1266L98.7411 11.7165L98.2673 11.7309L98.7683 12.0042L98.9441 11.8748C99.1064 11.9419 99.1673 11.9971 99.1267 12.0402C99.0861 12.0834 99.003 12.1241 98.8767 12.1625C98.9941 12.2584 99.1089 12.3519 99.2218 12.443C99.3346 12.5342 99.4451 12.6277 99.5535 12.7236C99.5624 12.714 99.5757 12.7092 99.5941 12.7092C99.6119 12.7092 99.6302 12.7044 99.648 12.6948V12.5078C99.9639 12.5653 100.056 12.6516 99.9257 12.7667C99.7946 12.8818 99.8193 12.9729 100 13.0401ZM2.2875 13.5436C2.43187 13.5532 2.54467 13.5436 2.62588 13.5148C2.70709 13.486 2.77026 13.4381 2.81538 13.371C2.58979 13.3998 2.45443 13.4213 2.40931 13.4357C2.36419 13.4501 2.32359 13.486 2.2875 13.5436ZM3.28912 9.55852L3.43801 9.60166L3.73579 9.38587C3.59141 9.39543 3.47185 9.41224 3.3771 9.43619C3.28235 9.46019 3.25302 9.50095 3.28912 9.55852ZM6.23985 8.27809L6.32104 8.32123L7.28208 7.90402C7.03847 7.91364 6.83089 7.9544 6.65946 8.0263C6.48802 8.09824 6.34812 8.18219 6.23985 8.27809ZM7.11965 12.4071L6.97074 12.4646L7.17381 12.5797L7.33624 12.5078C7.42644 12.5557 7.4648 12.5749 7.45129 12.5653C7.43772 12.5557 7.41292 12.5413 7.37683 12.5222L7.11965 12.4071ZM7.95886 7.50119C7.92277 7.52038 7.88441 7.53719 7.84381 7.55157C7.80322 7.56595 7.76035 7.58271 7.7152 7.6019C7.7152 7.6019 7.72426 7.60909 7.74228 7.62352C7.76035 7.6379 7.76936 7.64028 7.76936 7.63071C7.82351 7.62109 7.8754 7.61152 7.925 7.6019C7.97465 7.59233 8.02203 7.58271 8.06713 7.57314L7.95886 7.50119ZM10.0839 13.3278C10.0478 13.3374 10.014 13.347 9.98243 13.3566C9.95084 13.3662 9.93505 13.371 9.93505 13.371C9.93505 13.3806 9.94178 13.3926 9.95535 13.407C9.96886 13.4213 9.98465 13.4333 10.0027 13.4429C10.0207 13.4429 10.0456 13.4405 10.0771 13.4357C10.1087 13.4309 10.1336 13.4285 10.1516 13.4285L10.0839 13.3278ZM19.4369 4.13473C19.3918 4.14432 19.3535 4.1611 19.3219 4.18508C19.2903 4.20906 19.27 4.23064 19.2609 4.24982C19.2609 4.269 19.279 4.29058 19.3151 4.31456C19.3512 4.33854 19.3873 4.35053 19.4234 4.35053C19.4775 4.35053 19.5294 4.34573 19.5791 4.33614C19.6287 4.32655 19.676 4.31216 19.7212 4.29298H19.7076C19.7708 4.2738 19.8272 4.25222 19.8768 4.22824C19.9264 4.20427 19.9784 4.18269 20.0325 4.1635C19.834 4.12514 19.7054 4.10356 19.6467 4.09876C19.5881 4.09396 19.5181 4.10595 19.4369 4.13473ZM20.4792 3.4154L20.3709 3.64558C20.3979 3.64558 20.425 3.64558 20.4521 3.64558C20.4792 3.64558 20.5062 3.64558 20.5333 3.64558L20.4792 3.4154ZM74.3772 2.73922L74.3233 2.79677L75.054 2.92625C74.9911 2.83993 74.8896 2.79677 74.7495 2.79677C74.6099 2.79677 74.4856 2.77759 74.3772 2.73922ZM79.9946 4.33614L79.6292 4.50878C79.7104 4.52797 79.7847 4.54475 79.8525 4.55913C79.9203 4.57352 79.9812 4.5903 80.0351 4.60949C80.0891 4.62867 80.1411 4.65025 80.1911 4.67423C80.2406 4.69821 80.2876 4.71978 80.3332 4.73897L80.4277 4.7102C80.3554 4.65265 80.2856 4.5927 80.2178 4.53036C80.15 4.46802 80.0757 4.40328 79.9946 4.33614ZM81.2807 4.78213C81.4337 4.82049 81.5401 4.83009 81.5985 4.8109C81.6574 4.79172 81.6822 4.74856 81.6728 4.68142L81.2807 4.78213ZM87.2089 9.28516C87.0287 9.23721 86.8594 9.19402 86.7015 9.15569C86.5436 9.11731 86.3876 9.08375 86.2347 9.05499C86.2074 9.04537 86.1688 9.0478 86.1193 9.06218C86.0698 9.07656 86.0178 9.08856 85.9639 9.09812C86.1262 9.17488 86.3178 9.23002 86.5391 9.26359C86.7599 9.29716 86.9832 9.30435 87.2089 9.28516ZM85.9772 6.73873C86.0856 6.77706 86.1738 6.80587 86.2411 6.82506C86.3089 6.84419 86.3743 6.86338 86.4376 6.88257C86.4465 6.81543 86.4149 6.7723 86.3426 6.75311C86.2703 6.73392 86.1485 6.72911 85.9772 6.73873ZM86.5188 6.94014L86.4104 6.95452C86.4376 6.97371 86.4599 6.9929 86.4782 7.01204C86.496 7.03123 86.5188 7.05042 86.5455 7.06961C86.5639 7.06004 86.5817 7.05523 86.6 7.05523C86.6178 7.05523 86.6317 7.05042 86.6406 7.04085L86.5188 6.94014ZM87.2634 6.89695C87.2272 6.87776 87.1614 6.86338 87.0668 6.85381C86.9723 6.84419 86.8658 6.83462 86.749 6.82506L87.0465 7.15593C87.1099 7.10799 87.1817 7.0648 87.2634 7.02647C87.3446 6.98809 87.3446 6.9449 87.2634 6.89695ZM88.8876 6.86819C88.8604 6.86819 88.8287 6.86819 88.7926 6.86819C88.7564 6.86819 88.7203 6.86819 88.6842 6.86819L88.7654 7.04085H88.8876V6.86819ZM89.2257 7.6019L89.1579 7.65947L89.4287 7.7458L89.5238 7.68823L89.2257 7.6019ZM89.9158 10.2203C89.9252 10.2203 89.9386 10.2155 89.9569 10.2059C89.9748 10.1963 90.002 10.1867 90.0381 10.1771L89.6995 10.0621C89.6544 10.1292 89.6564 10.1723 89.7064 10.1915C89.7559 10.2107 89.8257 10.2203 89.9158 10.2203ZM90.1733 7.77456C90.1371 7.76499 90.101 7.76256 90.0648 7.76737C90.0287 7.77218 89.9926 7.77456 89.9569 7.77456C89.9569 7.77456 89.9545 7.77693 89.95 7.78174C89.9455 7.78656 89.9431 7.79375 89.9431 7.80331V7.81769C89.9975 7.82731 90.0515 7.83688 90.1054 7.8465C90.1599 7.85607 90.2139 7.86569 90.2678 7.87526L90.3223 7.83212C90.304 7.8225 90.2817 7.8105 90.2545 7.79612C90.2272 7.78174 90.2005 7.77456 90.1733 7.77456ZM90.6604 7.9184C90.5163 7.95678 90.4441 7.99516 90.4441 8.03354C90.4441 8.07187 90.4891 8.11981 90.5792 8.17738C90.6876 8.12943 90.7485 8.08625 90.7619 8.04792C90.7757 8.00954 90.7416 7.9664 90.6604 7.9184ZM91.4995 10.2347C91.2653 10.1771 91.0307 10.1244 90.796 10.0764C90.5614 10.0285 90.3267 9.98049 90.0921 9.93254C90.0738 9.93254 90.0446 9.94454 90.004 9.96854C89.9634 9.99249 89.9114 10.0189 89.8485 10.0476C90.0559 10.0476 90.2342 10.0501 90.3832 10.0549C90.5322 10.0596 90.6287 10.1052 90.6743 10.1915L90.4847 10.3354C90.6832 10.3929 90.8772 10.4121 91.0668 10.3929C91.2559 10.3737 91.4455 10.3594 91.6351 10.3497C91.6168 10.3306 91.599 10.309 91.5807 10.285C91.5629 10.261 91.5356 10.2443 91.4995 10.2347ZM91.6891 10.3642C91.8698 10.4409 92.0525 10.5128 92.2376 10.58C92.4223 10.6471 92.5282 10.7382 92.5555 10.8533C92.655 10.8533 92.747 10.8485 92.8332 10.8389C92.9188 10.8293 92.9975 10.8293 93.0698 10.8389C93.151 10.8485 93.2347 10.8677 93.3203 10.8965C93.4059 10.9252 93.503 10.954 93.6114 10.9828C93.4757 10.8006 93.2569 10.6615 92.9549 10.5656C92.6525 10.4696 92.2307 10.4025 91.6891 10.3642ZM94.004 10.8965L93.8822 11.1842L94.4233 11.0979C94.3693 11.0595 94.3243 11.0164 94.2881 10.9684C94.252 10.9204 94.1574 10.8965 94.004 10.8965ZM94.4639 11.0979C94.4911 11.1363 94.5183 11.177 94.5451 11.2202C94.5723 11.2633 94.6084 11.2993 94.6535 11.3281C94.7346 11.3856 94.8272 11.4096 94.9312 11.4C95.0347 11.3904 95.1272 11.3472 95.2084 11.2705L94.4639 11.0979ZM97.7802 12.4358C97.5995 12.3399 97.4079 12.2488 97.205 12.1625C97.002 12.0762 96.801 11.9851 96.6025 11.8892L96.5079 11.9035C96.5257 11.9419 96.5396 11.9779 96.5485 12.0114C96.5574 12.045 96.5847 12.0762 96.6297 12.105C96.7832 12.2008 96.9411 12.2944 97.1035 12.3855C97.2658 12.4766 97.4282 12.5701 97.5906 12.666C97.6178 12.6756 97.6515 12.6876 97.6921 12.702C97.7327 12.7164 97.7757 12.7284 97.8208 12.738C97.9203 12.6804 97.954 12.6252 97.9223 12.5725C97.8906 12.5198 97.8436 12.4742 97.7802 12.4358ZM0.852733 13.8745L1.27233 14.004L0.636168 14.1478L0.852733 13.8745ZM78.2757 3.57365L78.3837 3.37224C78.447 3.4106 78.4559 3.44656 78.4109 3.48013C78.3658 3.5137 78.3208 3.54488 78.2757 3.57365ZM93.8822 8.46512C93.8911 8.46512 93.9 8.46269 93.9089 8.45793C93.9178 8.45312 93.9272 8.44594 93.9361 8.43637L94.1391 8.49388L94.0985 8.52264L93.8822 8.46512ZM90.5252 7.05523L90.8366 6.9689L90.9178 7.02647L90.6198 7.11274L90.5252 7.05523ZM86.0451 5.76042C86.0718 5.7029 86.1262 5.67409 86.2074 5.67409C86.2886 5.67409 86.3787 5.67409 86.4782 5.67409L86.3832 5.90431L86.0451 5.76042ZM84.7455 4.78213V4.75335L85.0025 4.79651L84.9757 4.82529L84.7455 4.78213ZM83.8114 4.53756L83.0941 4.39369C83.1124 4.39369 83.1302 4.39369 83.1485 4.39369C83.1663 4.39369 83.1847 4.39369 83.2025 4.39369C83.3109 4.39369 83.4168 4.40568 83.5208 4.42965C83.6243 4.45363 83.7213 4.4896 83.8114 4.53756ZM80.8203 3.90454L80.8881 3.86138L82.1198 4.10595C82.1104 4.11554 82.0995 4.12514 82.0856 4.13473C82.0723 4.14432 82.0609 4.15391 82.052 4.1635L80.8203 3.90454ZM79.5886 3.61681L78.9658 3.53049C79.1015 3.49212 79.2163 3.48733 79.3109 3.5161C79.4059 3.54488 79.4985 3.57845 79.5886 3.61681ZM70.1272 1.34371L70.1678 1.28617L70.4926 1.34371L70.4658 1.37249L70.1272 1.34371ZM67.6366 1.01282L67.6639 0.969661C67.9797 0.988845 68.2866 1.01522 68.5842 1.04879C68.8822 1.08236 69.1708 1.12312 69.4505 1.17107L69.3559 1.15669L69.3153 1.21423L67.6366 1.01282ZM66.053 0.854569L66.0936 0.782637L67.0005 0.868954L66.9599 0.926502L66.053 0.854569ZM64.9703 0.66754L65.647 0.753863C65.5025 0.773042 65.401 0.780237 65.3426 0.775442C65.2837 0.770647 65.1599 0.734678 64.9703 0.66754ZM63.0619 0.581223L63.1158 0.494902C63.2965 0.514083 63.4792 0.533264 63.6639 0.552449C63.849 0.571628 64.0317 0.586018 64.2124 0.595607L64.1985 0.653156C64.0094 0.633971 63.8198 0.619587 63.6302 0.609997C63.4406 0.600402 63.251 0.590813 63.0619 0.581223ZM62.3985 0.509288C62.4074 0.499697 62.4144 0.490106 62.4188 0.480515C62.4233 0.470923 62.4257 0.461333 62.4257 0.451742L62.7366 0.494902L62.7233 0.523675C62.6693 0.523675 62.6149 0.52128 62.5609 0.516482C62.5069 0.511686 62.4525 0.509288 62.3985 0.509288ZM60.6119 0.365422V0.322262C60.7921 0.331853 60.9728 0.341443 61.1535 0.351034C61.3337 0.360626 61.5099 0.370217 61.6812 0.379808V0.437355L60.6119 0.365422ZM59.4069 0.322262L59.4208 0.250328L59.7995 0.279102V0.307875L59.4069 0.322262ZM55.4277 0.135235C55.3104 0.125643 55.1931 0.123246 55.0757 0.128042C54.9584 0.132837 54.8411 0.130439 54.7238 0.120849C54.4168 0.120849 54.1124 0.116053 53.8104 0.106462C53.5079 0.0968703 53.2079 0.0920745 52.9099 0.0920745C52.7475 0.0824833 52.5762 0.0776885 52.3955 0.0776885C52.2153 0.0776885 52.0302 0.0776885 51.8406 0.0776885C51.7594 0.0776885 51.6807 0.0776885 51.604 0.0776885C51.5272 0.0776885 51.4485 0.0776885 51.3673 0.0776885H51.3941C50.9698 0.0872791 50.548 0.0944729 50.1287 0.0992688C49.7089 0.104063 49.2871 0.101666 48.863 0.0920745C48.6825 0.0920745 48.5021 0.0920745 48.3216 0.0920745C48.1411 0.0920745 47.9606 0.106462 47.7802 0.135235C47.7711 0.135235 47.7644 0.135235 47.7599 0.135235C47.7553 0.135235 47.7486 0.135235 47.7396 0.135235C47.6854 0.135235 47.6336 0.128042 47.5839 0.113655C47.5343 0.0992688 47.4869 0.0824833 47.4418 0.0633014H47.4553C48.4208 0.0345286 49.3864 0.015346 50.352 0.00575461C51.3173 -0.0038367 52.2807 -0.00143837 53.2416 0.0129486C54.203 0.0273346 55.1658 0.0489146 56.1317 0.0776885C57.0881 0.116053 58.0446 0.164009 59.001 0.221554V0.293488C58.4054 0.264715 57.8099 0.235942 57.2144 0.207168C56.6188 0.178395 56.0233 0.154417 55.4277 0.135235ZM44.9242 0.149622C45.1227 0.101666 45.4295 0.0704947 45.8446 0.0561086C46.2597 0.0417216 46.571 0.0537102 46.7786 0.0920745C46.2913 0.168803 45.9552 0.216759 45.7701 0.235942C45.5852 0.255123 45.3032 0.22635 44.9242 0.149622ZM44.2474 0.178395C44.2474 0.168803 44.2474 0.159213 44.2474 0.149622C44.2474 0.140031 44.2474 0.130439 44.2474 0.120849L44.5452 0.135235C44.5452 0.144826 44.543 0.156814 44.5385 0.171202C44.5339 0.185589 44.5317 0.192782 44.5317 0.192782C44.4865 0.192782 44.4392 0.190383 44.3896 0.185589C44.3399 0.180793 44.2925 0.178395 44.2474 0.178395ZM42.3796 0.250328L42.9886 0.178395C42.8803 0.235942 42.8014 0.267113 42.7518 0.271908C42.7021 0.276703 42.5781 0.269511 42.3796 0.250328ZM38.3189 0.552449L38.2918 0.710704C38.2197 0.653156 38.1836 0.617187 38.1836 0.602802C38.1836 0.588413 38.2287 0.571628 38.3189 0.552449ZM36.4239 0.897728C36.433 0.907318 36.4081 0.916912 36.3495 0.926502C36.2908 0.936092 36.2254 0.945682 36.1532 0.955276L36.1261 0.739473L37.1278 0.609997L37.1684 0.66754C37.1143 0.677135 37.0601 0.686725 37.0059 0.696314C36.9518 0.705904 36.8932 0.715499 36.83 0.725088C36.7217 0.734678 36.6179 0.746668 36.5187 0.761052C36.4194 0.775442 36.3878 0.821 36.4239 0.897728ZM35.4494 0.998435L35.5306 0.854569C35.5938 0.921707 35.6208 0.960071 35.6118 0.969661C35.6028 0.97925 35.5487 0.988845 35.4494 0.998435ZM35.4223 0.998435H35.4494L35.4358 1.01282L35.4223 0.998435ZM35.4088 0.998435C35.4088 0.998435 35.411 0.998435 35.4155 0.998435C35.42 0.998435 35.4223 0.998435 35.4223 0.998435L35.4358 1.01282L35.4088 0.998435ZM34.9486 0.955276L35.4088 0.998435C35.3095 1.04639 35.2215 1.06317 35.1449 1.04879C35.0681 1.0344 35.0027 1.00323 34.9486 0.955276ZM35.1651 0.825795L34.9351 0.940887C34.8719 0.912112 34.8493 0.892933 34.8674 0.883344C34.8854 0.873749 34.9847 0.854569 35.1651 0.825795ZM34.9351 0.955276H34.9215L34.9351 0.940887V0.955276ZM31.9978 1.44442C32.1873 1.41565 32.3114 1.3581 32.37 1.27178C32.4287 1.18546 32.5438 1.12792 32.7152 1.09914C32.7333 1.10873 32.7491 1.11593 32.7626 1.12072C32.7761 1.12552 32.7874 1.13271 32.7964 1.1423L32.6475 1.21423L33.0807 1.28617L31.9978 1.44442ZM29.9946 1.4732L30.2518 1.45881L30.2653 1.48758L30.0081 1.51635L29.9946 1.4732ZM28.9794 1.73216C29.0967 1.73216 29.2141 1.72736 29.3313 1.71777C29.4487 1.70818 29.5659 1.70338 29.6833 1.70338C29.575 1.75134 29.4622 1.78491 29.3449 1.80409C29.2276 1.82327 29.1057 1.79929 28.9794 1.73216ZM28.9794 1.73216C29.0246 1.67461 29.0719 1.63625 29.1215 1.61706C29.1712 1.59788 29.3133 1.5739 29.5479 1.54513C29.4306 1.58349 29.3268 1.61706 29.2366 1.64583C29.1464 1.67461 29.0606 1.70338 28.9794 1.73216ZM26.6513 2.25008C26.6333 2.25008 26.6152 2.24288 26.5972 2.2285C26.5792 2.21411 26.5746 2.20692 26.5837 2.20692C26.5927 2.19732 26.6107 2.18773 26.6378 2.17814C26.6649 2.16855 26.6964 2.15896 26.7325 2.14937C26.7416 2.16855 26.7528 2.18294 26.7664 2.19253C26.7799 2.20212 26.7867 2.21171 26.7867 2.2213C26.7686 2.23089 26.7483 2.23809 26.7258 2.24288C26.7032 2.24768 26.6829 2.25008 26.6649 2.25008C26.6649 2.25008 26.6626 2.25008 26.6581 2.25008C26.6536 2.25008 26.6513 2.25008 26.6513 2.25008ZM21.8598 3.24276C21.8417 3.11807 21.8778 3.03894 21.9681 3.00537C22.0583 2.9718 22.329 2.93584 22.7802 2.89748C22.6087 2.94543 22.4959 3.02216 22.4418 3.12766C22.3877 3.23317 22.1937 3.27153 21.8598 3.24276ZM17.2712 3.90454L17.4878 3.86138L17.5149 3.89016L17.3119 3.93331L17.2712 3.90454ZM16.608 4.0628L16.8923 3.99086L16.9464 4.03402L16.6892 4.10595L16.608 4.0628ZM1.20466 10.5224C1.21368 10.5128 1.23399 10.5032 1.26556 10.4936C1.29715 10.484 1.31745 10.4793 1.32648 10.4793C1.35354 10.4888 1.3761 10.5008 1.39415 10.5152C1.4122 10.5296 1.43025 10.5416 1.44829 10.5512L1.21819 10.6231C1.20917 10.5943 1.2024 10.5728 1.19789 10.5584C1.19338 10.544 1.19563 10.532 1.20466 10.5224Z" fill="#F8941F"/>
</svg>
