<svg width="13" height="13" viewBox="0 0 13 13" fill="none" xmlns="http://www.w3.org/2000/svg">
<path d="M6.89965 0.855754L8.56572 4.23075L12.2911 4.7729C12.3734 4.78476 12.4507 4.81943 12.5143 4.87298C12.5779 4.92653 12.6252 4.99682 12.6509 5.07588C12.6766 5.15494 12.6797 5.23963 12.6597 5.32033C12.6398 5.40104 12.5976 5.47455 12.538 5.53254L9.84179 8.15754L10.4782 11.8679C10.4923 11.9499 10.4831 12.0341 10.4518 12.1111C10.4204 12.1881 10.3682 12.2548 10.3009 12.3037C10.2336 12.3526 10.154 12.3817 10.0711 12.3877C9.98818 12.3937 9.90522 12.3764 9.83161 12.3377L6.5 10.5886L3.16786 12.3393C3.09419 12.3778 3.01123 12.395 2.92833 12.3889C2.84543 12.3827 2.76589 12.3536 2.69867 12.3047C2.63145 12.2558 2.57923 12.1891 2.54788 12.1121C2.51653 12.0351 2.50731 11.9509 2.52125 11.869L3.15768 8.16075L0.461432 5.53575C0.401854 5.47777 0.359704 5.40426 0.339756 5.32355C0.319808 5.24284 0.322859 5.15816 0.348563 5.07909C0.374268 5.00003 0.421598 4.92974 0.485194 4.87619C0.54879 4.82265 0.62611 4.78798 0.708396 4.77611L4.43375 4.23129L6.09982 0.85629C6.13668 0.781733 6.19364 0.718959 6.26427 0.675049C6.3349 0.63114 6.4164 0.607844 6.49957 0.607788C6.58274 0.607732 6.66427 0.63092 6.73496 0.674734C6.80565 0.718549 6.86269 0.781246 6.89965 0.855754Z" fill="#F8941F"/>
</svg>
