<svg width="20" height="21" viewBox="0 0 20 21" fill="none" xmlns="http://www.w3.org/2000/svg">
<path d="M15 1.75H5C2.92893 1.75 1.25 3.42893 1.25 5.5V15.5C1.25 17.5711 2.92893 19.25 5 19.25H15C17.0711 19.25 18.75 17.5711 18.75 15.5V5.5C18.75 3.42893 17.0711 1.75 15 1.75Z" fill="url(#paint0_radial_17_453)"/>
<path d="M15 1.75H5C2.92893 1.75 1.25 3.42893 1.25 5.5V15.5C1.25 17.5711 2.92893 19.25 5 19.25H15C17.0711 19.25 18.75 17.5711 18.75 15.5V5.5C18.75 3.42893 17.0711 1.75 15 1.75Z" fill="url(#paint1_radial_17_453)"/>
<path d="M15 1.75H5C2.92893 1.75 1.25 3.42893 1.25 5.5V15.5C1.25 17.5711 2.92893 19.25 5 19.25H15C17.0711 19.25 18.75 17.5711 18.75 15.5V5.5C18.75 3.42893 17.0711 1.75 15 1.75Z" fill="url(#paint2_radial_17_453)"/>
<path d="M14.375 7.0625C14.375 7.58025 13.9553 8 13.4375 8C12.9197 8 12.5 7.58025 12.5 7.0625C12.5 6.54473 12.9197 6.125 13.4375 6.125C13.9553 6.125 14.375 6.54473 14.375 7.0625Z" fill="white"/>
<path fill-rule="evenodd" clip-rule="evenodd" d="M10 13.625C11.7259 13.625 13.125 12.2259 13.125 10.5C13.125 8.77412 11.7259 7.375 10 7.375C8.27412 7.375 6.875 8.77412 6.875 10.5C6.875 12.2259 8.27412 13.625 10 13.625ZM10 12.375C11.0356 12.375 11.875 11.5356 11.875 10.5C11.875 9.46444 11.0356 8.625 10 8.625C8.96444 8.625 8.125 9.46444 8.125 10.5C8.125 11.5356 8.96444 12.375 10 12.375Z" fill="white"/>
<path fill-rule="evenodd" clip-rule="evenodd" d="M3.75 10.25C3.75 8.14981 3.75 7.09969 4.15873 6.29754C4.51825 5.59193 5.09193 5.01825 5.79754 4.65873C6.59969 4.25 7.64981 4.25 9.75 4.25H10.25C12.3502 4.25 13.4003 4.25 14.2024 4.65873C14.9081 5.01825 15.4818 5.59193 15.8413 6.29754C16.25 7.09969 16.25 8.14981 16.25 10.25V10.75C16.25 12.8502 16.25 13.9003 15.8413 14.7024C15.4818 15.4081 14.9081 15.9818 14.2024 16.3413C13.4003 16.75 12.3502 16.75 10.25 16.75H9.75C7.64981 16.75 6.59969 16.75 5.79754 16.3413C5.09193 15.9818 4.51825 15.4081 4.15873 14.7024C3.75 13.9003 3.75 12.8502 3.75 10.75V10.25ZM9.75 5.5H10.25C11.3207 5.5 12.0486 5.50098 12.6112 5.54694C13.1593 5.59171 13.4395 5.67287 13.635 5.77248C14.1054 6.01217 14.4878 6.39462 14.7275 6.865C14.8271 7.0605 14.9083 7.34075 14.9531 7.88881C14.999 8.45144 15 9.17925 15 10.25V10.75C15 11.8207 14.999 12.5486 14.9531 13.1112C14.9083 13.6593 14.8271 13.9395 14.7275 14.135C14.4878 14.6054 14.1054 14.9878 13.635 15.2275C13.4395 15.3271 13.1593 15.4083 12.6112 15.4531C12.0486 15.499 11.3207 15.5 10.25 15.5H9.75C8.67925 15.5 7.95144 15.499 7.38881 15.4531C6.84075 15.4083 6.5605 15.3271 6.365 15.2275C5.89462 14.9878 5.51217 14.6054 5.27248 14.135C5.17287 13.9395 5.09171 13.6593 5.04694 13.1112C5.00098 12.5486 5 11.8207 5 10.75V10.25C5 9.17925 5.00098 8.45144 5.04694 7.88881C5.09171 7.34075 5.17287 7.0605 5.27248 6.865C5.51217 6.39462 5.89462 6.01217 6.365 5.77248C6.5605 5.67287 6.84075 5.59171 7.38881 5.54694C7.95144 5.50098 8.67925 5.5 9.75 5.5Z" fill="white"/>
<defs>
<radialGradient id="paint0_radial_17_453" cx="0" cy="0" r="1" gradientUnits="userSpaceOnUse" gradientTransform="translate(7.5 14.875) rotate(-55.3758) scale(15.9498)">
<stop stop-color="#B13589"/>
<stop offset="0.79309" stop-color="#C62F94"/>
<stop offset="1" stop-color="#8A3AC8"/>
</radialGradient>
<radialGradient id="paint1_radial_17_453" cx="0" cy="0" r="1" gradientUnits="userSpaceOnUse" gradientTransform="translate(6.875 19.875) rotate(-65.1363) scale(14.1214)">
<stop stop-color="#E0E8B7"/>
<stop offset="0.444662" stop-color="#FB8A2E"/>
<stop offset="0.71474" stop-color="#E2425C"/>
<stop offset="1" stop-color="#E2425C" stop-opacity="0"/>
</radialGradient>
<radialGradient id="paint2_radial_17_453" cx="0" cy="0" r="1" gradientUnits="userSpaceOnUse" gradientTransform="translate(0.3125 2.375) rotate(-8.1301) scale(24.3068 5.19897)">
<stop offset="0.156701" stop-color="#406ADC"/>
<stop offset="0.467799" stop-color="#6A45BE"/>
<stop offset="1" stop-color="#6A45BE" stop-opacity="0"/>
</radialGradient>
</defs>
</svg>
