<svg width="20" height="21" viewBox="0 0 20 21" fill="none" xmlns="http://www.w3.org/2000/svg">
<g clip-path="url(#clip0_17_450)">
<path fill-rule="evenodd" clip-rule="evenodd" d="M4.55094 20.0399V7.16622H0.272461V20.0398H4.55094V20.0399ZM2.41215 5.40919C3.90367 5.40919 4.83277 4.41981 4.83277 3.18446C4.80457 1.92165 3.90367 0.960205 2.44012 0.960205C0.976328 0.960244 0.0195312 1.92169 0.0195312 3.1845C0.0195312 4.41985 0.948125 5.40923 2.38398 5.40923L2.41215 5.40919ZM6.91891 20.0399C6.91891 20.0399 6.97504 8.37411 6.91891 7.16626H11.198V9.03321H11.1696C11.7323 8.1547 12.746 6.86396 15.054 6.86396C17.8698 6.86396 19.9804 8.70392 19.9804 12.6582V20.0399H15.702V13.1529C15.702 11.4224 15.0829 10.2415 13.5341 10.2415C12.3523 10.2415 11.648 11.0376 11.3387 11.8071C11.2256 12.081 11.198 12.4658 11.198 12.8505V20.0399H6.91891Z" fill="#2173A7"/>
</g>
<defs>
<clipPath id="clip0_17_450">
<rect width="20" height="20" fill="white" transform="translate(0 0.5)"/>
</clipPath>
</defs>
</svg>
