<svg width="25" height="26" viewBox="0 0 25 26" fill="none" xmlns="http://www.w3.org/2000/svg">
<g clip-path="url(#clip0_17_61)">
<path fill-rule="evenodd" clip-rule="evenodd" d="M0 0.75H6.25V7H0V0.75ZM0 10.125H6.25V16.375H0V10.125ZM0 19.5H6.25V25.75H0V19.5ZM9.375 0.75H15.625V7H9.375V0.75ZM9.375 10.125H15.625V16.375H9.375V10.125ZM9.375 19.5H15.625V25.75H9.375V19.5ZM18.75 0.75H25V7H18.75V0.75ZM18.75 10.125H25V16.375H18.75V10.125ZM18.75 19.5H25V25.75H18.75V19.5Z" fill="#9095A0"/>
</g>
<defs>
<clipPath id="clip0_17_61">
<rect width="25" height="25" fill="white" transform="translate(0 0.75)"/>
</clipPath>
</defs>
</svg>
