<svg width="35" height="35" viewBox="0 0 35 35" fill="none" xmlns="http://www.w3.org/2000/svg">
<circle cx="17.5" cy="17.5" r="17" fill="white" fill-opacity="0.5" stroke="#F8941F"/>
<path d="M14.976 17.5023C14.976 18.6639 14.0343 19.6057 12.8726 19.6057C11.711 19.6057 10.7693 18.6639 10.7693 17.5023C10.7693 16.3406 11.711 15.3989 12.8726 15.3989C14.0343 15.3989 14.976 16.3406 14.976 17.5023Z" stroke="#F8941F" stroke-width="2"/>
<path d="M19.1827 12.875L14.976 15.8197" stroke="#F8941F" stroke-width="2" stroke-linecap="round"/>
<path d="M19.1827 22.1298L14.976 19.1851" stroke="#F8941F" stroke-width="2" stroke-linecap="round"/>
<path d="M23.3894 22.971C23.3894 24.1327 22.4477 25.0744 21.2861 25.0744C20.1244 25.0744 19.1827 24.1327 19.1827 22.971C19.1827 21.8094 20.1244 20.8677 21.2861 20.8677C22.4477 20.8677 23.3894 21.8094 23.3894 22.971Z" stroke="#F8941F" stroke-width="2"/>
<path d="M23.3894 12.0335C23.3894 13.1952 22.4477 14.1369 21.2861 14.1369C20.1244 14.1369 19.1827 13.1952 19.1827 12.0335C19.1827 10.8719 20.1244 9.93018 21.2861 9.93018C22.4477 9.93018 23.3894 10.8719 23.3894 12.0335Z" stroke="#F8941F" stroke-width="2"/>
</svg>
