<svg width="20" height="21" viewBox="0 0 20 21" fill="none" xmlns="http://www.w3.org/2000/svg">
<path fill-rule="evenodd" clip-rule="evenodd" d="M7.935 13.1126L7.93437 7.45331L13.3381 10.2927L7.935 13.1126ZM19.8 6.47265C19.8 6.47265 19.6044 5.08475 19.005 4.47357C18.2444 3.67104 17.3919 3.66726 17.0012 3.62068C14.2025 3.41675 10.0044 3.41675 10.0044 3.41675H9.99563C9.99563 3.41675 5.7975 3.41675 2.99875 3.62068C2.6075 3.66726 1.75563 3.67104 0.994377 4.47357C0.395002 5.08475 0.199998 6.47265 0.199998 6.47265C0.199998 6.47265 0 8.10288 0 9.73249V11.2608C0 12.891 0.199998 14.5206 0.199998 14.5206C0.199998 14.5206 0.395002 15.9085 0.994377 16.5197C1.75563 17.3222 2.755 17.297 3.2 17.3807C4.8 17.5356 10 17.5834 10 17.5834C10 17.5834 14.2025 17.5771 17.0012 17.3732C17.3919 17.326 18.2444 17.3222 19.005 16.5197C19.6044 15.9085 19.8 14.5206 19.8 14.5206C19.8 14.5206 20 12.891 20 11.2608V9.73249C20 8.10288 19.8 6.47265 19.8 6.47265Z" fill="#CE1312"/>
</svg>
