<svg
        xmlns="http://www.w3.org/2000/svg"
        width="23"
        height="24"
        viewBox="0 0 23 24"
        fill="none"
>
    <path
            d="M20.2012 8.47597C20.9533 10.6422 20.9915 13.0192 20.3095 15.212C19.6276 17.4047 18.2665 19.2813 16.4524 20.5297C14.6384 21.7782 12.4805 22.3235 10.3375 22.0749C8.19449 21.8264 6.19528 20.799 4.67209 19.1635C2.96107 17.3347 1.96882 14.8722 1.89952 12.2827C1.83022 9.69314 2.68915 7.17365 4.29955 5.24265C5.90996 3.31165 8.14932 2.11605 10.5568 1.90187C12.9643 1.6877 15.3568 2.47125 17.2419 4.09128L18.9991 2.20597C19.0967 2.10132 19.2125 2.01831 19.34 1.96167C19.4675 1.90504 19.6042 1.87589 19.7422 1.87589C19.8802 1.87589 20.0169 1.90504 20.1444 1.96167C20.2719 2.01831 20.3877 2.10132 20.4853 2.20597C20.5829 2.31061 20.6603 2.43485 20.7131 2.57157C20.7659 2.7083 20.7931 2.85485 20.7931 3.00284C20.7931 3.15083 20.7659 3.29738 20.7131 3.43411C20.6603 3.57083 20.5829 3.69507 20.4853 3.79972L12.0926 12.7997C11.995 12.9044 11.8792 12.9874 11.7517 13.044C11.6242 13.1006 11.4875 13.1298 11.3495 13.1298C11.2115 13.1298 11.0749 13.1006 10.9474 13.044C10.8199 12.9874 10.704 12.9044 10.6064 12.7997C10.5088 12.6951 10.4314 12.5708 10.3786 12.4341C10.3258 12.2974 10.2986 12.1508 10.2986 12.0028C10.2986 11.8548 10.3258 11.7083 10.3786 11.5716C10.4314 11.4348 10.5088 11.3106 10.6064 11.206L12.7046 8.95597C12.1132 8.65299 11.4484 8.55554 10.8029 8.67722C10.1575 8.79889 9.5635 9.13362 9.10395 9.63469C8.64439 10.1358 8.34217 10.7782 8.23946 11.4723C8.13674 12.1664 8.23866 12.8776 8.53099 13.5066C8.82331 14.1357 9.29146 14.6511 9.87011 14.9811C10.4488 15.3111 11.109 15.4391 11.7588 15.3474C12.4086 15.2556 13.0154 14.9486 13.4946 14.4692C13.9739 13.9898 14.3016 13.3619 14.4321 12.6732C14.487 12.3806 14.6481 12.1235 14.8798 11.9583C15.1116 11.7931 15.395 11.7334 15.6678 11.7924C15.9406 11.8513 16.1804 12.024 16.3344 12.2725C16.4885 12.521 16.5441 12.825 16.4892 13.1175C16.2657 14.298 15.6948 15.3704 14.8604 16.1768C14.026 16.9832 12.9723 17.4812 11.8542 17.5973C10.7362 17.7134 9.61292 17.4416 8.64974 16.8218C7.68656 16.202 6.93434 15.2671 6.50379 14.1545C6.07324 13.042 5.9871 11.8106 6.25804 10.6416C6.52899 9.47266 7.14271 8.42783 8.00888 7.6609C8.87506 6.89398 9.94793 6.44549 11.0696 6.38142C12.1913 6.31736 13.3025 6.64111 14.2397 7.30503L15.7461 5.69534C14.3311 4.56214 12.5827 4.01369 10.8213 4.1505C9.05995 4.2873 7.40352 5.10021 6.15561 6.44023C4.9077 7.78026 4.1519 9.55765 4.02671 11.4467C3.90153 13.3357 4.41534 15.2099 5.47399 16.7257C6.53264 18.2415 8.06522 19.2974 9.79087 19.7C11.5165 20.1025 13.3197 19.8247 14.8698 18.9175C16.42 18.0102 17.6134 16.5343 18.2313 14.7602C18.8492 12.9861 18.8502 11.0327 18.2341 9.25784C18.1851 9.11908 18.1621 8.97129 18.1666 8.82297C18.171 8.67466 18.2028 8.52875 18.2601 8.39366C18.3173 8.25857 18.3989 8.13696 18.5002 8.03583C18.6015 7.9347 18.7204 7.85606 18.8501 7.80443C18.9799 7.75281 19.1178 7.72921 19.2561 7.735C19.3944 7.7408 19.5302 7.77587 19.6558 7.83821C19.7814 7.90054 19.8942 7.98889 19.9878 8.09819C20.0814 8.20748 20.1539 8.33555 20.2012 8.47503V8.47597Z"
            fill="#0075BF"
    />
</svg>