<svg xmlns="http://www.w3.org/2000/svg" width="24" height="24" viewBox="0 0 24 24" fill="none">
  <path fill-rule="evenodd" clip-rule="evenodd" d="M11.5 2C7.358 2 4 5.436 4 9.674C4 11.947 4.966 13.989 6.499 15.394C7.009 15.861 7.388 16.208 7.656 16.46C7.79176 16.5875 7.92512 16.7175 8.056 16.85C8.06729 16.8617 8.07829 16.8737 8.089 16.886C8.326 17.186 8.377 17.262 8.407 17.332C8.437 17.402 8.46 17.492 8.519 17.872C8.543 18.022 8.545 18.278 8.545 18.977V19.007C8.545 19.416 8.545 19.769 8.571 20.058C8.598 20.364 8.658 20.668 8.819 20.953C8.999 21.272 9.257 21.536 9.569 21.72C9.847 21.885 10.144 21.946 10.443 21.974C10.726 22 11.071 22 11.471 22H11.529C11.929 22 12.274 22 12.557 21.974C12.857 21.946 13.152 21.884 13.432 21.72C13.7447 21.5345 14.003 21.27 14.181 20.953C14.341 20.668 14.401 20.365 14.429 20.058C14.455 19.768 14.455 19.416 14.454 19.007V18.977C14.454 18.278 14.457 18.022 14.48 17.872C14.54 17.492 14.562 17.402 14.593 17.332C14.623 17.262 14.674 17.185 14.911 16.886L14.919 16.876L14.944 16.85C15.0749 16.7175 15.2082 16.5875 15.344 16.46C15.612 16.208 15.991 15.861 16.501 15.393C17.2919 14.6656 17.9226 13.7814 18.3528 12.7967C18.7831 11.812 19.0035 10.7485 19 9.674C19 5.436 15.642 2 11.5 2ZM13.085 19.674H9.915C9.918 19.771 9.922 19.856 9.929 19.932C9.948 20.142 9.979 20.218 10 20.256C10.0595 20.3615 10.1457 20.4494 10.25 20.511C10.287 20.533 10.361 20.565 10.566 20.584C10.78 20.604 11.063 20.604 11.5 20.604C11.937 20.604 12.22 20.604 12.434 20.584C12.639 20.565 12.713 20.534 12.75 20.511C12.8543 20.4494 12.9405 20.3615 13 20.256C13.021 20.218 13.052 20.142 13.07 19.932C13.078 19.856 13.082 19.772 13.085 19.674ZM12.61 8.176C12.917 8.4 12.988 8.836 12.769 9.15L11.591 10.837H12.993C13.1194 10.8375 13.2432 10.8732 13.3504 10.9402C13.4576 11.0071 13.544 11.1027 13.6 11.216C13.6572 11.3302 13.6825 11.4577 13.6734 11.5851C13.6642 11.7125 13.6209 11.8351 13.548 11.94L11.6 14.731C11.5491 14.8052 11.4838 14.8684 11.408 14.9169C11.3322 14.9653 11.2475 14.9981 11.1588 15.0132C11.0701 15.0283 10.9793 15.0255 10.8917 15.0048C10.8041 14.9842 10.7216 14.9461 10.649 14.893C10.5014 14.7831 10.4023 14.6201 10.3729 14.4385C10.3434 14.2569 10.3857 14.0709 10.491 13.92L11.669 12.233H10.266C10.1398 12.2323 10.0162 12.1965 9.90919 12.1295C9.80216 12.0626 9.71588 11.9672 9.66 11.854C9.6025 11.7397 9.57689 11.6121 9.58586 11.4845C9.59484 11.3569 9.63807 11.2341 9.711 11.129L11.659 8.339C11.7098 8.26474 11.7751 8.20145 11.8508 8.15288C11.9266 8.1043 12.0113 8.07144 12.1 8.05624C12.1887 8.04104 12.2795 8.0438 12.3672 8.06438C12.4548 8.08495 12.5373 8.12291 12.61 8.176Z" fill="#FEB91F"/>
</svg>