<svg xmlns="http://www.w3.org/2000/svg" width="152" height="152" viewBox="0 0 152 152" fill="none">
  <g clip-path="url(#clip0_2055_2006)">
    <path fill-rule="evenodd" clip-rule="evenodd" d="M0 150V152H152V150H124V142H144V122H152V120H144V80H102V100H82V142H122V150H32V142H72V100H52V80H10V120H2V30H10V70H52V50H72V8H32V0H30V8H10V28H2V0H0V150ZM2 150V122H10V142H30V150H2ZM70 30V48H52V30H70ZM50 48H30V68H12V30H32V10H70V28H50V48ZM50 50V68H32V50H50ZM30 28H12V10H30V28ZM84 120V102H102V120H84ZM104 102H124V82H142V120H122V140H84V122H104V102ZM104 100V82H122V100H104ZM124 122H142V140H124V122ZM70 122V140H32V120H12V82H30V102H50V122H70ZM52 102H70V120H52V102ZM50 100H32V82H50V100ZM30 140V122H12V140H30ZM122 0H124V8H144V28H152V30H144V70H102V50H82V8H122V0ZM102 48H84V30H102V48ZM84 28H104V48H124V68H142V30H122V10H84V28ZM122 50H104V68H122V50ZM124 10H142V28H124V10Z" fill="#EEEEEE"/>
  </g>
  <defs>
    <clipPath id="clip0_2055_2006">
      <rect width="152" height="152" fill="white" transform="matrix(-1 0 0 1 152 0)"/>
    </clipPath>
  </defs>
</svg>