<svg xmlns="http://www.w3.org/2000/svg" width="32" height="32" viewBox="0 0 32 32" fill="none">
    <path d="M24.0002 29.3329H8.00016C7.29292 29.3329 6.61464 29.0519 6.11454 28.5518C5.61445 28.0517 5.3335 27.3735 5.3335 26.6662V5.33288C5.3335 4.62564 5.61445 3.94736 6.11454 3.44726C6.61464 2.94716 7.29292 2.66621 8.00016 2.66621H17.3335C17.3454 2.66465 17.3575 2.66465 17.3695 2.66621H17.3775C17.3901 2.67015 17.403 2.67283 17.4162 2.67421C17.5335 2.68221 17.6495 2.70488 17.7615 2.74221H17.8175C17.8421 2.75944 17.8653 2.77861 17.8868 2.79955C18.0321 2.86414 18.1644 2.95448 18.2775 3.06621L26.2775 11.0662C26.3893 11.1793 26.4796 11.3116 26.5442 11.4569C26.5558 11.4857 26.566 11.5151 26.5748 11.5449L26.5882 11.5822C26.6255 11.6929 26.6468 11.8089 26.6535 11.9262C26.6547 11.9395 26.6578 11.9525 26.6628 11.9649V11.9729C26.665 11.9816 26.6663 11.9906 26.6668 11.9995V26.6662C26.6668 27.3735 26.3859 28.0517 25.8858 28.5518C25.3857 29.0519 24.7074 29.3329 24.0002 29.3329ZM19.2322 18.6662V25.3329H20.4855V22.6129H22.4322V21.4955H20.4855V19.7875H22.6668V18.6662H19.2322ZM14.2988 18.6662V25.3329H15.9068C16.2399 25.3493 16.5724 25.2908 16.8798 25.1616C17.1872 25.0323 17.4616 24.8357 17.6828 24.5862C18.1427 23.9994 18.3731 23.2652 18.3308 22.5209V21.4409C18.3618 20.7044 18.125 19.9816 17.6642 19.4062C17.2308 18.9129 16.5975 18.6409 15.9402 18.6662H14.2988ZM9.3335 18.6662V25.3329H10.5868V22.9875H11.4215C11.9788 23.0182 12.5228 22.8115 12.9202 22.4195C13.2987 21.9959 13.4951 21.4403 13.4668 20.8729C13.4916 20.2918 13.2953 19.723 12.9175 19.2809C12.7329 19.0762 12.5053 18.915 12.2511 18.8087C11.9968 18.7024 11.7221 18.6538 11.4468 18.6662H9.3335ZM17.3335 5.33288V11.9995H24.0002L17.3335 5.33288ZM15.9282 24.2155H15.5522V19.7875H16.0082C16.1675 19.7782 16.3267 19.8089 16.4711 19.8769C16.6155 19.9449 16.7406 20.048 16.8348 20.1769C17.0308 20.5809 17.1148 21.0302 17.0775 21.4782V22.6369C17.1068 23.0635 17.0148 23.4902 16.8108 23.8649C16.7032 23.9905 16.5666 24.0881 16.4128 24.1492C16.259 24.2103 16.0927 24.2331 15.9282 24.2155ZM11.4468 21.8662H10.5855V19.7875H11.4588C11.5661 19.7887 11.6713 19.8171 11.7646 19.87C11.8579 19.923 11.9362 19.9987 11.9922 20.0902C12.1362 20.3289 12.2055 20.6035 12.1922 20.8822C12.2089 21.1415 12.14 21.3992 11.9962 21.6155C11.9308 21.6976 11.847 21.7631 11.7515 21.8066C11.656 21.8502 11.5517 21.8706 11.4468 21.8662Z" fill="#18417B"/>
</svg>