<svg xmlns="http://www.w3.org/2000/svg" width="28" height="28" viewBox="0 0 28 28" fill="none">
    <path d="M11.76 9.21315C13.0165 6.96031 13.6442 5.83331 14.5833 5.83331C15.5225 5.83331 16.1502 6.96031 17.4067 9.21315L17.731 9.79648C18.088 10.437 18.2677 10.7566 18.5453 10.9678C18.823 11.179 19.1695 11.2571 19.8637 11.4146L20.4937 11.557C22.9332 12.1088 24.1535 12.3853 24.4428 13.3186C24.7333 14.252 23.9015 15.2238 22.2378 17.1686L21.8085 17.6703C21.336 18.2233 21.1003 18.4998 20.993 18.8416C20.888 19.1835 20.923 19.5521 20.9942 20.2883L21.0595 20.9603C21.3115 23.555 21.4363 24.8523 20.6768 25.4286C19.9173 26.0061 18.7752 25.48 16.492 24.4288L15.9005 24.1558C15.2518 23.8571 14.9275 23.7078 14.5833 23.7078C14.2392 23.7078 13.9148 23.8571 13.265 24.1558L12.6747 24.4288C10.3915 25.4788 9.24932 26.0061 8.48982 25.4286C7.73032 24.8523 7.85632 23.555 8.10716 20.9603L8.17249 20.2895C8.24366 19.5521 8.27982 19.1835 8.17249 18.8428C8.06749 18.4998 7.83066 18.2245 7.35816 17.6715L6.92766 17.1675C5.26516 15.2238 4.43332 14.2508 4.72266 13.3175C5.01432 12.3841 6.23349 12.1088 8.67299 11.557L9.30299 11.4146C9.99716 11.2571 10.3437 11.179 10.6213 10.9678C10.9002 10.7578 11.0787 10.437 11.4357 9.79648L11.76 9.21315Z" fill="#292931"/>
    <path opacity="0.5" d="M5.67933 2.91665C5.71433 2.79415 5.9325 2.79299 5.96866 2.91665C6.132 3.47899 6.43533 4.30965 6.89383 4.76582C7.35233 5.22082 8.1865 5.51949 8.74883 5.67932C8.87366 5.71432 8.87366 5.93249 8.75116 5.96865C8.18883 6.13199 7.357 6.43532 6.90083 6.89382C6.44583 7.35232 6.14833 8.18649 5.9885 8.74882C5.9535 8.87365 5.73416 8.87365 5.698 8.75115C5.53466 8.18882 5.23133 7.35699 4.77283 6.90082C4.31433 6.44582 3.48133 6.14832 2.91783 5.98849C2.79416 5.95349 2.793 5.73415 2.91666 5.69799C3.479 5.53465 4.30966 5.23132 4.76583 4.77282C5.22083 4.31432 5.5195 3.48015 5.67933 2.91665Z" fill="#292931"/>
    <path opacity="0.5" fill-rule="evenodd" clip-rule="evenodd" d="M22.1667 3.79169C22.3987 3.79169 22.6213 3.88387 22.7854 4.04797C22.9495 4.21206 23.0417 4.43462 23.0417 4.66669V4.95835H23.3333C23.5654 4.95835 23.788 5.05054 23.9521 5.21464C24.1161 5.37873 24.2083 5.60129 24.2083 5.83335C24.2083 6.06542 24.1161 6.28798 23.9521 6.45207C23.788 6.61617 23.5654 6.70835 23.3333 6.70835H23.0417V7.00002C23.0417 7.23208 22.9495 7.45464 22.7854 7.61874C22.6213 7.78283 22.3987 7.87502 22.1667 7.87502C21.9346 7.87502 21.712 7.78283 21.5479 7.61874C21.3839 7.45464 21.2917 7.23208 21.2917 7.00002V6.70835H21C20.7679 6.70835 20.5454 6.61617 20.3813 6.45207C20.2172 6.28798 20.125 6.06542 20.125 5.83335C20.125 5.60129 20.2172 5.37873 20.3813 5.21464C20.5454 5.05054 20.7679 4.95835 21 4.95835H21.2917V4.66669C21.2917 4.43462 21.3839 4.21206 21.5479 4.04797C21.712 3.88387 21.9346 3.79169 22.1667 3.79169Z" fill="#292931"/>
</svg>