<svg xmlns="http://www.w3.org/2000/svg" width="17" height="17" viewBox="0 0 17 17" fill="none">
    <path fill-rule="evenodd" clip-rule="evenodd" d="M6.95929 0.856515C7.38903 0.490242 7.93522 0.289063 8.49987 0.289062C9.06453 0.289063 9.61071 0.490242 10.0405 0.856515L11.0467 1.71468C11.1736 1.82296 11.3316 1.88835 11.4979 1.90152L12.816 2.00681C13.3786 2.05185 13.9068 2.29577 14.3059 2.69485C14.705 3.09393 14.9489 3.62209 14.9939 4.18468L15.0992 5.5036C15.1125 5.66967 15.1779 5.8273 15.286 5.95406L16.1442 6.96026C16.5105 7.39001 16.7117 7.93619 16.7117 8.50085C16.7117 9.0655 16.5105 9.61169 16.1442 10.0414L15.286 11.0476C15.1778 11.1746 15.1124 11.3325 15.0992 11.4989L14.9939 12.817C14.9489 13.3796 14.705 13.9078 14.3059 14.3068C13.9068 14.7059 13.3786 14.9498 12.816 14.9949L11.4971 15.1002C11.331 15.1135 11.1734 15.1789 11.0467 15.287L10.0405 16.1452C9.61071 16.5115 9.06453 16.7126 8.49987 16.7126C7.93522 16.7126 7.38903 16.5115 6.95929 16.1452L5.95308 15.287C5.82611 15.1787 5.66818 15.1133 5.50183 15.1002L4.1837 14.9949C3.62112 14.9498 3.09296 14.7059 2.69388 14.3068C2.29479 13.9078 2.05087 13.3796 2.00583 12.817L1.90054 11.4981C1.88721 11.332 1.82183 11.1744 1.71371 11.0476L0.855538 10.0414C0.489265 9.61169 0.288086 9.0655 0.288086 8.50085C0.288086 7.93619 0.489265 7.39001 0.855538 6.96026L1.71371 5.95406C1.82198 5.82709 1.88737 5.66915 1.90054 5.50281L2.00583 4.18468C2.05087 3.62209 2.29479 3.09393 2.69388 2.69485C3.09296 2.29577 3.62112 2.05185 4.1837 2.00681L5.50262 1.90152C5.66869 1.88819 5.82633 1.82281 5.95308 1.71468L6.95929 0.856515ZM11.4346 7.47722C11.5788 7.32791 11.6586 7.12794 11.6568 6.92036C11.655 6.71279 11.5717 6.51423 11.4249 6.36745C11.2782 6.22067 11.0796 6.13741 10.872 6.13561C10.6644 6.1338 10.4645 6.2136 10.3152 6.35781L7.7082 8.96476L6.68458 7.94114C6.53527 7.79693 6.33529 7.71714 6.12772 7.71894C5.92015 7.72074 5.72159 7.804 5.57481 7.95078C5.42803 8.09756 5.34477 8.29612 5.34296 8.5037C5.34116 8.71127 5.42096 8.91125 5.56516 9.06056L7.1485 10.6439C7.29696 10.7923 7.49828 10.8757 7.7082 10.8757C7.91813 10.8757 8.11945 10.7923 8.26791 10.6439L11.4346 7.47722Z" fill="#FEB91F"/>
</svg>