<svg width="26" height="25" viewBox="0 0 26 25" fill="none" xmlns="http://www.w3.org/2000/svg">
<path fill-rule="evenodd" clip-rule="evenodd" d="M13 2.86328C7.67852 2.86328 3.36459 7.17721 3.36459 12.4987C3.36459 17.8202 7.67852 22.1341 13 22.1341C18.3215 22.1341 22.6354 17.8202 22.6354 12.4987C22.6354 7.17721 18.3215 2.86328 13 2.86328ZM1.80209 12.4987C1.80209 6.31426 6.81557 1.30078 13 1.30078C19.1845 1.30078 24.1979 6.31426 24.1979 12.4987C24.1979 18.6832 19.1845 23.6966 13 23.6966C6.81557 23.6966 1.80209 18.6832 1.80209 12.4987ZM13 7.55078C13.4315 7.55078 13.7813 7.90056 13.7813 8.33203V12.1751L16.1566 14.5505C16.4617 14.8556 16.4617 15.3502 16.1566 15.6553C15.8515 15.9604 15.3569 15.9604 15.0518 15.6553L12.4476 13.0511C12.3011 12.9046 12.2188 12.7059 12.2188 12.4987V8.33203C12.2188 7.90056 12.5686 7.55078 13 7.55078Z" fill="white"/>
</svg>
