<svg width="26" height="25" viewBox="0 0 26 25" fill="none" xmlns="http://www.w3.org/2000/svg">
<path fill-rule="evenodd" clip-rule="evenodd" d="M13.4735 2.86719C8.152 2.86719 3.83807 7.18111 3.83807 12.5026C3.83807 17.8241 8.152 22.138 13.4735 22.138C18.795 22.138 23.1089 17.8241 23.1089 12.5026C23.1089 7.18111 18.795 2.86719 13.4735 2.86719ZM2.27557 12.5026C2.27557 6.31817 7.28905 1.30469 13.4735 1.30469C19.658 1.30469 24.6714 6.31817 24.6714 12.5026C24.6714 18.6871 19.658 23.7005 13.4735 23.7005C7.28905 23.7005 2.27557 18.6871 2.27557 12.5026ZM13.4735 7.55469C13.9049 7.55469 14.2547 7.90447 14.2547 8.33594V12.179L16.6301 14.5544C16.9352 14.8595 16.9352 15.3541 16.6301 15.6592C16.325 15.9643 15.8304 15.9643 15.5253 15.6592L12.9211 13.055C12.7745 12.9085 12.6922 12.7098 12.6922 12.5026V8.33594C12.6922 7.90447 13.042 7.55469 13.4735 7.55469Z" fill="white"/>
</svg>
