<svg width="24" height="24" viewBox="0 0 24 24" fill="none" xmlns="http://www.w3.org/2000/svg">
<rect width="23.0769" height="23.0769" transform="translate(0.461548 0.460938)" fill="white"/>
<path d="M9.11539 11.9976C9.11539 13.3252 8.03915 14.4014 6.71155 14.4014C5.38394 14.4014 4.3077 13.3252 4.3077 11.9976C4.3077 10.67 5.38394 9.59375 6.71155 9.59375C8.03915 9.59375 9.11539 10.67 9.11539 11.9976Z" stroke="#F8941F" stroke-width="3.75"/>
<path d="M13.9231 6.71094L9.11539 10.0763" stroke="#F8941F" stroke-width="3.75" stroke-linecap="round"/>
<path d="M13.9231 17.2873L9.11539 13.9219" stroke="#F8941F" stroke-width="3.75" stroke-linecap="round"/>
<path d="M18.7308 18.2476C18.7308 19.5752 17.6545 20.6514 16.3269 20.6514C14.9993 20.6514 13.9231 19.5752 13.9231 18.2476C13.9231 16.92 14.9993 15.8438 16.3269 15.8438C17.6545 15.8438 18.7308 16.92 18.7308 18.2476Z" stroke="#F8941F" stroke-width="3.75"/>
<path d="M18.7308 5.7476C18.7308 7.0752 17.6545 8.15144 16.3269 8.15144C14.9993 8.15144 13.9231 7.0752 13.9231 5.7476C13.9231 4.41999 14.9993 3.34375 16.3269 3.34375C17.6545 3.34375 18.7308 4.41999 18.7308 5.7476Z" stroke="#F8941F" stroke-width="3.75"/>
</svg>
