<svg width="21" height="21" viewBox="0 0 21 21" fill="none" xmlns="http://www.w3.org/2000/svg">
<rect width="20.1923" height="20.1923" transform="translate(0.403854 0.40625)" fill="white" fill-opacity="0.5"/>
<path d="M7.97597 10.5018C7.97597 11.6634 7.03426 12.6052 5.8726 12.6052C4.71095 12.6052 3.76924 11.6634 3.76924 10.5018C3.76924 9.34016 4.71095 8.39844 5.8726 8.39844C7.03426 8.39844 7.97597 9.34016 7.97597 10.5018Z" stroke="#F8941F" stroke-width="2"/>
<path d="M12.1827 5.875L7.97597 8.81971" stroke="#F8941F" stroke-width="2" stroke-linecap="round"/>
<path d="M12.1827 15.1283L7.97597 12.1836" stroke="#F8941F" stroke-width="2" stroke-linecap="round"/>
<path d="M16.3894 15.9706C16.3894 17.1322 15.4477 18.0739 14.2861 18.0739C13.1244 18.0739 12.1827 17.1322 12.1827 15.9706C12.1827 14.8089 13.1244 13.8672 14.2861 13.8672C15.4477 13.8672 16.3894 14.8089 16.3894 15.9706Z" stroke="#F8941F" stroke-width="2"/>
<path d="M16.3894 5.03305C16.3894 6.19471 15.4477 7.13642 14.2861 7.13642C13.1244 7.13642 12.1827 6.19471 12.1827 5.03305C12.1827 3.8714 13.1244 2.92969 14.2861 2.92969C15.4477 2.92969 16.3894 3.8714 16.3894 5.03305Z" stroke="#F8941F" stroke-width="2"/>
</svg>
