<svg width="101" height="15" viewBox="0 0 101 15" fill="none" xmlns="http://www.w3.org/2000/svg">
<g clip-path="url(#clip0_629_700)">
<path d="M1.1497 12.7955L1.65051 12.4358C1.73173 12.5413 1.7024 12.6157 1.56253 12.6588C1.42267 12.702 1.28505 12.7475 1.1497 12.7955ZM100.5 13.0401C100.455 13.0593 100.396 13.076 100.324 13.0905C100.252 13.1048 100.207 13.1264 100.189 13.1552C100.18 13.1743 100.207 13.1983 100.27 13.2271C100.333 13.2559 100.392 13.2894 100.446 13.3278L100.04 13.486C99.8322 13.4669 99.6901 13.4261 99.6134 13.3638C99.5366 13.3014 99.4579 13.2367 99.3767 13.1695C99.3045 13.112 99.2277 13.0569 99.1465 13.0041C99.0654 12.9514 98.9797 12.9058 98.8891 12.8674L98.8757 12.853C98.8035 12.8147 98.7203 12.7907 98.6252 12.7811C98.5307 12.7715 98.447 12.7907 98.3748 12.8387C98.3119 12.8866 98.2871 12.9274 98.3005 12.9609C98.3139 12.9945 98.3931 13.0209 98.5371 13.0401C98.5827 13.0496 98.6119 13.0785 98.6252 13.1264C98.6391 13.1743 98.6639 13.2223 98.7 13.2702C98.6277 13.2702 98.5733 13.2702 98.5371 13.2702C98.5015 13.2702 98.4743 13.2655 98.4559 13.2559C98.0951 13.0257 97.7094 12.8075 97.299 12.6013C96.8881 12.3951 96.453 12.2008 95.9926 12.0186C95.8213 11.9419 95.6703 11.8603 95.5391 11.7741C95.4084 11.6877 95.2708 11.6014 95.1262 11.5151C95.0545 11.4767 94.9797 11.4384 94.903 11.4C94.8262 11.3616 94.7114 11.3664 94.5579 11.4144C94.549 11.4144 94.5376 11.4144 94.5243 11.4144C94.5104 11.4144 94.4946 11.4144 94.4767 11.4144C94.4589 11.4144 94.4361 11.4144 94.4089 11.4144C94.3822 11.4144 94.3594 11.4096 94.3416 11.4C94.1609 11.3616 93.9802 11.3209 93.8 11.2777C93.6193 11.2345 93.4391 11.189 93.2584 11.141C93.2317 11.141 93.202 11.1386 93.1708 11.1338C93.1391 11.129 93.1188 11.1218 93.1094 11.1123C93.0193 10.9972 92.8703 10.9348 92.6629 10.9252C92.4555 10.9157 92.2525 10.8965 92.054 10.8677C91.9094 10.8485 91.7698 10.8197 91.6342 10.7814C91.499 10.743 91.3634 10.7094 91.2282 10.6807C91.0475 10.6327 90.8673 10.5872 90.6866 10.544C90.5064 10.5008 90.3213 10.4601 90.1317 10.4217C89.5545 10.297 88.9748 10.1747 88.3926 10.0549C87.8104 9.93497 87.2352 9.80788 86.6668 9.67361C86.3149 9.59685 85.9584 9.52014 85.5975 9.44338C85.2366 9.36668 84.8733 9.29235 84.5079 9.2204C84.1426 9.1485 83.7748 9.07893 83.405 9.0118C83.0347 8.94466 82.6693 8.87752 82.3084 8.81038C81.9837 8.74325 81.6634 8.68092 81.3475 8.62335C81.0317 8.56583 80.7114 8.50826 80.3861 8.45075C80.0797 8.4028 79.7703 8.35004 79.4589 8.29247C79.148 8.23495 78.8252 8.19176 78.4916 8.163C78.3198 8.15338 78.1505 8.13424 77.9837 8.10543C77.8168 8.07668 77.652 8.04792 77.4896 8.01911C77.2911 7.99035 77.0906 7.96397 76.8876 7.94002C76.6842 7.91602 76.4837 7.89445 76.2851 7.87526C76.1317 7.8465 75.9782 7.81769 75.8248 7.78893C75.6713 7.76018 75.5178 7.73618 75.3649 7.71699C75.202 7.70742 75.0421 7.70023 74.8842 7.69542C74.7262 7.69066 74.5658 7.67385 74.4035 7.64509C74.1782 7.60671 73.9391 7.58033 73.6861 7.56595C73.4337 7.55157 73.1856 7.53 72.9416 7.50119C72.8064 7.49162 72.6757 7.47481 72.5495 7.45087C72.4228 7.42687 72.2921 7.41011 72.1569 7.40049C71.9946 7.39092 71.8317 7.3813 71.6693 7.37173C71.5069 7.36216 71.3446 7.35254 71.1822 7.34297C70.8302 7.31416 70.4807 7.29021 70.1332 7.27102C69.7856 7.25183 69.4361 7.22788 69.0842 7.19907C68.5158 7.16074 67.947 7.11756 67.3787 7.06961C66.8104 7.02166 66.2371 6.97371 65.6599 6.92576C65.4252 6.90657 65.1634 6.88976 64.8748 6.87538C64.5861 6.861 64.2881 6.849 63.9812 6.83944H63.9139C63.6342 6.82981 63.3134 6.81543 62.9525 6.79624C62.5827 6.78668 62.1881 6.77706 61.7683 6.76749C61.3485 6.75792 60.9089 6.74349 60.4485 6.72435C59.9792 6.71473 59.5099 6.70516 59.0411 6.69554H58.5401C58.1881 6.68597 57.8139 6.67878 57.4168 6.67397C57.0198 6.66916 56.6134 6.66678 56.1985 6.66678C55.9005 6.66678 55.5985 6.66678 55.2916 6.66678C54.9847 6.66678 54.6827 6.67159 54.3847 6.68116H54.4792C54.0916 6.69078 53.7079 6.69316 53.3287 6.68835C52.95 6.68359 52.5708 6.68597 52.1921 6.69554C51.6777 6.71473 51.1634 6.72911 50.649 6.73873C50.1347 6.7483 49.6292 6.78668 49.1329 6.85381C48.9434 6.873 48.7472 6.88738 48.5441 6.89695C48.3411 6.90657 48.1403 6.91614 47.9418 6.92576C47.8696 6.93533 47.7952 6.94252 47.7185 6.94733C47.6418 6.95214 47.5673 6.95933 47.4951 6.9689C47.459 6.9689 47.4184 6.97371 47.3733 6.98328C47.3282 6.9929 47.2966 6.99766 47.2786 6.99766C47.0981 6.92095 46.9086 6.89695 46.71 6.92576C46.5115 6.95452 46.3175 6.96409 46.1281 6.95452C46.119 6.95452 46.1077 6.95452 46.0942 6.95452C46.0807 6.95452 46.0694 6.95452 46.0603 6.95452C46.0243 6.95452 45.9859 6.95452 45.9453 6.95452C45.9047 6.95452 45.8663 6.95933 45.8302 6.9689H45.8438C45.4919 7.05523 45.1287 7.11037 44.7542 7.13437C44.3797 7.15831 44.003 7.17988 43.624 7.19907C43.4164 7.21826 43.2134 7.24226 43.0149 7.27102C42.8164 7.29978 42.6179 7.32378 42.4193 7.34297C42.0223 7.39092 41.6207 7.43406 41.2147 7.47243C40.8086 7.51081 40.4025 7.54914 39.9965 7.58752C39.8251 7.60671 39.6513 7.62352 39.4753 7.6379C39.2994 7.65228 39.1257 7.66904 38.9543 7.68823C38.7918 7.70742 38.6316 7.72661 38.4738 7.7458C38.3158 7.76499 38.1601 7.78893 38.0068 7.81769C37.6639 7.87526 37.321 7.9304 36.9781 7.98316C36.6351 8.03592 36.2923 8.09105 35.9494 8.14862C35.9403 8.14862 35.9313 8.151 35.9223 8.15581C35.9133 8.16057 35.9043 8.163 35.8952 8.163C35.6336 8.14381 35.3899 8.16057 35.1643 8.21333C34.9387 8.26609 34.7041 8.29728 34.4605 8.30685C34.3251 8.30685 34.1988 8.32366 34.0815 8.35723C33.9642 8.3908 33.8378 8.41718 33.7025 8.43637C33.4949 8.47469 33.2806 8.50588 33.0596 8.52983C32.8385 8.55383 32.6242 8.58502 32.4166 8.62335C32.0105 8.70011 31.6045 8.77681 31.1984 8.85357C30.7924 8.93028 30.3818 9.00223 29.9667 9.06937C29.678 9.12688 29.3892 9.17488 29.1004 9.21321C28.8117 9.25159 28.5229 9.28997 28.2342 9.3283C28.1439 9.34749 28.0582 9.3643 27.977 9.37868C27.8958 9.39305 27.8146 9.40506 27.7334 9.41462C27.5258 9.46257 27.316 9.50814 27.104 9.55133C26.8919 9.59447 26.6821 9.64004 26.4746 9.68799C26.4655 9.68799 26.4565 9.69037 26.4475 9.69518C26.4385 9.69999 26.4295 9.70237 26.4204 9.70237C26.1226 9.6448 25.8677 9.65442 25.6556 9.73112C25.4436 9.80788 25.2202 9.8654 24.9856 9.90378C24.742 9.93254 24.5119 9.97811 24.2953 10.0404C24.0788 10.1028 23.8577 10.158 23.6321 10.2059C23.569 10.2251 23.4967 10.2395 23.4155 10.249C23.3343 10.2587 23.2486 10.2682 23.1584 10.2778H23.1449C22.8741 10.3066 22.6102 10.3378 22.353 10.3714C22.0958 10.4049 21.85 10.4553 21.6153 10.5224C21.3898 10.5895 21.1529 10.6519 20.9047 10.7094C20.6566 10.767 20.4061 10.8197 20.1535 10.8677C19.6031 10.954 19.0774 11.0643 18.5766 11.1986C18.0758 11.3329 17.5682 11.4623 17.0539 11.587C16.8012 11.6446 16.5576 11.7069 16.323 11.7741C16.0884 11.8412 15.8582 11.9083 15.6326 11.9755C15.4702 12.0234 15.2965 12.0618 15.1115 12.0906C14.9265 12.1193 14.7438 12.1529 14.5634 12.1913C14.5182 12.2008 14.4731 12.2105 14.428 12.22C14.3829 12.2296 14.3423 12.244 14.3062 12.2632C14.0354 12.3975 13.7287 12.515 13.3857 12.6157C13.0429 12.7164 12.7045 12.8195 12.3706 12.925C12.1901 12.9825 12.0209 13.0401 11.863 13.0976C11.7051 13.1552 11.5089 13.1935 11.2742 13.2127C11.2472 13.2127 11.2223 13.2271 11.1998 13.2559C11.1772 13.2846 11.1434 13.3134 11.0983 13.3422L11.6261 13.3134L10.9494 13.6156L9.58228 13.4429C9.67253 13.3853 9.76955 13.3374 9.87332 13.2991C9.97708 13.2607 9.98386 13.2127 9.89361 13.1552C10.047 13.1456 10.1395 13.136 10.1711 13.1264C10.2027 13.1168 10.241 13.0785 10.2861 13.0113L9.85302 13.112L10.1372 12.7955C10.1734 12.7859 10.2117 12.7811 10.2523 12.7811C10.2929 12.7811 10.3403 12.7763 10.3944 12.7667L10.2726 12.5509C10.2275 12.5509 10.1846 12.5533 10.144 12.5581C10.1034 12.5629 10.0696 12.5701 10.0425 12.5797C9.84396 12.666 9.64545 12.75 9.44693 12.8315C9.24842 12.913 9.0454 12.9921 8.83782 13.0688C8.79272 13.088 8.74084 13.1024 8.68218 13.112C8.62352 13.1216 8.56262 13.1264 8.49945 13.1264C8.48144 13.1264 8.46787 13.1264 8.45886 13.1264C8.44985 13.1264 8.43629 13.1264 8.41827 13.1264H8.43178C8.26936 13.1168 8.1295 13.1264 8.01218 13.1552C7.89485 13.1839 7.80015 13.2223 7.72792 13.2702C7.64673 13.3278 7.55876 13.3734 7.46401 13.407C7.36926 13.4405 7.26772 13.4621 7.15946 13.4717C6.88876 13.5005 6.65861 13.558 6.46916 13.6443C6.27965 13.7306 6.09015 13.8122 5.90064 13.8889C5.67505 13.9848 5.45852 14.0879 5.25095 14.1982C5.04341 14.3085 4.84037 14.4164 4.64185 14.5219L3.91094 14.4787L4.35761 14.1478C4.47492 14.1574 4.57869 14.1718 4.66892 14.191C4.75916 14.2102 4.82684 14.2102 4.87196 14.191C4.95317 14.1814 5.00956 14.1598 5.04115 14.1263C5.07273 14.0927 5.04341 14.052 4.95317 14.004C4.92609 13.9848 4.91482 13.9584 4.91933 13.9249C4.92384 13.8913 4.93963 13.8649 4.9667 13.8457C5.02987 13.7978 5.10431 13.7522 5.19004 13.7091C5.27576 13.6659 5.35923 13.6203 5.44045 13.5724C5.80139 13.3806 6.05856 13.2439 6.21198 13.1623C6.36535 13.0808 6.50074 13.0065 6.61802 12.9394L6.13074 13.1839C6.14881 13.1743 6.16683 13.1623 6.1849 13.148C6.20292 13.1336 6.22099 13.1264 6.23906 13.1264C6.50074 13.1072 6.67668 13.0496 6.76693 12.9537C6.85718 12.8578 7.00604 12.7667 7.21361 12.6804L6.56391 12.7092C6.63609 12.5845 6.65639 12.5102 6.6248 12.4862C6.59322 12.4622 6.44658 12.4406 6.1849 12.4215C6.16683 12.527 6.09916 12.6181 5.98188 12.6948C5.86455 12.7715 5.70663 12.8482 5.50812 12.925C5.21034 13.0209 4.92835 13.1288 4.66215 13.2487C4.39596 13.3686 4.1275 13.486 3.8568 13.6012C3.79363 13.6395 3.73272 13.6755 3.67406 13.7091C3.61541 13.7426 3.56352 13.7834 3.51841 13.8313V13.817C3.4372 13.8937 3.33343 13.956 3.20709 14.004C3.08076 14.052 2.9409 14.0855 2.7875 14.1047C2.53483 14.1335 2.36564 14.1862 2.27992 14.2629C2.19419 14.3397 2.11072 14.4164 2.02951 14.4931C1.98439 14.5315 1.95055 14.5722 1.92799 14.6154C1.90543 14.6586 1.82648 14.6898 1.69112 14.709C1.59186 14.6322 1.58058 14.5602 1.65728 14.4931C1.73399 14.426 1.79489 14.3588 1.84001 14.2917C1.86708 14.2342 1.8761 14.1838 1.86708 14.1407C1.85806 14.0975 1.83099 14.052 1.78587 14.004C2.19193 13.9848 2.44008 13.9536 2.53032 13.9105C2.62055 13.8673 2.69726 13.7498 2.76042 13.558L2.05658 13.5148L1.73173 13.1983L1.39334 13.1695C1.39334 13.16 1.39108 13.1503 1.38657 13.1408C1.38206 13.1312 1.37981 13.1216 1.37981 13.112C1.43395 13.0641 1.48809 13.0137 1.54223 12.9609C1.59637 12.9082 1.64149 12.8578 1.67758 12.8099C1.71368 12.7523 1.76556 12.7044 1.83324 12.666C1.90092 12.6277 1.98439 12.5941 2.08365 12.5653C2.26412 12.5078 2.41752 12.4406 2.54386 12.3639C2.67019 12.2872 2.75591 12.2008 2.80103 12.105C2.71982 12.0858 2.62507 12.0666 2.51678 12.0474C2.4085 12.0282 2.35436 12.0091 2.35436 11.9899C2.35436 11.9419 2.38143 11.8963 2.43557 11.8532C2.48971 11.81 2.53483 11.7693 2.57093 11.7309C2.598 11.7117 2.62055 11.6901 2.6386 11.6661C2.65665 11.6422 2.66116 11.611 2.65214 11.5727C2.4085 11.6589 2.15584 11.7357 1.89415 11.8028C1.63247 11.87 1.44748 11.9802 1.3392 12.1337C1.29408 12.2008 1.19256 12.2296 1.03465 12.22C0.876737 12.2105 0.69852 12.1673 0.5 12.0906C0.563165 11.9851 0.657914 11.8843 0.784245 11.7885C0.910576 11.6925 1.05947 11.6014 1.23092 11.5151C1.42944 11.4192 1.63472 11.3232 1.84678 11.2273C2.05883 11.1315 2.22803 11.0211 2.35436 10.8965C2.41752 10.8293 2.51002 10.7694 2.63184 10.7166C2.75365 10.6639 2.85968 10.6039 2.94992 10.5368C3.02211 10.4888 3.0785 10.4385 3.11911 10.3857C3.15972 10.333 3.15746 10.273 3.11235 10.2059C3.0582 10.1292 3.08076 10.086 3.18002 10.0764C3.27928 10.0668 3.39659 10.0716 3.53195 10.0908C3.53195 10.0621 3.5342 10.0381 3.53871 10.0189C3.54322 9.99968 3.53646 9.98049 3.51841 9.96135C3.44622 9.89421 3.36726 9.85821 3.28154 9.85345C3.19581 9.84864 3.09881 9.87021 2.99052 9.91816C2.91834 9.94692 2.8484 9.97811 2.78073 10.0117C2.71305 10.0452 2.64311 10.0764 2.57093 10.1052L2.46264 10.0621C2.5619 10.0141 2.65665 9.96135 2.74689 9.90378C2.83712 9.84621 2.93638 9.7935 3.04467 9.7455C3.14393 9.69755 3.2274 9.65204 3.29507 9.60885C3.36275 9.56571 3.36501 9.50576 3.30184 9.429C3.26575 9.39068 3.28379 9.3403 3.35598 9.27797C3.42817 9.21564 3.49134 9.15088 3.54548 9.08375L3.99215 9.21321C4.03727 9.18445 4.0869 9.15326 4.14104 9.11969C4.19518 9.08612 4.2403 9.05018 4.2764 9.0118C4.31249 8.98304 4.3373 8.94709 4.35084 8.9039C4.36438 8.86076 4.39821 8.82476 4.45236 8.796C4.6599 8.7193 4.84714 8.63778 5.01408 8.55145C5.18101 8.46513 5.35021 8.37399 5.52163 8.27809C5.5397 8.26852 5.5803 8.26371 5.64347 8.26371C5.70663 8.26371 5.7698 8.26371 5.83297 8.26371L5.69762 8.09106C5.73371 8.08149 5.76302 8.07187 5.78559 8.0623C5.80817 8.05268 5.83297 8.04792 5.86005 8.04792C6.13975 8.01911 6.38114 7.97116 6.58421 7.90402C6.78723 7.83688 6.96545 7.75056 7.11886 7.64509C7.14589 7.6259 7.16396 7.60671 7.17297 7.58752C7.18203 7.56833 7.19104 7.54914 7.20005 7.53C7.20906 7.52038 7.21134 7.50362 7.20683 7.47962C7.20233 7.45568 7.20906 7.44368 7.22713 7.44368C7.44371 7.4053 7.60837 7.34054 7.72119 7.24945C7.83396 7.15831 7.98059 7.08399 8.16109 7.02647C8.70248 6.85381 9.23713 6.67397 9.765 6.48693C10.2929 6.2999 10.8231 6.1153 11.3554 5.93307C11.6352 5.84675 11.9127 5.75561 12.1879 5.65971C12.4631 5.56381 12.7406 5.46792 13.0203 5.37197C13.1015 5.35278 13.1917 5.33364 13.291 5.31445C13.3903 5.29526 13.485 5.27126 13.5752 5.2425C13.8189 5.16577 14.058 5.09144 14.2926 5.01951C14.5272 4.94757 14.7619 4.87324 14.9965 4.79651C15.2492 4.87324 15.4161 4.914 15.4973 4.9188C15.5785 4.9236 15.7229 4.89722 15.9304 4.83968C15.8221 4.75335 15.7793 4.67423 15.8018 4.60229C15.8244 4.53036 15.9395 4.47042 16.147 4.42246L15.7274 4.48001L15.6597 4.42246L16.3365 4.24982L16.4177 4.29298L16.2011 4.39369C16.3004 4.39369 16.3997 4.39129 16.4989 4.3865C16.5982 4.3817 16.6929 4.3793 16.7832 4.3793C16.8734 4.36971 16.9546 4.36492 17.0268 4.36492C17.099 4.36492 17.1396 4.33135 17.1486 4.26421C17.1486 4.25462 17.1983 4.23783 17.2975 4.21386C17.3968 4.18988 17.4735 4.18269 17.5276 4.19228C17.6901 4.22105 17.7848 4.21386 17.8119 4.1707C17.8389 4.12753 17.8796 4.08677 17.9337 4.04841C17.9788 4.06759 18.0239 4.08437 18.069 4.09876C18.1142 4.11315 18.1548 4.12514 18.1908 4.13473C18.2901 4.19228 18.3916 4.23303 18.4954 4.25701C18.5992 4.28099 18.7187 4.25462 18.8541 4.17789C18.8992 4.15871 18.9421 4.14432 18.9827 4.13473C19.0233 4.12514 19.0661 4.12034 19.1112 4.12034C19.1112 4.12034 19.1135 4.12034 19.118 4.12034C19.1225 4.12034 19.1248 4.12034 19.1248 4.12034C19.3865 4.12034 19.6076 4.08917 19.788 4.02683C19.9685 3.96449 20.1445 3.90454 20.3159 3.847C20.3159 3.78945 20.3047 3.7319 20.2821 3.67436C20.2595 3.61681 20.2708 3.56885 20.3159 3.53049C20.3881 3.49212 20.4874 3.46095 20.6137 3.43697C20.74 3.413 20.8573 3.38662 20.9656 3.35785H20.9792H21.0062V3.37224L21.4529 3.42978C21.4168 3.40101 21.3898 3.37463 21.3717 3.35066C21.3536 3.32668 21.3311 3.3051 21.304 3.28591L21.9131 3.14205L22.1838 3.40101C22.5448 3.36264 22.8877 3.31229 23.2125 3.24995C23.5374 3.18761 23.8757 3.12286 24.2277 3.05573L23.9434 2.94063C24.0247 2.93105 24.1058 2.91666 24.1871 2.89748C24.2683 2.87829 24.3314 2.8735 24.3765 2.88309C24.5299 2.91186 24.6473 2.91186 24.7285 2.88309C24.8097 2.85432 24.8819 2.81115 24.9451 2.75361C25.1616 2.82074 25.3556 2.83753 25.5271 2.80396C25.6985 2.77039 25.8609 2.72004 26.0144 2.6529C26.1768 2.68167 26.3256 2.69606 26.461 2.69606C26.5964 2.69606 26.7362 2.6577 26.8806 2.58097C26.9708 2.53301 27.0972 2.49944 27.2596 2.48026C27.422 2.46108 27.5709 2.4371 27.7063 2.40833C27.8236 2.38915 27.9432 2.36996 28.0649 2.35078C28.1868 2.3316 28.3018 2.30282 28.4101 2.26446C28.4823 2.24528 28.5477 2.23089 28.6064 2.2213C28.665 2.21171 28.7395 2.21651 28.8297 2.23569C28.929 2.25487 29.017 2.25727 29.0937 2.24288C29.1703 2.2285 29.2358 2.20212 29.29 2.16375C29.4253 2.06784 29.599 2.01509 29.811 2.0055C30.0231 1.99591 30.2329 1.98632 30.4404 1.97673C30.5307 1.96713 30.6254 1.96234 30.7247 1.96234C30.824 1.96234 30.9142 1.95275 30.9954 1.93357C31.4105 1.86643 31.8256 1.7945 32.2406 1.71777C32.6557 1.64104 33.0889 1.59788 33.5401 1.58829C33.7296 1.5787 33.9191 1.55951 34.1086 1.53074C34.2981 1.50197 34.4921 1.51156 34.6906 1.55951C34.871 1.50197 35.0808 1.48039 35.32 1.49477C35.5591 1.50916 35.7463 1.45401 35.8817 1.32933C35.9268 1.28137 36.0035 1.26219 36.1118 1.27178C36.2201 1.28137 36.3149 1.30535 36.396 1.34371C36.4953 1.38208 36.581 1.39886 36.6532 1.39407C36.7254 1.38927 36.7976 1.3629 36.8698 1.31494C36.9149 1.28617 36.9623 1.26219 37.0119 1.24301C37.0615 1.22383 37.1179 1.21423 37.1811 1.21423C37.3977 1.19505 37.6143 1.17587 37.8308 1.15669C38.0474 1.13751 38.2685 1.1423 38.4941 1.17107C38.5662 1.17107 38.6316 1.17347 38.6903 1.17827C38.749 1.18306 38.8098 1.16148 38.873 1.11353C38.9182 1.08476 39.0039 1.06797 39.1302 1.06317C39.2565 1.05838 39.3694 1.05119 39.4686 1.04159C39.6851 1.02241 39.904 1.00563 40.125 0.99124C40.3461 0.976856 40.574 0.960071 40.8086 0.940887C40.9079 1.0368 41.0522 1.07516 41.2417 1.05598C41.4312 1.0368 41.6072 1.02241 41.7696 1.01282C42.0584 0.99364 42.3449 0.967266 42.6291 0.933697C42.9134 0.900128 43.1999 0.868954 43.4886 0.84018C43.6781 0.821001 43.8676 0.806611 44.0571 0.797021C44.2466 0.787431 44.4406 0.777837 44.6392 0.768247C45.1445 0.749068 45.652 0.734678 46.1619 0.725088C46.6717 0.715499 47.1793 0.705904 47.6846 0.696314C48.226 0.686725 48.7652 0.68193 49.3021 0.68193C49.839 0.68193 50.3782 0.68193 50.9198 0.68193C51.398 0.68193 51.8738 0.684325 52.3475 0.689119C52.8213 0.693919 53.2926 0.701109 53.7619 0.710704C54.0149 0.720294 54.2698 0.729883 54.5267 0.739473C54.7842 0.749068 55.0391 0.758657 55.2916 0.768247C55.8693 0.777837 56.449 0.794621 57.0307 0.8186C57.6129 0.84258 58.1881 0.883344 58.7564 0.940887C58.9644 0.960071 59.1718 0.974456 59.3792 0.984045C59.5866 0.99364 59.8035 0.99364 60.0292 0.984045C60.1554 0.984045 60.2837 0.996035 60.4149 1.02001C60.5455 1.04399 60.6787 1.06078 60.8139 1.07037C61.1842 1.09914 61.554 1.12072 61.9238 1.13511C62.2941 1.1495 62.6639 1.17107 63.0337 1.19985C63.4668 1.23821 63.8955 1.27658 64.3198 1.31494C64.7441 1.3533 65.1678 1.39167 65.5921 1.43004C65.8807 1.44922 66.1693 1.4732 66.4584 1.50197C66.747 1.53074 67.0356 1.55951 67.3247 1.58829C67.6223 1.61706 67.9203 1.64583 68.2178 1.67461C68.5158 1.70338 68.8089 1.73695 69.0975 1.77532C69.6119 1.84245 70.1218 1.91199 70.6272 1.98392C71.1327 2.05586 71.6381 2.12539 72.1431 2.19253C72.6307 2.26926 73.1153 2.34599 73.5985 2.42272C74.0812 2.49944 74.5658 2.57617 75.0535 2.6529C75.3059 2.70086 75.5634 2.74402 75.8248 2.78238C76.0866 2.82074 76.3436 2.8687 76.5965 2.92625H76.1901C76.3708 3.04134 76.5332 3.11087 76.6777 3.13485C76.8218 3.15883 77.0431 3.15164 77.3406 3.11327C77.3767 3.15164 77.404 3.1924 77.4223 3.23556C77.4401 3.27872 77.5302 3.2955 77.6926 3.28591L77.8144 3.11327C77.8955 3.24755 78.0153 3.35066 78.1733 3.42259C78.3312 3.49452 78.5322 3.54488 78.7757 3.57365C78.7757 3.57365 78.7757 3.57605 78.7757 3.58084C78.7757 3.58563 78.7757 3.58803 78.7757 3.58803C78.8208 3.59762 78.8683 3.60961 78.9178 3.624C78.9673 3.63839 79.001 3.65517 79.0193 3.67436C79.0644 3.71272 79.1025 3.75348 79.1342 3.79664C79.1658 3.8398 79.2089 3.89495 79.2629 3.96209L79.7639 3.83261C79.8451 3.8422 79.9554 3.86378 80.095 3.89735C80.2351 3.93092 80.3817 3.96209 80.5351 3.99086C80.8693 4.03882 81.1827 4.10356 81.4757 4.18508C81.7693 4.2666 82.0604 4.34573 82.349 4.42246C82.5926 4.48001 82.8431 4.53516 83.1 4.58791C83.3574 4.64066 83.6079 4.69581 83.8515 4.75335C84.1312 4.82049 84.4178 4.88283 84.7109 4.94038C85.004 4.99793 85.2589 5.07466 85.4757 5.17057C85.647 5.24731 85.8456 5.30726 86.0713 5.3504C86.297 5.39354 86.4545 5.47268 86.5451 5.58776C86.2743 5.69328 86.0282 5.71485 85.8074 5.65252C85.5861 5.59019 85.354 5.53981 85.1104 5.50149C85.2183 5.53981 85.2817 5.58776 85.2995 5.64533C85.3178 5.7029 85.3856 5.74123 85.5025 5.76042C85.6198 5.78918 85.7465 5.8108 85.8817 5.82518C86.0168 5.83956 86.1614 5.85631 86.3148 5.8755C86.2337 5.99059 86.247 6.08173 86.3554 6.14887C86.4639 6.216 86.6441 6.26876 86.897 6.30709L87.4787 6.0913L87.3163 5.91869L88.2366 5.94745C88.201 6.00497 88.1693 6.05773 88.1421 6.10568C88.1149 6.15368 88.2099 6.18243 88.4262 6.192L87.7767 6.5085C87.9569 6.60445 88.151 6.64759 88.3589 6.63802C88.5663 6.6284 88.7604 6.62364 88.9406 6.62364L90.5109 7.12718C90.4748 7.14631 90.4475 7.16075 90.4297 7.17031C90.4114 7.17988 90.3936 7.1895 90.3753 7.19907C90.3035 7.21826 90.2376 7.23745 90.1792 7.25664C90.1208 7.27583 90.1183 7.3094 90.1723 7.35735C90.2267 7.39573 90.299 7.42211 90.3891 7.43649C90.4792 7.45087 90.5559 7.43887 90.6193 7.40049C90.7183 7.35254 90.8134 7.33578 90.9035 7.35016C90.9936 7.36454 91.0881 7.37173 91.1876 7.37173C91.296 7.3813 91.4089 7.38373 91.5257 7.37892C91.6431 7.37411 91.7604 7.37173 91.8777 7.37173C91.9233 7.37173 91.9728 7.37892 92.0267 7.3933C92.0807 7.40768 92.1352 7.41968 92.1891 7.4293C91.9183 7.51557 91.7718 7.58752 91.7495 7.64509C91.7267 7.70261 91.8059 7.80331 91.9861 7.94721C92.1218 7.92802 92.2594 7.91121 92.399 7.89683C92.5391 7.88245 92.6767 7.90402 92.8119 7.96159C92.8391 7.98078 92.8886 7.98554 92.9609 7.97597C93.0332 7.9664 93.096 7.96159 93.15 7.96159C93.4119 7.95197 93.6084 7.97116 93.7391 8.01911C93.8698 8.06711 93.9396 8.14862 93.949 8.26371C93.9579 8.38837 93.9941 8.46994 94.0569 8.50826C94.1203 8.54664 94.2693 8.58502 94.504 8.62335C94.4495 8.70011 94.3955 8.74568 94.3416 8.76006C94.2871 8.77444 94.2104 8.76724 94.1114 8.73849C93.7505 8.62335 93.3941 8.51069 93.0421 8.40037C92.6901 8.29009 92.3381 8.17738 91.9861 8.0623C91.9139 8.03354 91.8327 8.00954 91.7426 7.99035C91.6525 7.97116 91.5441 7.9424 91.4178 7.90402L91.3906 8.163C91.4356 8.17257 91.4698 8.18219 91.4921 8.19176C91.5149 8.20138 91.5351 8.20138 91.553 8.19176C91.7064 8.19176 91.8371 8.20614 91.9455 8.23495C92.054 8.26371 92.1668 8.30685 92.2842 8.36442C92.4644 8.45074 92.6698 8.52264 92.9 8.58021C93.1297 8.63778 93.349 8.70492 93.5564 8.78162C94.0436 8.96385 94.5421 9.14131 95.052 9.31392C95.5619 9.48657 96.0198 9.68318 96.4257 9.90378C96.5975 10.0093 96.7822 10.1076 96.9807 10.1987C97.1792 10.2898 97.3688 10.3833 97.5495 10.4793C97.6124 10.508 97.6713 10.5416 97.7253 10.58C97.7792 10.6183 97.8292 10.6567 97.8743 10.6951C97.9554 10.7718 98.0228 10.8221 98.0772 10.8461C98.1312 10.8701 98.2891 10.9108 98.551 10.9684C98.596 10.8917 98.5827 10.827 98.5104 10.7742C98.4381 10.7214 98.3703 10.6711 98.3074 10.6231C98.1629 10.5176 98.0005 10.4169 97.8198 10.321C97.6396 10.2251 97.4678 10.1244 97.3054 10.0189C97.0079 9.82707 96.6693 9.6568 96.2906 9.50814C95.9114 9.35949 95.5282 9.21321 95.1401 9.06937C95.0767 9.04061 95.0139 9.01661 94.9505 8.99742C94.8871 8.97823 94.8421 8.94947 94.8153 8.91109C94.7792 8.88233 94.7634 8.85114 94.7678 8.81757C94.7723 8.784 94.7698 8.74325 94.7609 8.6953C94.9683 8.76243 95.1604 8.82 95.3361 8.86795C95.5124 8.9159 95.6723 8.96866 95.8168 9.02618C95.9792 9.09331 96.1302 9.16764 96.2703 9.24921C96.4099 9.33073 96.5475 9.41462 96.6832 9.50095C96.8723 9.59685 97.0574 9.69756 97.2381 9.80307C97.4183 9.90859 97.5901 10.0189 97.7525 10.134C97.9777 10.2778 98.1965 10.4265 98.4089 10.58C98.6208 10.7334 98.8352 10.8917 99.0515 11.0547L98.6049 11.1266L99.2411 11.7165L98.7673 11.7309L99.2683 12.0042L99.4441 11.8748C99.6064 11.9419 99.6673 11.9971 99.6267 12.0402C99.5861 12.0834 99.503 12.1241 99.3767 12.1625C99.4941 12.2584 99.6089 12.3519 99.7218 12.443C99.8346 12.5342 99.9451 12.6277 100.053 12.7236C100.062 12.714 100.076 12.7092 100.094 12.7092C100.112 12.7092 100.13 12.7044 100.148 12.6948V12.5078C100.464 12.5653 100.556 12.6516 100.426 12.7667C100.295 12.8818 100.319 12.9729 100.5 13.0401ZM2.7875 13.5436C2.93187 13.5532 3.04467 13.5436 3.12588 13.5148C3.20709 13.486 3.27026 13.4381 3.31538 13.371C3.08979 13.3998 2.95443 13.4213 2.90931 13.4357C2.86419 13.4501 2.82359 13.486 2.7875 13.5436ZM3.78912 9.55852L3.93801 9.60166L4.23579 9.38587C4.09141 9.39543 3.97185 9.41224 3.8771 9.43619C3.78235 9.46019 3.75302 9.50095 3.78912 9.55852ZM6.73985 8.27809L6.82104 8.32123L7.78208 7.90402C7.53847 7.91364 7.33089 7.9544 7.15946 8.0263C6.98802 8.09824 6.84812 8.18219 6.73985 8.27809ZM7.61965 12.4071L7.47074 12.4646L7.67381 12.5797L7.83624 12.5078C7.92644 12.5557 7.9648 12.5749 7.95129 12.5653C7.93772 12.5557 7.91292 12.5413 7.87683 12.5222L7.61965 12.4071ZM8.45886 7.50119C8.42277 7.52038 8.38441 7.53719 8.34381 7.55157C8.30322 7.56595 8.26035 7.58271 8.2152 7.6019C8.2152 7.6019 8.22426 7.60909 8.24228 7.62352C8.26035 7.6379 8.26936 7.64028 8.26936 7.63071C8.32351 7.62109 8.3754 7.61152 8.425 7.6019C8.47465 7.59233 8.52203 7.58271 8.56713 7.57314L8.45886 7.50119ZM10.5839 13.3278C10.5478 13.3374 10.514 13.347 10.4824 13.3566C10.4508 13.3662 10.435 13.371 10.435 13.371C10.435 13.3806 10.4418 13.3926 10.4553 13.407C10.4689 13.4213 10.4847 13.4333 10.5027 13.4429C10.5207 13.4429 10.5456 13.4405 10.5771 13.4357C10.6087 13.4309 10.6336 13.4285 10.6516 13.4285L10.5839 13.3278ZM19.9369 4.13473C19.8918 4.14432 19.8535 4.1611 19.8219 4.18508C19.7903 4.20906 19.77 4.23064 19.7609 4.24982C19.7609 4.269 19.779 4.29058 19.8151 4.31456C19.8512 4.33854 19.8873 4.35053 19.9234 4.35053C19.9775 4.35053 20.0294 4.34573 20.0791 4.33614C20.1287 4.32655 20.176 4.31216 20.2212 4.29298H20.2076C20.2708 4.2738 20.3272 4.25222 20.3768 4.22824C20.4264 4.20427 20.4784 4.18269 20.5325 4.1635C20.334 4.12514 20.2054 4.10356 20.1467 4.09876C20.0881 4.09396 20.0181 4.10595 19.9369 4.13473ZM20.9792 3.4154L20.8709 3.64558C20.8979 3.64558 20.925 3.64558 20.9521 3.64558C20.9792 3.64558 21.0062 3.64558 21.0333 3.64558L20.9792 3.4154ZM74.8772 2.73922L74.8233 2.79677L75.554 2.92625C75.4911 2.83993 75.3896 2.79677 75.2495 2.79677C75.1099 2.79677 74.9856 2.77759 74.8772 2.73922ZM80.4946 4.33614L80.1292 4.50878C80.2104 4.52797 80.2847 4.54475 80.3525 4.55913C80.4203 4.57352 80.4812 4.5903 80.5351 4.60949C80.5891 4.62867 80.6411 4.65025 80.6911 4.67423C80.7406 4.69821 80.7876 4.71978 80.8332 4.73897L80.9277 4.7102C80.8554 4.65265 80.7856 4.5927 80.7178 4.53036C80.65 4.46802 80.5757 4.40328 80.4946 4.33614ZM81.7807 4.78213C81.9337 4.82049 82.0401 4.83009 82.0985 4.8109C82.1574 4.79172 82.1822 4.74856 82.1728 4.68142L81.7807 4.78213ZM87.7089 9.28516C87.5287 9.23721 87.3594 9.19402 87.2015 9.15569C87.0436 9.11731 86.8876 9.08375 86.7347 9.05499C86.7074 9.04537 86.6688 9.0478 86.6193 9.06218C86.5698 9.07656 86.5178 9.08856 86.4639 9.09812C86.6262 9.17488 86.8178 9.23002 87.0391 9.26359C87.2599 9.29716 87.4832 9.30435 87.7089 9.28516ZM86.4772 6.73873C86.5856 6.77706 86.6738 6.80587 86.7411 6.82506C86.8089 6.84419 86.8743 6.86338 86.9376 6.88257C86.9465 6.81543 86.9149 6.7723 86.8426 6.75311C86.7703 6.73392 86.6485 6.72911 86.4772 6.73873ZM87.0188 6.94014L86.9104 6.95452C86.9376 6.97371 86.9599 6.9929 86.9782 7.01204C86.996 7.03123 87.0188 7.05042 87.0455 7.06961C87.0639 7.06004 87.0817 7.05523 87.1 7.05523C87.1178 7.05523 87.1317 7.05042 87.1406 7.04085L87.0188 6.94014ZM87.7634 6.89695C87.7272 6.87776 87.6614 6.86338 87.5668 6.85381C87.4723 6.84419 87.3658 6.83462 87.249 6.82506L87.5465 7.15593C87.6099 7.10799 87.6817 7.0648 87.7634 7.02647C87.8446 6.98809 87.8446 6.9449 87.7634 6.89695ZM89.3876 6.86819C89.3604 6.86819 89.3287 6.86819 89.2926 6.86819C89.2564 6.86819 89.2203 6.86819 89.1842 6.86819L89.2654 7.04085H89.3876V6.86819ZM89.7257 7.6019L89.6579 7.65947L89.9287 7.7458L90.0238 7.68823L89.7257 7.6019ZM90.4158 10.2203C90.4252 10.2203 90.4386 10.2155 90.4569 10.2059C90.4748 10.1963 90.502 10.1867 90.5381 10.1771L90.1995 10.0621C90.1544 10.1292 90.1564 10.1723 90.2064 10.1915C90.2559 10.2107 90.3257 10.2203 90.4158 10.2203ZM90.6733 7.77456C90.6371 7.76499 90.601 7.76256 90.5648 7.76737C90.5287 7.77218 90.4926 7.77456 90.4569 7.77456C90.4569 7.77456 90.4545 7.77693 90.45 7.78174C90.4455 7.78656 90.4431 7.79375 90.4431 7.80331V7.81769C90.4975 7.82731 90.5515 7.83688 90.6054 7.8465C90.6599 7.85607 90.7139 7.86569 90.7678 7.87526L90.8223 7.83212C90.804 7.8225 90.7817 7.8105 90.7545 7.79612C90.7272 7.78174 90.7005 7.77456 90.6733 7.77456ZM91.1604 7.9184C91.0163 7.95678 90.9441 7.99516 90.9441 8.03354C90.9441 8.07187 90.9891 8.11981 91.0792 8.17738C91.1876 8.12943 91.2485 8.08625 91.2619 8.04792C91.2757 8.00954 91.2416 7.9664 91.1604 7.9184ZM91.9995 10.2347C91.7653 10.1771 91.5307 10.1244 91.296 10.0764C91.0614 10.0285 90.8267 9.98049 90.5921 9.93254C90.5738 9.93254 90.5446 9.94454 90.504 9.96854C90.4634 9.99249 90.4114 10.0189 90.3485 10.0476C90.5559 10.0476 90.7342 10.0501 90.8832 10.0549C91.0322 10.0596 91.1287 10.1052 91.1743 10.1915L90.9847 10.3354C91.1832 10.3929 91.3772 10.4121 91.5668 10.3929C91.7559 10.3737 91.9455 10.3594 92.1351 10.3497C92.1168 10.3306 92.099 10.309 92.0807 10.285C92.0629 10.261 92.0356 10.2443 91.9995 10.2347ZM92.1891 10.3642C92.3698 10.4409 92.5525 10.5128 92.7376 10.58C92.9223 10.6471 93.0282 10.7382 93.0555 10.8533C93.155 10.8533 93.247 10.8485 93.3332 10.8389C93.4188 10.8293 93.4975 10.8293 93.5698 10.8389C93.651 10.8485 93.7347 10.8677 93.8203 10.8965C93.9059 10.9252 94.003 10.954 94.1114 10.9828C93.9757 10.8006 93.7569 10.6615 93.4549 10.5656C93.1525 10.4696 92.7307 10.4025 92.1891 10.3642ZM94.504 10.8965L94.3822 11.1842L94.9233 11.0979C94.8693 11.0595 94.8243 11.0164 94.7881 10.9684C94.752 10.9204 94.6574 10.8965 94.504 10.8965ZM94.9639 11.0979C94.9911 11.1363 95.0183 11.177 95.0451 11.2202C95.0723 11.2633 95.1084 11.2993 95.1535 11.3281C95.2346 11.3856 95.3272 11.4096 95.4312 11.4C95.5347 11.3904 95.6272 11.3472 95.7084 11.2705L94.9639 11.0979ZM98.2802 12.4358C98.0995 12.3399 97.9079 12.2488 97.705 12.1625C97.502 12.0762 97.301 11.9851 97.1025 11.8892L97.0079 11.9035C97.0257 11.9419 97.0396 11.9779 97.0485 12.0114C97.0574 12.045 97.0847 12.0762 97.1297 12.105C97.2832 12.2008 97.4411 12.2944 97.6035 12.3855C97.7658 12.4766 97.9282 12.5701 98.0906 12.666C98.1178 12.6756 98.1515 12.6876 98.1921 12.702C98.2327 12.7164 98.2757 12.7284 98.3208 12.738C98.4203 12.6804 98.454 12.6252 98.4223 12.5725C98.3906 12.5198 98.3436 12.4742 98.2802 12.4358ZM1.35273 13.8745L1.77233 14.004L1.13617 14.1478L1.35273 13.8745ZM78.7757 3.57365L78.8837 3.37224C78.947 3.4106 78.9559 3.44656 78.9109 3.48013C78.8658 3.5137 78.8208 3.54488 78.7757 3.57365ZM94.3822 8.46512C94.3911 8.46512 94.4 8.46269 94.4089 8.45793C94.4178 8.45312 94.4272 8.44594 94.4361 8.43637L94.6391 8.49388L94.5985 8.52264L94.3822 8.46512ZM91.0252 7.05523L91.3366 6.9689L91.4178 7.02647L91.1198 7.11274L91.0252 7.05523ZM86.5451 5.76042C86.5718 5.7029 86.6262 5.67409 86.7074 5.67409C86.7886 5.67409 86.8787 5.67409 86.9782 5.67409L86.8832 5.90431L86.5451 5.76042ZM85.2455 4.78213V4.75335L85.5025 4.79651L85.4757 4.82529L85.2455 4.78213ZM84.3114 4.53756L83.5941 4.39369C83.6124 4.39369 83.6302 4.39369 83.6485 4.39369C83.6663 4.39369 83.6847 4.39369 83.7025 4.39369C83.8109 4.39369 83.9168 4.40568 84.0208 4.42965C84.1243 4.45363 84.2213 4.4896 84.3114 4.53756ZM81.3203 3.90454L81.3881 3.86138L82.6198 4.10595C82.6104 4.11554 82.5995 4.12514 82.5856 4.13473C82.5723 4.14432 82.5609 4.15391 82.552 4.1635L81.3203 3.90454ZM80.0886 3.61681L79.4658 3.53049C79.6015 3.49212 79.7163 3.48733 79.8109 3.5161C79.9059 3.54488 79.9985 3.57845 80.0886 3.61681ZM70.6272 1.34371L70.6678 1.28617L70.9926 1.34371L70.9658 1.37249L70.6272 1.34371ZM68.1366 1.01282L68.1639 0.969661C68.4797 0.988845 68.7866 1.01522 69.0842 1.04879C69.3822 1.08236 69.6708 1.12312 69.9505 1.17107L69.8559 1.15669L69.8153 1.21423L68.1366 1.01282ZM66.553 0.854569L66.5936 0.782637L67.5005 0.868954L67.4599 0.926502L66.553 0.854569ZM65.4703 0.66754L66.147 0.753863C66.0025 0.773042 65.901 0.780237 65.8426 0.775442C65.7837 0.770647 65.6599 0.734678 65.4703 0.66754ZM63.5619 0.581223L63.6158 0.494902C63.7965 0.514083 63.9792 0.533264 64.1639 0.552449C64.349 0.571628 64.5317 0.586018 64.7124 0.595607L64.6985 0.653156C64.5094 0.633971 64.3198 0.619587 64.1302 0.609997C63.9406 0.600402 63.751 0.590813 63.5619 0.581223ZM62.8985 0.509288C62.9074 0.499697 62.9144 0.490106 62.9188 0.480515C62.9233 0.470923 62.9257 0.461333 62.9257 0.451742L63.2366 0.494902L63.2233 0.523675C63.1693 0.523675 63.1149 0.52128 63.0609 0.516482C63.0069 0.511686 62.9525 0.509288 62.8985 0.509288ZM61.1119 0.365422V0.322262C61.2921 0.331853 61.4728 0.341443 61.6535 0.351034C61.8337 0.360626 62.0099 0.370217 62.1812 0.379808V0.437355L61.1119 0.365422ZM59.9069 0.322262L59.9208 0.250328L60.2995 0.279102V0.307875L59.9069 0.322262ZM55.9277 0.135235C55.8104 0.125643 55.6931 0.123246 55.5757 0.128042C55.4584 0.132837 55.3411 0.130439 55.2238 0.120849C54.9168 0.120849 54.6124 0.116053 54.3104 0.106462C54.0079 0.0968703 53.7079 0.0920745 53.4099 0.0920745C53.2475 0.0824833 53.0762 0.0776885 52.8955 0.0776885C52.7153 0.0776885 52.5302 0.0776885 52.3406 0.0776885C52.2594 0.0776885 52.1807 0.0776885 52.104 0.0776885C52.0272 0.0776885 51.9485 0.0776885 51.8673 0.0776885H51.8941C51.4698 0.0872791 51.048 0.0944729 50.6287 0.0992688C50.2089 0.104063 49.7871 0.101666 49.363 0.0920745C49.1825 0.0920745 49.0021 0.0920745 48.8216 0.0920745C48.6411 0.0920745 48.4606 0.106462 48.2802 0.135235C48.2711 0.135235 48.2644 0.135235 48.2599 0.135235C48.2553 0.135235 48.2486 0.135235 48.2396 0.135235C48.1854 0.135235 48.1336 0.128042 48.0839 0.113655C48.0343 0.0992688 47.9869 0.0824833 47.9418 0.0633014H47.9553C48.9208 0.0345286 49.8864 0.015346 50.852 0.00575461C51.8173 -0.0038367 52.7807 -0.00143837 53.7416 0.0129486C54.703 0.0273346 55.6658 0.0489146 56.6317 0.0776885C57.5881 0.116053 58.5446 0.164009 59.501 0.221554V0.293488C58.9054 0.264715 58.3099 0.235942 57.7144 0.207168C57.1188 0.178395 56.5233 0.154417 55.9277 0.135235ZM45.4242 0.149622C45.6227 0.101666 45.9295 0.0704947 46.3446 0.0561086C46.7597 0.0417216 47.071 0.0537102 47.2786 0.0920745C46.7913 0.168803 46.4552 0.216759 46.2701 0.235942C46.0852 0.255123 45.8032 0.22635 45.4242 0.149622ZM44.7474 0.178395C44.7474 0.168803 44.7474 0.159213 44.7474 0.149622C44.7474 0.140031 44.7474 0.130439 44.7474 0.120849L45.0452 0.135235C45.0452 0.144826 45.043 0.156814 45.0385 0.171202C45.0339 0.185589 45.0317 0.192782 45.0317 0.192782C44.9865 0.192782 44.9392 0.190383 44.8896 0.185589C44.8399 0.180793 44.7925 0.178395 44.7474 0.178395ZM42.8796 0.250328L43.4886 0.178395C43.3803 0.235942 43.3014 0.267113 43.2518 0.271908C43.2021 0.276703 43.0781 0.269511 42.8796 0.250328ZM38.8189 0.552449L38.7918 0.710704C38.7197 0.653156 38.6836 0.617187 38.6836 0.602802C38.6836 0.588413 38.7287 0.571628 38.8189 0.552449ZM36.9239 0.897728C36.933 0.907318 36.9081 0.916912 36.8495 0.926502C36.7908 0.936092 36.7254 0.945682 36.6532 0.955276L36.6261 0.739473L37.6278 0.609997L37.6684 0.66754C37.6143 0.677135 37.5601 0.686725 37.5059 0.696314C37.4518 0.705904 37.3932 0.715499 37.33 0.725088C37.2217 0.734678 37.1179 0.746668 37.0187 0.761052C36.9194 0.775442 36.8878 0.821 36.9239 0.897728ZM35.9494 0.998435L36.0306 0.854569C36.0938 0.921707 36.1208 0.960071 36.1118 0.969661C36.1028 0.97925 36.0487 0.988845 35.9494 0.998435ZM35.9223 0.998435H35.9494L35.9358 1.01282L35.9223 0.998435ZM35.9088 0.998435C35.9088 0.998435 35.911 0.998435 35.9155 0.998435C35.92 0.998435 35.9223 0.998435 35.9223 0.998435L35.9358 1.01282L35.9088 0.998435ZM35.4486 0.955276L35.9088 0.998435C35.8095 1.04639 35.7215 1.06317 35.6449 1.04879C35.5681 1.0344 35.5027 1.00323 35.4486 0.955276ZM35.6651 0.825795L35.4351 0.940887C35.3719 0.912112 35.3493 0.892933 35.3674 0.883344C35.3854 0.873749 35.4847 0.854569 35.6651 0.825795ZM35.4351 0.955276H35.4215L35.4351 0.940887V0.955276ZM32.4978 1.44442C32.6873 1.41565 32.8114 1.3581 32.87 1.27178C32.9287 1.18546 33.0438 1.12792 33.2152 1.09914C33.2333 1.10873 33.2491 1.11593 33.2626 1.12072C33.2761 1.12552 33.2874 1.13271 33.2964 1.1423L33.1475 1.21423L33.5807 1.28617L32.4978 1.44442ZM30.4946 1.4732L30.7518 1.45881L30.7653 1.48758L30.5081 1.51635L30.4946 1.4732ZM29.4794 1.73216C29.5967 1.73216 29.7141 1.72736 29.8313 1.71777C29.9487 1.70818 30.0659 1.70338 30.1833 1.70338C30.075 1.75134 29.9622 1.78491 29.8449 1.80409C29.7276 1.82327 29.6057 1.79929 29.4794 1.73216ZM29.4794 1.73216C29.5246 1.67461 29.5719 1.63625 29.6215 1.61706C29.6712 1.59788 29.8133 1.5739 30.0479 1.54513C29.9306 1.58349 29.8268 1.61706 29.7366 1.64583C29.6464 1.67461 29.5606 1.70338 29.4794 1.73216ZM27.1513 2.25008C27.1333 2.25008 27.1152 2.24288 27.0972 2.2285C27.0792 2.21411 27.0746 2.20692 27.0837 2.20692C27.0927 2.19732 27.1107 2.18773 27.1378 2.17814C27.1649 2.16855 27.1964 2.15896 27.2325 2.14937C27.2416 2.16855 27.2528 2.18294 27.2664 2.19253C27.2799 2.20212 27.2867 2.21171 27.2867 2.2213C27.2686 2.23089 27.2483 2.23809 27.2258 2.24288C27.2032 2.24768 27.1829 2.25008 27.1649 2.25008C27.1649 2.25008 27.1626 2.25008 27.1581 2.25008C27.1536 2.25008 27.1513 2.25008 27.1513 2.25008ZM22.3598 3.24276C22.3417 3.11807 22.3778 3.03894 22.4681 3.00537C22.5583 2.9718 22.829 2.93584 23.2802 2.89748C23.1087 2.94543 22.9959 3.02216 22.9418 3.12766C22.8877 3.23317 22.6937 3.27153 22.3598 3.24276ZM17.7712 3.90454L17.9878 3.86138L18.0149 3.89016L17.8119 3.93331L17.7712 3.90454ZM17.108 4.0628L17.3923 3.99086L17.4464 4.03402L17.1892 4.10595L17.108 4.0628ZM1.70466 10.5224C1.71368 10.5128 1.73399 10.5032 1.76556 10.4936C1.79715 10.484 1.81745 10.4793 1.82648 10.4793C1.85354 10.4888 1.8761 10.5008 1.89415 10.5152C1.9122 10.5296 1.93025 10.5416 1.94829 10.5512L1.71819 10.6231C1.70917 10.5943 1.7024 10.5728 1.69789 10.5584C1.69338 10.544 1.69563 10.532 1.70466 10.5224Z" fill="#F8941F"/>
</g>
<defs>
<clipPath id="clip0_629_700">
<rect width="100" height="15" fill="white" transform="translate(0.5)"/>
</clipPath>
</defs>
</svg>
