<svg width="151" height="15" viewBox="0 0 151 15" fill="none" xmlns="http://www.w3.org/2000/svg">
<g clip-path="url(#clip0_629_706)">
<path d="M1.47455 12.7955L2.22577 12.4358C2.34759 12.5413 2.3036 12.6157 2.0938 12.6588C1.884 12.702 1.67758 12.7475 1.47455 12.7955ZM150.5 13.0401C150.432 13.0593 150.344 13.076 150.236 13.0905C150.128 13.1048 150.06 13.1264 150.033 13.1552C150.02 13.1743 150.06 13.1983 150.155 13.2271C150.25 13.2559 150.337 13.2894 150.419 13.3278L149.809 13.486C149.498 13.4669 149.285 13.4261 149.17 13.3638C149.055 13.3014 148.937 13.2367 148.815 13.1695C148.707 13.112 148.592 13.0569 148.47 13.0041C148.348 12.9514 148.22 12.9058 148.084 12.8674L148.064 12.853C147.955 12.8147 147.83 12.7907 147.688 12.7811C147.546 12.7715 147.421 12.7907 147.312 12.8387C147.218 12.8866 147.181 12.9274 147.201 12.9609C147.221 12.9945 147.34 13.0209 147.556 13.0401C147.624 13.0496 147.668 13.0785 147.688 13.1264C147.709 13.1743 147.746 13.2223 147.8 13.2702C147.692 13.2702 147.61 13.2702 147.556 13.2702C147.502 13.2702 147.461 13.2655 147.434 13.2559C146.893 13.0257 146.314 12.8075 145.699 12.6013C145.082 12.3951 144.429 12.2008 143.739 12.0186C143.482 11.9419 143.255 11.8603 143.059 11.7741C142.863 11.6877 142.656 11.6014 142.439 11.5151C142.332 11.4767 142.22 11.4384 142.104 11.4C141.989 11.3616 141.817 11.3664 141.587 11.4144C141.574 11.4144 141.556 11.4144 141.536 11.4144C141.516 11.4144 141.492 11.4144 141.465 11.4144C141.438 11.4144 141.404 11.4144 141.363 11.4144C141.323 11.4144 141.289 11.4096 141.262 11.4C140.991 11.3616 140.72 11.3209 140.45 11.2777C140.179 11.2345 139.909 11.189 139.638 11.141C139.598 11.141 139.553 11.1386 139.506 11.1338C139.459 11.129 139.428 11.1218 139.414 11.1123C139.279 10.9972 139.055 10.9348 138.744 10.9252C138.433 10.9157 138.129 10.8965 137.831 10.8677C137.614 10.8485 137.405 10.8197 137.201 10.7814C136.999 10.743 136.795 10.7094 136.592 10.6807C136.321 10.6327 136.051 10.5872 135.78 10.544C135.51 10.5008 135.232 10.4601 134.948 10.4217C134.082 10.297 133.212 10.1747 132.339 10.0549C131.466 9.93497 130.603 9.80788 129.75 9.67361C129.222 9.59685 128.688 9.52014 128.146 9.44338C127.605 9.36668 127.06 9.29235 126.512 9.2204C125.964 9.1485 125.412 9.07893 124.857 9.0118C124.302 8.94466 123.754 8.87752 123.213 8.81038C122.726 8.74325 122.245 8.68092 121.771 8.62335C121.298 8.56583 120.817 8.50826 120.329 8.45075C119.87 8.4028 119.405 8.35004 118.938 8.29247C118.472 8.23495 117.988 8.19176 117.487 8.163C117.23 8.15338 116.976 8.13424 116.725 8.10543C116.475 8.07668 116.228 8.04792 115.984 8.01911C115.687 7.99035 115.386 7.96397 115.081 7.94002C114.776 7.91602 114.475 7.89445 114.178 7.87526C113.948 7.8465 113.717 7.81769 113.487 7.78893C113.257 7.76018 113.027 7.73618 112.797 7.71699C112.553 7.70742 112.313 7.70023 112.076 7.69542C111.839 7.69066 111.599 7.67385 111.355 7.64509C111.017 7.60671 110.659 7.58033 110.279 7.56595C109.9 7.55157 109.528 7.53 109.162 7.50119C108.96 7.49162 108.764 7.47481 108.574 7.45087C108.384 7.42687 108.188 7.41011 107.985 7.40049C107.742 7.39092 107.498 7.3813 107.254 7.37173C107.01 7.36216 106.767 7.35254 106.523 7.34297C105.995 7.31416 105.471 7.29021 104.95 7.27102C104.428 7.25183 103.904 7.22788 103.376 7.19907C102.524 7.16074 101.671 7.11756 100.818 7.06961C99.9656 7.02166 99.1057 6.97371 98.2399 6.92576C97.8879 6.90657 97.4951 6.88976 97.0621 6.87538C96.6292 6.861 96.1822 6.849 95.7218 6.83944H95.6208C95.2012 6.82981 94.7201 6.81543 94.1787 6.79624C93.624 6.78668 93.0322 6.77706 92.4025 6.76749C91.7728 6.75792 91.1134 6.74349 90.4228 6.72435C89.7188 6.71473 89.0149 6.70516 88.3116 6.69554H87.5602C87.0322 6.68597 86.4708 6.67878 85.8753 6.67397C85.2797 6.66916 84.6701 6.66678 84.0478 6.66678C83.6007 6.66678 83.1478 6.66678 82.6874 6.66678C82.227 6.66678 81.774 6.67159 81.327 6.68116H81.4688C80.8874 6.69078 80.3119 6.69316 79.7431 6.68835C79.175 6.68359 78.6062 6.68597 78.0381 6.69554C77.2666 6.71473 76.4951 6.72911 75.7235 6.73873C74.952 6.7483 74.1938 6.78668 73.4494 6.85381C73.1651 6.873 72.8708 6.88738 72.5662 6.89695C72.2616 6.90657 71.9604 6.91614 71.6627 6.92576C71.5544 6.93533 71.4427 6.94252 71.3277 6.94733C71.2127 6.95214 71.101 6.95933 70.9927 6.9689C70.9385 6.9689 70.8776 6.97371 70.81 6.98328C70.7422 6.9929 70.6949 6.99766 70.6678 6.99766C70.3971 6.92095 70.1129 6.89695 69.8151 6.92576C69.5173 6.95452 69.2263 6.96409 68.9421 6.95452C68.9285 6.95452 68.9116 6.95452 68.8913 6.95452C68.871 6.95452 68.8541 6.95452 68.8405 6.95452C68.7864 6.95452 68.7289 6.95452 68.6679 6.95452C68.6071 6.95452 68.5495 6.95933 68.4954 6.9689H68.5157C67.9878 7.05523 67.443 7.11037 66.8813 7.13437C66.3196 7.15831 65.7545 7.17988 65.186 7.19907C64.8746 7.21826 64.5701 7.24226 64.2724 7.27102C63.9746 7.29978 63.6768 7.32378 63.379 7.34297C62.7834 7.39092 62.1811 7.43406 61.572 7.47243C60.9629 7.51081 60.3538 7.54914 59.7447 7.58752C59.4876 7.60671 59.227 7.62352 58.963 7.6379C58.6991 7.65228 58.4385 7.66904 58.1814 7.68823C57.9377 7.70742 57.6975 7.72661 57.4606 7.7458C57.2238 7.76499 56.9902 7.78893 56.7602 7.81769C56.2458 7.87526 55.7315 7.9304 55.2171 7.98316C54.7027 8.03592 54.1884 8.09105 53.674 8.14862C53.6605 8.14862 53.647 8.151 53.6335 8.15581C53.6199 8.16057 53.6064 8.163 53.5929 8.163C53.2003 8.14381 52.8349 8.16057 52.4965 8.21333C52.1581 8.26609 51.8062 8.29728 51.4407 8.30685C51.2376 8.30685 51.0482 8.32366 50.8722 8.35723C50.6962 8.3908 50.5067 8.41718 50.3037 8.43637C49.9924 8.47469 49.671 8.50588 49.3393 8.52983C49.0077 8.55383 48.6862 8.58502 48.375 8.62335C47.7658 8.70011 47.1568 8.77681 46.5476 8.85357C45.9386 8.93028 45.3227 9.00223 44.7 9.06937C44.267 9.12688 43.8338 9.17488 43.4007 9.21321C42.9675 9.25159 42.5344 9.28997 42.1012 9.3283C41.9659 9.34749 41.8373 9.3643 41.7155 9.37868C41.5937 9.39305 41.4718 9.40506 41.35 9.41462C41.0387 9.46257 40.724 9.50814 40.4059 9.55133C40.0878 9.59447 39.7731 9.64004 39.4618 9.68799C39.4483 9.68799 39.4347 9.69037 39.4212 9.69518C39.4077 9.69999 39.3942 9.70237 39.3806 9.70237C38.9339 9.6448 38.5516 9.65442 38.2335 9.73112C37.9154 9.80788 37.5804 9.8654 37.2285 9.90378C36.863 9.93254 36.5179 9.97811 36.193 10.0404C35.8681 10.1028 35.5365 10.158 35.1982 10.2059C35.1034 10.2251 34.9951 10.2395 34.8733 10.249C34.7515 10.2587 34.6229 10.2682 34.4876 10.2778H34.4673C34.0612 10.3066 33.6653 10.3378 33.2795 10.3714C32.8938 10.4049 32.5249 10.4553 32.173 10.5224C31.8346 10.5895 31.4793 10.6519 31.1071 10.7094C30.7349 10.767 30.3592 10.8197 29.9803 10.8677C29.1546 10.954 28.3661 11.0643 27.615 11.1986C26.8637 11.3329 26.1023 11.4623 25.3308 11.587C24.9518 11.6446 24.5864 11.7069 24.2345 11.7741C23.8826 11.8412 23.5373 11.9083 23.1989 11.9755C22.9553 12.0234 22.6948 12.0618 22.4173 12.0906C22.1398 12.1193 21.8657 12.1529 21.5951 12.1913C21.5273 12.2008 21.4597 12.2105 21.392 12.22C21.3243 12.2296 21.2634 12.244 21.2093 12.2632C20.8032 12.3975 20.343 12.515 19.8286 12.6157C19.3143 12.7164 18.8067 12.8195 18.3059 12.925C18.0352 12.9825 17.7814 13.0401 17.5445 13.0976C17.3076 13.1552 17.0133 13.1935 16.6613 13.2127C16.6208 13.2127 16.5835 13.2271 16.5497 13.2559C16.5158 13.2846 16.4651 13.3134 16.3974 13.3422L17.1892 13.3134L16.174 13.6156L14.1234 13.4429C14.2588 13.3853 14.4043 13.3374 14.56 13.2991C14.7156 13.2607 14.7258 13.2127 14.5904 13.1552C14.8205 13.1456 14.9593 13.136 15.0066 13.1264C15.054 13.1168 15.1116 13.0785 15.1792 13.0113L14.5295 13.112L14.9558 12.7955C15.01 12.7859 15.0675 12.7811 15.1284 12.7811C15.1894 12.7811 15.2604 12.7763 15.3416 12.7667L15.1589 12.5509C15.0912 12.5509 15.0269 12.5533 14.966 12.5581C14.9051 12.5629 14.8543 12.5701 14.8138 12.5797C14.5159 12.666 14.2182 12.75 13.9204 12.8315C13.6226 12.913 13.3181 12.9921 13.0067 13.0688C12.9391 13.088 12.8613 13.1024 12.7733 13.112C12.6853 13.1216 12.5939 13.1264 12.4992 13.1264C12.4722 13.1264 12.4518 13.1264 12.4383 13.1264C12.4248 13.1264 12.4044 13.1264 12.3774 13.1264H12.3977C12.154 13.1168 11.9443 13.1264 11.7683 13.1552C11.5923 13.1839 11.4502 13.2223 11.3419 13.2702C11.2201 13.3278 11.0881 13.3734 10.946 13.407C10.8039 13.4405 10.6516 13.4621 10.4892 13.4717C10.0831 13.5005 9.73792 13.558 9.45374 13.6443C9.16948 13.7306 8.88522 13.8122 8.60097 13.8889C8.26257 13.9848 7.93777 14.0879 7.62642 14.1982C7.31511 14.3085 7.01056 14.4164 6.71278 14.5219L5.6164 14.4787L6.28641 14.1478C6.46237 14.1574 6.61803 14.1718 6.75338 14.191C6.88874 14.2102 6.99026 14.2102 7.05793 14.191C7.17975 14.1814 7.26435 14.1598 7.31172 14.1263C7.3591 14.0927 7.31511 14.052 7.17975 14.004C7.13914 13.9848 7.12223 13.9584 7.12899 13.9249C7.13576 13.8913 7.15945 13.8649 7.20005 13.8457C7.2948 13.7978 7.40647 13.7522 7.53506 13.7091C7.66364 13.6659 7.78885 13.6203 7.91067 13.5724C8.45208 13.3806 8.83785 13.2439 9.06797 13.1623C9.29802 13.0808 9.50111 13.0065 9.67703 12.9394L8.94611 13.1839C8.97322 13.1743 9.00025 13.1623 9.02735 13.148C9.05438 13.1336 9.08149 13.1264 9.10859 13.1264C9.50111 13.1072 9.76503 13.0496 9.9004 12.9537C10.0358 12.8578 10.2591 12.7667 10.5704 12.6804L9.59587 12.7092C9.70413 12.5845 9.73458 12.5102 9.6872 12.4862C9.63983 12.4622 9.41988 12.4406 9.02735 12.4215C9.00025 12.527 8.89874 12.6181 8.72282 12.6948C8.54683 12.7715 8.30995 12.8482 8.01218 12.925C7.56551 13.0209 7.14253 13.1288 6.74323 13.2487C6.34393 13.3686 5.94126 13.486 5.5352 13.6012C5.44044 13.6395 5.34908 13.6755 5.2611 13.7091C5.17312 13.7426 5.09529 13.7834 5.02761 13.8313V13.817C4.9058 13.8937 4.75014 13.956 4.56064 14.004C4.37114 14.052 4.16134 14.0855 3.93124 14.1047C3.55225 14.1335 3.29846 14.1862 3.16987 14.2629C3.04128 14.3397 2.91608 14.4164 2.79426 14.4931C2.72659 14.5315 2.67582 14.5722 2.64199 14.6154C2.60815 14.6586 2.48971 14.6898 2.28668 14.709C2.13779 14.6322 2.12087 14.5602 2.23592 14.4931C2.35098 14.426 2.44234 14.3588 2.51002 14.2917C2.55063 14.2342 2.56416 14.1838 2.55063 14.1407C2.53709 14.0975 2.49648 14.052 2.42881 14.004C3.0379 13.9848 3.41013 13.9536 3.54548 13.9105C3.68083 13.8673 3.79589 13.7498 3.89063 13.558L2.83487 13.5148L2.34759 13.1983L1.84001 13.1695C1.84001 13.16 1.83663 13.1503 1.82986 13.1408C1.82309 13.1312 1.81971 13.1216 1.81971 13.112C1.90092 13.0641 1.98213 13.0137 2.06335 12.9609C2.14456 12.9082 2.21224 12.8578 2.26638 12.8099C2.32052 12.7523 2.39835 12.7044 2.49986 12.666C2.60138 12.6277 2.72659 12.5941 2.87547 12.5653C3.14619 12.5078 3.37629 12.4406 3.56578 12.3639C3.75528 12.2872 3.88387 12.2008 3.95154 12.105C3.82973 12.0858 3.6876 12.0666 3.52517 12.0474C3.36275 12.0282 3.28153 12.0091 3.28153 11.9899C3.28153 11.9419 3.32215 11.8963 3.40335 11.8532C3.48457 11.81 3.55225 11.7693 3.60639 11.7309C3.64699 11.7117 3.68083 11.6901 3.70791 11.6661C3.73497 11.6422 3.74175 11.611 3.72821 11.5727C3.36275 11.6589 2.98376 11.7357 2.59123 11.8028C2.1987 11.87 1.92122 11.9802 1.7588 12.1337C1.69112 12.2008 1.53885 12.2296 1.30197 12.22C1.06511 12.2105 0.79778 12.1673 0.5 12.0906C0.594748 11.9851 0.736871 11.8843 0.926367 11.7885C1.11586 11.6925 1.3392 11.6014 1.59637 11.5151C1.89415 11.4192 2.20208 11.3232 2.52017 11.2273C2.83825 11.1315 3.09204 11.0211 3.28153 10.8965C3.37629 10.8293 3.51502 10.7694 3.69776 10.7166C3.88048 10.6639 4.03953 10.6039 4.17488 10.5368C4.28316 10.4888 4.36776 10.4385 4.42867 10.3857C4.48958 10.333 4.48619 10.273 4.41852 10.2059C4.3373 10.1292 4.37114 10.086 4.52003 10.0764C4.66892 10.0668 4.84488 10.0716 5.04792 10.0908C5.04792 10.0621 5.0513 10.0381 5.05807 10.0189C5.06483 9.99968 5.05468 9.98049 5.02761 9.96135C4.91933 9.89421 4.80089 9.85821 4.67231 9.85345C4.54372 9.84864 4.39821 9.87021 4.23579 9.91816C4.12751 9.94692 4.0226 9.97811 3.92109 10.0117C3.81957 10.0452 3.71467 10.0764 3.60639 10.1052L3.44397 10.0621C3.59285 10.0141 3.73497 9.96135 3.87033 9.90378C4.00569 9.84621 4.15457 9.7935 4.317 9.7455C4.46589 9.69755 4.59109 9.65204 4.69261 9.60885C4.79413 9.56571 4.79751 9.50576 4.70276 9.429C4.64862 9.39068 4.67569 9.3403 4.78397 9.27797C4.89226 9.21564 4.987 9.15088 5.06822 9.08375L5.73822 9.21321C5.8059 9.18445 5.88034 9.15326 5.96156 9.11969C6.04277 9.08612 6.11045 9.05018 6.16459 9.0118C6.21874 8.98304 6.25595 8.94709 6.27626 8.9039C6.29656 8.86076 6.34732 8.82476 6.42853 8.796C6.73985 8.7193 7.02071 8.63778 7.27112 8.55145C7.52152 8.46513 7.77531 8.37399 8.03245 8.27809C8.05955 8.26852 8.12045 8.26371 8.2152 8.26371C8.30995 8.26371 8.4047 8.26371 8.49946 8.26371L8.29644 8.09106C8.35057 8.08149 8.39453 8.07187 8.42839 8.0623C8.46225 8.05268 8.49946 8.04792 8.54007 8.04792C8.95963 8.01911 9.32171 7.97116 9.62631 7.90402C9.93084 7.83688 10.1982 7.75056 10.4283 7.64509C10.4688 7.6259 10.4959 7.60671 10.5095 7.58752C10.523 7.56833 10.5366 7.54914 10.5501 7.53C10.5636 7.52038 10.567 7.50362 10.5602 7.47962C10.5535 7.45568 10.5636 7.44368 10.5907 7.44368C10.9156 7.4053 11.1625 7.34054 11.3318 7.24945C11.5009 7.15831 11.7209 7.08399 11.9916 7.02647C12.8037 6.85381 13.6057 6.67397 14.3975 6.48693C15.1894 6.2999 15.9846 6.1153 16.7832 5.93307C17.2028 5.84675 17.619 5.75561 18.0318 5.65971C18.4446 5.56381 18.8609 5.46792 19.2804 5.37197C19.4023 5.35278 19.5376 5.33364 19.6865 5.31445C19.8354 5.29526 19.9775 5.27126 20.1129 5.2425C20.4784 5.16577 20.837 5.09144 21.1889 5.01951C21.5408 4.94757 21.8928 4.87324 22.2447 4.79651C22.6237 4.87324 22.8741 4.914 22.9959 4.9188C23.1178 4.9236 23.3343 4.89722 23.6457 4.83968C23.4832 4.75335 23.4189 4.67423 23.4527 4.60229C23.4866 4.53036 23.6592 4.47042 23.9705 4.42246L23.3411 4.48001L23.2396 4.42246L24.2547 4.24982L24.3766 4.29298L24.0517 4.39369C24.2006 4.39369 24.3495 4.39129 24.4984 4.3865C24.6473 4.3817 24.7894 4.3793 24.9248 4.3793C25.0601 4.36971 25.1819 4.36492 25.2902 4.36492C25.3985 4.36492 25.4594 4.33135 25.4729 4.26421C25.4729 4.25462 25.5474 4.23783 25.6963 4.21386C25.8452 4.18988 25.9602 4.18269 26.0414 4.19228C26.2851 4.22105 26.4272 4.21386 26.4678 4.1707C26.5084 4.12753 26.5693 4.08677 26.6505 4.04841C26.7182 4.06759 26.7859 4.08437 26.8535 4.09876C26.9212 4.11315 26.9821 4.12514 27.0363 4.13473C27.1852 4.19228 27.3375 4.23303 27.4931 4.25701C27.6487 4.28099 27.8281 4.25462 28.0312 4.17789C28.0988 4.15871 28.1631 4.14432 28.224 4.13473C28.2849 4.12514 28.3492 4.12034 28.4169 4.12034C28.4169 4.12034 28.4203 4.12034 28.427 4.12034C28.4338 4.12034 28.4372 4.12034 28.4372 4.12034C28.8297 4.12034 29.1614 4.08917 29.432 4.02683C29.7028 3.96449 29.9667 3.90454 30.2239 3.847C30.2239 3.78945 30.207 3.7319 30.1731 3.67436C30.1393 3.61681 30.1562 3.56885 30.2239 3.53049C30.3322 3.49212 30.4811 3.46095 30.6706 3.43697C30.8601 3.413 31.036 3.38662 31.1985 3.35785H31.2187H31.2594V3.37224L31.9294 3.42978C31.8752 3.40101 31.8346 3.37463 31.8075 3.35066C31.7804 3.32668 31.7466 3.3051 31.706 3.28591L32.6197 3.14205L33.0257 3.40101C33.5671 3.36264 34.0815 3.31229 34.5688 3.24995C35.0561 3.18761 35.5636 3.12286 36.0915 3.05573L35.6651 2.94063C35.787 2.93105 35.9088 2.91666 36.0306 2.89748C36.1524 2.87829 36.2472 2.8735 36.3148 2.88309C36.5449 2.91186 36.7209 2.91186 36.8427 2.88309C36.9646 2.85432 37.0728 2.81115 37.1676 2.75361C37.4925 2.82074 37.7835 2.83753 38.0406 2.80396C38.2978 2.77039 38.5414 2.72004 38.7715 2.6529C39.0152 2.68167 39.2385 2.69606 39.4416 2.69606C39.6446 2.69606 39.8544 2.6577 40.0709 2.58097C40.2063 2.53301 40.3958 2.49944 40.6394 2.48026C40.883 2.46108 41.1064 2.4371 41.3094 2.40833C41.4853 2.38915 41.6648 2.36996 41.8474 2.35078C42.0302 2.3316 42.2028 2.30282 42.3652 2.26446C42.4735 2.24528 42.5716 2.23089 42.6596 2.2213C42.7476 2.21171 42.8593 2.21651 42.9946 2.23569C43.1434 2.25487 43.2755 2.25727 43.3905 2.24288C43.5055 2.2285 43.6037 2.20212 43.6849 2.16375C43.8879 2.06784 44.1485 2.01509 44.4666 2.0055C44.7847 1.99591 45.0994 1.98632 45.4107 1.97673C45.546 1.96713 45.6882 1.96234 45.8371 1.96234C45.9859 1.96234 46.1213 1.95275 46.2431 1.93357C46.8657 1.86643 47.4884 1.7945 48.111 1.71777C48.7336 1.64104 49.3833 1.59788 50.0601 1.58829C50.3443 1.5787 50.6286 1.55951 50.9128 1.53074C51.1971 1.50197 51.4881 1.51156 51.7859 1.55951C52.0566 1.50197 52.3713 1.48039 52.73 1.49477C53.0887 1.50916 53.3695 1.45401 53.5725 1.32933C53.6402 1.28137 53.7553 1.26219 53.9177 1.27178C54.0802 1.28137 54.2223 1.30535 54.3441 1.34371C54.4929 1.38208 54.6216 1.39886 54.7298 1.39407C54.8381 1.38927 54.9464 1.3629 55.0547 1.31494C55.1224 1.28617 55.1934 1.26219 55.2679 1.24301C55.3423 1.22383 55.4269 1.21423 55.5216 1.21423C55.8465 1.19505 56.1714 1.17587 56.4962 1.15669C56.8211 1.13751 57.1527 1.1423 57.4911 1.17107C57.5994 1.17107 57.6975 1.17347 57.7854 1.17827C57.8734 1.18306 57.9648 1.16148 58.0595 1.11353C58.1273 1.08476 58.2558 1.06797 58.4453 1.06317C58.6348 1.05838 58.804 1.05119 58.9529 1.04159C59.2777 1.02241 59.606 1.00563 59.9376 0.99124C60.2692 0.976856 60.611 0.960071 60.9629 0.940887C61.1118 1.0368 61.3283 1.07516 61.6126 1.05598C61.8969 1.0368 62.1608 1.02241 62.4044 1.01282C62.8376 0.99364 63.2674 0.967266 63.6937 0.933697C64.1201 0.900128 64.5498 0.868954 64.9829 0.84018C65.2672 0.821001 65.5514 0.806611 65.8357 0.797021C66.1199 0.787431 66.411 0.777837 66.7087 0.768247C67.4667 0.749068 68.228 0.734678 68.9928 0.725088C69.7576 0.715499 70.519 0.705904 71.2769 0.696314C72.0891 0.686725 72.8978 0.68193 73.7032 0.68193C74.5085 0.68193 75.3173 0.68193 76.1297 0.68193C76.847 0.68193 77.5606 0.684325 78.2713 0.689119C78.9819 0.693919 79.6889 0.701109 80.3928 0.710704C80.7723 0.720294 81.1547 0.729883 81.5401 0.739473C81.9262 0.749068 82.3087 0.758657 82.6874 0.768247C83.554 0.777837 84.4235 0.794621 85.296 0.8186C86.1693 0.84258 87.0322 0.883344 87.8847 0.940887C88.1965 0.960071 88.5077 0.974456 88.8188 0.984045C89.13 0.99364 89.4552 0.99364 89.7938 0.984045C89.9832 0.984045 90.1755 0.996035 90.3723 1.02001C90.5683 1.04399 90.7681 1.06078 90.9708 1.07037C91.5262 1.09914 92.0809 1.12072 92.6356 1.13511C93.1911 1.1495 93.7458 1.17107 94.3005 1.19985C94.9502 1.23821 95.5933 1.27658 96.2297 1.31494C96.8661 1.3533 97.5017 1.39167 98.1381 1.43004C98.571 1.44922 99.004 1.4732 99.4376 1.50197C99.8705 1.53074 100.303 1.55951 100.737 1.58829C101.183 1.61706 101.63 1.64583 102.077 1.67461C102.524 1.70338 102.963 1.73695 103.396 1.77532C104.168 1.84245 104.933 1.91199 105.691 1.98392C106.449 2.05586 107.207 2.12539 107.965 2.19253C108.696 2.26926 109.423 2.34599 110.148 2.42272C110.872 2.49944 111.599 2.57617 112.33 2.6529C112.709 2.70086 113.095 2.74402 113.487 2.78238C113.88 2.82074 114.265 2.8687 114.645 2.92625H114.035C114.306 3.04134 114.55 3.11087 114.767 3.13485C114.983 3.15883 115.315 3.15164 115.761 3.11327C115.815 3.15164 115.856 3.1924 115.883 3.23556C115.91 3.27872 116.045 3.2955 116.289 3.28591L116.472 3.11327C116.593 3.24755 116.773 3.35066 117.01 3.42259C117.247 3.49452 117.548 3.54488 117.914 3.57365C117.914 3.57365 117.914 3.57605 117.914 3.58084C117.914 3.58563 117.914 3.58803 117.914 3.58803C117.981 3.59762 118.052 3.60961 118.127 3.624C118.201 3.63839 118.251 3.65517 118.279 3.67436C118.347 3.71272 118.404 3.75348 118.451 3.79664C118.499 3.8398 118.563 3.89495 118.644 3.96209L119.396 3.83261C119.518 3.8422 119.683 3.86378 119.893 3.89735C120.103 3.93092 120.323 3.96209 120.553 3.99086C121.054 4.03882 121.524 4.10356 121.964 4.18508C122.404 4.2666 122.841 4.34573 123.274 4.42246C123.639 4.48001 124.015 4.53516 124.4 4.58791C124.786 4.64066 125.162 4.69581 125.527 4.75335C125.947 4.82049 126.377 4.88283 126.816 4.94038C127.256 4.99793 127.638 5.07466 127.964 5.17057C128.221 5.24731 128.518 5.30726 128.857 5.3504C129.196 5.39354 129.432 5.47268 129.568 5.58776C129.161 5.69328 128.792 5.71485 128.461 5.65252C128.129 5.59019 127.781 5.53981 127.416 5.50149C127.577 5.53981 127.673 5.58776 127.699 5.64533C127.727 5.7029 127.828 5.74123 128.004 5.76042C128.18 5.78918 128.37 5.8108 128.573 5.82518C128.775 5.83956 128.992 5.85631 129.222 5.8755C129.1 5.99059 129.121 6.08173 129.283 6.14887C129.446 6.216 129.716 6.26876 130.096 6.30709L130.968 6.0913L130.725 5.91869L132.105 5.94745C132.051 6.00497 132.004 6.05773 131.963 6.10568C131.922 6.15368 132.065 6.18243 132.389 6.192L131.415 6.5085C131.685 6.60445 131.976 6.64759 132.288 6.63802C132.6 6.6284 132.891 6.62364 133.161 6.62364L135.516 7.12718C135.462 7.14631 135.421 7.16075 135.395 7.17031C135.367 7.17988 135.34 7.1895 135.313 7.19907C135.205 7.21826 135.106 7.23745 135.019 7.25664C134.931 7.27583 134.927 7.3094 135.008 7.35735C135.09 7.39573 135.199 7.42211 135.334 7.43649C135.469 7.45087 135.584 7.43887 135.679 7.40049C135.827 7.35254 135.97 7.33578 136.105 7.35016C136.24 7.36454 136.382 7.37173 136.531 7.37173C136.694 7.3813 136.863 7.38373 137.039 7.37892C137.215 7.37411 137.391 7.37173 137.567 7.37173C137.635 7.37173 137.709 7.37892 137.79 7.3933C137.871 7.40768 137.953 7.41968 138.034 7.4293C137.627 7.51557 137.408 7.58752 137.374 7.64509C137.34 7.70261 137.459 7.80331 137.729 7.94721C137.933 7.92802 138.139 7.91121 138.349 7.89683C138.559 7.88245 138.765 7.90402 138.968 7.96159C139.009 7.98078 139.083 7.98554 139.191 7.97597C139.3 7.9664 139.394 7.96159 139.475 7.96159C139.868 7.95197 140.163 7.97116 140.359 8.01911C140.555 8.06711 140.659 8.14862 140.674 8.26371C140.687 8.38837 140.741 8.46994 140.835 8.50826C140.93 8.54664 141.154 8.58502 141.506 8.62335C141.424 8.70011 141.343 8.74568 141.262 8.76006C141.181 8.77444 141.066 8.76724 140.917 8.73849C140.376 8.62335 139.841 8.51069 139.313 8.40037C138.785 8.29009 138.257 8.17738 137.729 8.0623C137.621 8.03354 137.499 8.00954 137.364 7.99035C137.229 7.97116 137.066 7.9424 136.877 7.90402L136.836 8.163C136.903 8.17257 136.955 8.18219 136.988 8.19176C137.022 8.20138 137.053 8.20138 137.079 8.19176C137.31 8.19176 137.506 8.20614 137.668 8.23495C137.831 8.26371 138 8.30685 138.176 8.36442C138.447 8.45074 138.755 8.52264 139.1 8.58021C139.445 8.63778 139.774 8.70492 140.085 8.78162C140.815 8.96385 141.563 9.14131 142.328 9.31392C143.093 9.48657 143.78 9.68318 144.389 9.90378C144.646 10.0093 144.923 10.1076 145.221 10.1987C145.519 10.2898 145.803 10.3833 146.074 10.4793C146.169 10.508 146.257 10.5416 146.338 10.58C146.419 10.6183 146.494 10.6567 146.561 10.6951C146.683 10.7718 146.784 10.8221 146.866 10.8461C146.947 10.8701 147.184 10.9108 147.576 10.9684C147.644 10.8917 147.624 10.827 147.516 10.7742C147.407 10.7214 147.305 10.6711 147.211 10.6231C146.994 10.5176 146.751 10.4169 146.48 10.321C146.209 10.2251 145.952 10.1244 145.708 10.0189C145.262 9.82707 144.754 9.6568 144.186 9.50814C143.617 9.35949 143.042 9.21321 142.46 9.06937C142.365 9.04061 142.271 9.01661 142.176 8.99742C142.081 8.97823 142.013 8.94947 141.973 8.91109C141.919 8.88233 141.895 8.85114 141.902 8.81757C141.908 8.784 141.905 8.74325 141.891 8.6953C142.202 8.76243 142.491 8.82 142.754 8.86795C143.019 8.9159 143.258 8.96866 143.475 9.02618C143.719 9.09331 143.945 9.16764 144.155 9.24921C144.365 9.33073 144.571 9.41462 144.775 9.50095C145.058 9.59685 145.336 9.69756 145.607 9.80307C145.877 9.90859 146.135 10.0189 146.379 10.134C146.717 10.2778 147.045 10.4265 147.363 10.58C147.681 10.7334 148.003 10.8917 148.327 11.0547L147.657 11.1266L148.612 11.7165L147.901 11.7309L148.652 12.0042L148.916 11.8748C149.16 11.9419 149.251 11.9971 149.19 12.0402C149.129 12.0834 149.004 12.1241 148.815 12.1625C148.991 12.2584 149.163 12.3519 149.333 12.443C149.502 12.5342 149.668 12.6277 149.83 12.7236C149.844 12.714 149.864 12.7092 149.891 12.7092C149.918 12.7092 149.945 12.7044 149.972 12.6948V12.5078C150.446 12.5653 150.585 12.6516 150.389 12.7667C150.192 12.8818 150.229 12.9729 150.5 13.0401ZM3.93124 13.5436C4.14781 13.5532 4.317 13.5436 4.43882 13.5148C4.56064 13.486 4.65539 13.4381 4.72306 13.371C4.38468 13.3998 4.18165 13.4213 4.11397 13.4357C4.04629 13.4501 3.98538 13.486 3.93124 13.5436ZM5.43368 9.55852L5.65701 9.60166L6.10368 9.38587C5.88712 9.39543 5.70777 9.41224 5.56565 9.43619C5.42353 9.46019 5.37954 9.50095 5.43368 9.55852ZM9.85978 8.27809L9.98156 8.32123L11.4231 7.90402C11.0577 7.91364 10.7463 7.9544 10.4892 8.0263C10.232 8.09824 10.0222 8.18219 9.85978 8.27809ZM11.1795 12.4071L10.9561 12.4646L11.2607 12.5797L11.5044 12.5078C11.6397 12.5557 11.6972 12.5749 11.6769 12.5653C11.6566 12.5557 11.6194 12.5413 11.5652 12.5222L11.1795 12.4071ZM12.4383 7.50119C12.3842 7.52038 12.3266 7.53719 12.2657 7.55157C12.2048 7.56595 12.1405 7.58271 12.0728 7.6019C12.0728 7.6019 12.0864 7.60909 12.1134 7.62352C12.1405 7.6379 12.154 7.64028 12.154 7.63071C12.2353 7.62109 12.3131 7.61152 12.3875 7.6019C12.462 7.59233 12.533 7.58271 12.6007 7.57314L12.4383 7.50119ZM15.6259 13.3278C15.5717 13.3374 15.521 13.347 15.4736 13.3566C15.4263 13.3662 15.4026 13.371 15.4026 13.371C15.4026 13.3806 15.4127 13.3926 15.433 13.407C15.4533 13.4213 15.477 13.4333 15.5041 13.4429C15.5311 13.4429 15.5684 13.4405 15.6157 13.4357C15.6631 13.4309 15.7003 13.4285 15.7274 13.4285L15.6259 13.3278ZM29.6554 4.13473C29.5877 4.14432 29.5302 4.1611 29.4828 4.18508C29.4354 4.20906 29.405 4.23064 29.3914 4.24982C29.3914 4.269 29.4185 4.29058 29.4726 4.31456C29.5268 4.33854 29.5809 4.35053 29.635 4.35053C29.7163 4.35053 29.7941 4.34573 29.8686 4.33614C29.943 4.32655 30.0141 4.31216 30.0818 4.29298H30.0614C30.1562 4.2738 30.2408 4.25222 30.3152 4.22824C30.3897 4.20427 30.4676 4.18269 30.5487 4.1635C30.2509 4.12514 30.0581 4.10356 29.9701 4.09876C29.8821 4.09396 29.7772 4.10595 29.6554 4.13473ZM31.2187 3.4154L31.0563 3.64558C31.0969 3.64558 31.1375 3.64558 31.1781 3.64558C31.2187 3.64558 31.2594 3.64558 31.3 3.64558L31.2187 3.4154ZM112.066 2.73922L111.985 2.79677L113.081 2.92625C112.987 2.83993 112.834 2.79677 112.624 2.79677C112.415 2.79677 112.228 2.77759 112.066 2.73922ZM120.492 4.33614L119.944 4.50878C120.066 4.52797 120.177 4.54475 120.279 4.55913C120.38 4.57352 120.472 4.5903 120.553 4.60949C120.634 4.62867 120.712 4.65025 120.787 4.67423C120.861 4.69821 120.931 4.71978 121 4.73897L121.142 4.7102C121.033 4.65265 120.928 4.5927 120.827 4.53036C120.725 4.46802 120.614 4.40328 120.492 4.33614ZM122.421 4.78213C122.65 4.82049 122.81 4.83009 122.898 4.8109C122.986 4.79172 123.023 4.74856 123.009 4.68142L122.421 4.78213ZM131.313 9.28516C131.043 9.23721 130.789 9.19402 130.552 9.15569C130.315 9.11731 130.081 9.08375 129.852 9.05499C129.811 9.04537 129.753 9.0478 129.679 9.06218C129.605 9.07656 129.527 9.08856 129.446 9.09812C129.689 9.17488 129.977 9.23002 130.309 9.26359C130.64 9.29716 130.975 9.30435 131.313 9.28516ZM129.466 6.73873C129.628 6.77706 129.761 6.80587 129.862 6.82506C129.963 6.84419 130.061 6.86338 130.156 6.88257C130.17 6.81543 130.122 6.7723 130.014 6.75311C129.905 6.73392 129.723 6.72911 129.466 6.73873ZM130.278 6.94014L130.116 6.95452C130.156 6.97371 130.19 6.9929 130.217 7.01204C130.244 7.03123 130.278 7.05042 130.318 7.06961C130.346 7.06004 130.373 7.05523 130.4 7.05523C130.427 7.05523 130.448 7.05042 130.461 7.04085L130.278 6.94014ZM131.395 6.89695C131.341 6.87776 131.242 6.86338 131.1 6.85381C130.958 6.84419 130.799 6.83462 130.624 6.82506L131.07 7.15593C131.165 7.10799 131.273 7.0648 131.395 7.02647C131.517 6.98809 131.517 6.9449 131.395 6.89695ZM133.831 6.86819C133.791 6.86819 133.743 6.86819 133.689 6.86819C133.635 6.86819 133.58 6.86819 133.526 6.86819L133.648 7.04085H133.831V6.86819ZM134.339 7.6019L134.237 7.65947L134.643 7.7458L134.786 7.68823L134.339 7.6019ZM135.374 10.2203C135.388 10.2203 135.408 10.2155 135.435 10.2059C135.462 10.1963 135.503 10.1867 135.557 10.1771L135.049 10.0621C134.982 10.1292 134.985 10.1723 135.06 10.1915C135.134 10.2107 135.239 10.2203 135.374 10.2203ZM135.76 7.77456C135.706 7.76499 135.651 7.76256 135.597 7.76737C135.543 7.77218 135.489 7.77456 135.435 7.77456C135.435 7.77456 135.432 7.77693 135.425 7.78174C135.418 7.78656 135.415 7.79375 135.415 7.80331V7.81769C135.496 7.82731 135.577 7.83688 135.658 7.8465C135.74 7.85607 135.821 7.86569 135.902 7.87526L135.983 7.83212C135.956 7.8225 135.923 7.8105 135.882 7.79612C135.841 7.78174 135.801 7.77456 135.76 7.77456ZM136.491 7.9184C136.275 7.95678 136.166 7.99516 136.166 8.03354C136.166 8.07187 136.234 8.11981 136.369 8.17738C136.531 8.12943 136.623 8.08625 136.643 8.04792C136.664 8.00954 136.612 7.9664 136.491 7.9184ZM137.749 10.2347C137.398 10.1771 137.046 10.1244 136.694 10.0764C136.342 10.0285 135.99 9.98049 135.638 9.93254C135.611 9.93254 135.567 9.94454 135.506 9.96854C135.445 9.99249 135.367 10.0189 135.273 10.0476C135.584 10.0476 135.851 10.0501 136.075 10.0549C136.298 10.0596 136.443 10.1052 136.511 10.1915L136.227 10.3354C136.525 10.3929 136.816 10.4121 137.1 10.3929C137.384 10.3737 137.668 10.3594 137.953 10.3497C137.925 10.3306 137.899 10.309 137.871 10.285C137.844 10.261 137.803 10.2443 137.749 10.2347ZM138.034 10.3642C138.305 10.4409 138.579 10.5128 138.856 10.58C139.133 10.6471 139.292 10.7382 139.333 10.8533C139.482 10.8533 139.621 10.8485 139.75 10.8389C139.878 10.8293 139.996 10.8293 140.105 10.8389C140.226 10.8485 140.352 10.8677 140.48 10.8965C140.609 10.9252 140.754 10.954 140.917 10.9828C140.714 10.8006 140.385 10.6615 139.932 10.5656C139.479 10.4696 138.846 10.4025 138.034 10.3642ZM141.506 10.8965L141.323 11.1842L142.135 11.0979C142.054 11.0595 141.986 11.0164 141.932 10.9684C141.878 10.9204 141.736 10.8965 141.506 10.8965ZM142.196 11.0979C142.237 11.1363 142.277 11.177 142.318 11.2202C142.358 11.2633 142.413 11.2993 142.48 11.3281C142.602 11.3856 142.741 11.4096 142.897 11.4C143.052 11.3904 143.191 11.3472 143.313 11.2705L142.196 11.0979ZM147.17 12.4358C146.899 12.3399 146.612 12.2488 146.307 12.1625C146.003 12.0762 145.701 11.9851 145.404 11.8892L145.262 11.9035C145.289 11.9419 145.309 11.9779 145.323 12.0114C145.336 12.045 145.377 12.0762 145.445 12.105C145.675 12.2008 145.912 12.2944 146.155 12.3855C146.399 12.4766 146.642 12.5701 146.886 12.666C146.927 12.6756 146.977 12.6876 147.038 12.702C147.099 12.7164 147.164 12.7284 147.231 12.738C147.38 12.6804 147.431 12.6252 147.383 12.5725C147.336 12.5198 147.265 12.4742 147.17 12.4358ZM1.7791 13.8745L2.4085 14.004L1.45425 14.1478L1.7791 13.8745ZM117.914 3.57365L118.076 3.37224C118.171 3.4106 118.184 3.44656 118.116 3.48013C118.049 3.5137 117.981 3.54488 117.914 3.57365ZM141.323 8.46512C141.337 8.46512 141.35 8.46269 141.363 8.45793C141.377 8.45312 141.391 8.44594 141.404 8.43637L141.709 8.49388L141.648 8.52264L141.323 8.46512ZM136.288 7.05523L136.755 6.9689L136.877 7.02647L136.43 7.11274L136.288 7.05523ZM129.568 5.76042C129.608 5.7029 129.689 5.67409 129.811 5.67409C129.933 5.67409 130.068 5.67409 130.217 5.67409L130.075 5.90431L129.568 5.76042ZM127.618 4.78213V4.75335L128.004 4.79651L127.964 4.82529L127.618 4.78213ZM126.217 4.53756L125.141 4.39369C125.169 4.39369 125.195 4.39369 125.223 4.39369C125.25 4.39369 125.277 4.39369 125.304 4.39369C125.466 4.39369 125.625 4.40568 125.781 4.42965C125.936 4.45363 126.082 4.4896 126.217 4.53756ZM121.73 3.90454L121.832 3.86138L123.68 4.10595C123.666 4.11554 123.649 4.12514 123.628 4.13473C123.608 4.14432 123.591 4.15391 123.578 4.1635L121.73 3.90454ZM119.883 3.61681L118.949 3.53049C119.152 3.49212 119.325 3.48733 119.466 3.5161C119.609 3.54488 119.748 3.57845 119.883 3.61681ZM105.691 1.34371L105.752 1.28617L106.239 1.34371L106.199 1.37249L105.691 1.34371ZM101.955 1.01282L101.996 0.969661C102.47 0.988845 102.93 1.01522 103.376 1.04879C103.823 1.08236 104.256 1.12312 104.676 1.17107L104.534 1.15669L104.473 1.21423L101.955 1.01282ZM99.5795 0.854569L99.6404 0.782637L101.001 0.868954L100.94 0.926502L99.5795 0.854569ZM97.9555 0.66754L98.9705 0.753863C98.7537 0.773042 98.6015 0.780237 98.5139 0.775442C98.4255 0.770647 98.2399 0.734678 97.9555 0.66754ZM95.0928 0.581223L95.1738 0.494902C95.4448 0.514083 95.7188 0.533264 95.9958 0.552449C96.2735 0.571628 96.5475 0.586018 96.8186 0.595607L96.7978 0.653156C96.5141 0.633971 96.2297 0.619587 95.9453 0.609997C95.6609 0.600402 95.3765 0.590813 95.0928 0.581223ZM94.0978 0.509288C94.1111 0.499697 94.1215 0.490106 94.1282 0.480515C94.1349 0.470923 94.1386 0.461333 94.1386 0.451742L94.6049 0.494902L94.5849 0.523675C94.504 0.523675 94.4223 0.52128 94.3413 0.516482C94.2604 0.511686 94.1787 0.509288 94.0978 0.509288ZM91.4178 0.365422V0.322262C91.6881 0.331853 91.9592 0.341443 92.2302 0.351034C92.5005 0.360626 92.7649 0.370217 93.0218 0.379808V0.437355L91.4178 0.365422ZM89.6104 0.322262L89.6312 0.250328L90.1993 0.279102V0.307875L89.6104 0.322262ZM83.6416 0.135235C83.4656 0.125643 83.2896 0.123246 83.1136 0.128042C82.9376 0.132837 82.7616 0.130439 82.5856 0.120849C82.1253 0.120849 81.6686 0.116053 81.2156 0.106462C80.7619 0.0968703 80.3119 0.0920745 79.8649 0.0920745C79.6213 0.0824833 79.3644 0.0776885 79.0933 0.0776885C78.823 0.0776885 78.5453 0.0776885 78.2609 0.0776885C78.1391 0.0776885 78.021 0.0776885 77.9059 0.0776885C77.7908 0.0776885 77.6728 0.0776885 77.551 0.0776885H77.5911C76.9547 0.0872791 76.322 0.0944729 75.6931 0.0992688C75.0634 0.104063 74.4307 0.101666 73.7945 0.0920745C73.5238 0.0920745 73.2531 0.0920745 72.9824 0.0920745C72.7117 0.0920745 72.441 0.106462 72.1703 0.135235C72.1567 0.135235 72.1466 0.135235 72.1399 0.135235C72.133 0.135235 72.1229 0.135235 72.1093 0.135235C72.0282 0.135235 71.9503 0.128042 71.8759 0.113655C71.8015 0.0992688 71.7304 0.0824833 71.6627 0.0633014H71.683C73.1313 0.0345286 74.5796 0.015346 76.028 0.00575461C77.476 -0.0038367 78.921 -0.00143837 80.3624 0.0129486C81.8045 0.0273346 83.2488 0.0489146 84.6975 0.0776885C86.1322 0.116053 87.5668 0.164009 89.0015 0.221554V0.293488C88.1082 0.264715 87.2149 0.235942 86.3215 0.207168C85.4282 0.178395 84.5349 0.154417 83.6416 0.135235ZM67.8863 0.149622C68.1841 0.101666 68.6443 0.0704947 69.2669 0.0561086C69.8896 0.0417216 70.3566 0.0537102 70.6678 0.0920745C69.9369 0.168803 69.4327 0.216759 69.1552 0.235942C68.8778 0.255123 68.4548 0.22635 67.8863 0.149622ZM66.8711 0.178395C66.8711 0.168803 66.8711 0.159213 66.8711 0.149622C66.8711 0.140031 66.8711 0.130439 66.8711 0.120849L67.3178 0.135235C67.3178 0.144826 67.3145 0.156814 67.3077 0.171202C67.3009 0.185589 67.2975 0.192782 67.2975 0.192782C67.2298 0.192782 67.1587 0.190383 67.0843 0.185589C67.0099 0.180793 66.9388 0.178395 66.8711 0.178395ZM64.0693 0.250328L64.9829 0.178395C64.8205 0.235942 64.7021 0.267113 64.6277 0.271908C64.5532 0.276703 64.3671 0.269511 64.0693 0.250328ZM57.9784 0.552449L57.9378 0.710704C57.8295 0.653156 57.7753 0.617187 57.7753 0.602802C57.7753 0.588413 57.843 0.571628 57.9784 0.552449ZM55.1359 0.897728C55.1495 0.907318 55.1122 0.916912 55.0243 0.926502C54.9363 0.936092 54.8381 0.945682 54.7298 0.955276L54.6892 0.739473L56.1917 0.609997L56.2526 0.66754C56.1714 0.677135 56.0901 0.686725 56.0089 0.696314C55.9277 0.705904 55.8398 0.715499 55.745 0.725088C55.5826 0.734678 55.4269 0.746668 55.278 0.761052C55.1291 0.775442 55.0817 0.821 55.1359 0.897728ZM53.674 0.998435L53.7959 0.854569C53.8906 0.921707 53.9313 0.960071 53.9177 0.969661C53.9042 0.97925 53.823 0.988845 53.674 0.998435ZM53.6335 0.998435H53.674L53.6538 1.01282L53.6335 0.998435ZM53.6131 0.998435C53.6131 0.998435 53.6166 0.998435 53.6233 0.998435C53.6301 0.998435 53.6335 0.998435 53.6335 0.998435L53.6538 1.01282L53.6131 0.998435ZM52.9228 0.955276L53.6131 0.998435C53.4643 1.04639 53.3323 1.06317 53.2173 1.04879C53.1022 1.0344 53.0041 1.00323 52.9228 0.955276ZM53.2477 0.825795L52.9026 0.940887C52.8078 0.912112 52.774 0.892933 52.8011 0.883344C52.8281 0.873749 52.977 0.854569 53.2477 0.825795ZM52.9026 0.955276H52.8822L52.9026 0.940887V0.955276ZM48.4967 1.44442C48.781 1.41565 48.9671 1.3581 49.0551 1.27178C49.1431 1.18546 49.3156 1.12792 49.5728 1.09914C49.5999 1.10873 49.6236 1.11593 49.6439 1.12072C49.6642 1.12552 49.6811 1.13271 49.6947 1.1423L49.4713 1.21423L50.121 1.28617L48.4967 1.44442ZM45.4919 1.4732L45.8777 1.45881L45.8979 1.48758L45.5122 1.51635L45.4919 1.4732ZM43.9691 1.73216C44.1451 1.73216 44.3211 1.72736 44.497 1.71777C44.673 1.70818 44.8489 1.70338 45.0249 1.70338C44.8625 1.75134 44.6933 1.78491 44.5174 1.80409C44.3414 1.82327 44.1586 1.79929 43.9691 1.73216ZM43.9691 1.73216C44.0368 1.67461 44.1079 1.63625 44.1823 1.61706C44.2568 1.59788 44.47 1.5739 44.8219 1.54513C44.6459 1.58349 44.4902 1.61706 44.3549 1.64583C44.2196 1.67461 44.091 1.70338 43.9691 1.73216ZM40.477 2.25008C40.4499 2.25008 40.4229 2.24288 40.3958 2.2285C40.3687 2.21411 40.3619 2.20692 40.3755 2.20692C40.389 2.19732 40.4161 2.18773 40.4567 2.17814C40.4973 2.16855 40.5447 2.15896 40.5988 2.14937C40.6124 2.16855 40.6292 2.18294 40.6496 2.19253C40.6699 2.20212 40.68 2.21171 40.68 2.2213C40.6529 2.23089 40.6225 2.23809 40.5887 2.24288C40.5548 2.24768 40.5244 2.25008 40.4973 2.25008C40.4973 2.25008 40.4939 2.25008 40.4871 2.25008C40.4803 2.25008 40.477 2.25008 40.477 2.25008ZM33.2896 3.24276C33.2626 3.11807 33.3167 3.03894 33.4521 3.00537C33.5875 2.9718 33.9935 2.93584 34.6703 2.89748C34.4131 2.94543 34.2439 3.02216 34.1627 3.12766C34.0815 3.23317 33.7905 3.27153 33.2896 3.24276ZM26.4069 3.90454L26.7317 3.86138L26.7724 3.89016L26.4678 3.93331L26.4069 3.90454ZM25.412 4.0628L25.8384 3.99086L25.9196 4.03402L25.5338 4.10595L25.412 4.0628ZM2.30699 10.5224C2.32052 10.5128 2.35098 10.5032 2.39835 10.4936C2.44572 10.484 2.47618 10.4793 2.48971 10.4793C2.53032 10.4888 2.56416 10.5008 2.59123 10.5152C2.6183 10.5296 2.64537 10.5416 2.67244 10.5512L2.32729 10.6231C2.31375 10.5943 2.3036 10.5728 2.29683 10.5584C2.29006 10.544 2.29345 10.532 2.30699 10.5224Z" fill="#F8941F"/>
</g>
<defs>
<clipPath id="clip0_629_706">
<rect width="150" height="15" fill="white" transform="translate(0.5)"/>
</clipPath>
</defs>
</svg>
