<svg width="200" height="34" viewBox="0 0 200 34" fill="none" xmlns="http://www.w3.org/2000/svg">
<path d="M11.6387 31.9999C10.148 31.9999 8.74334 31.7133 7.42467 31.1399C6.13467 30.5666 5.00234 29.7926 4.02767 28.8179C3.05301 27.8433 2.27901 26.7109 1.70567 25.4209C1.16101 24.1023 0.888672 22.7119 0.888672 21.2499C0.888672 19.7593 1.16101 18.3689 1.70567 17.0789C2.27901 15.7603 3.05301 14.6136 4.02767 13.6389C5.00234 12.6643 6.13467 11.9046 7.42467 11.3599C8.74334 10.7866 10.148 10.4999 11.6387 10.4999C13.1293 10.4999 14.5197 10.7866 15.8097 11.3599C17.1283 11.9046 18.275 12.6643 19.2497 13.6389C20.2243 14.6136 20.984 15.7603 21.5287 17.0789C22.102 18.3689 22.3887 19.7593 22.3887 21.2499V31.9999H17.9167V21.2499C17.9167 20.3613 17.7447 19.5299 17.4007 18.7559C17.0853 17.9819 16.641 17.3083 16.0677 16.7349C15.4943 16.1616 14.8207 15.7173 14.0467 15.4019C13.3013 15.0579 12.4987 14.8859 11.6387 14.8859C10.7787 14.8859 9.96167 15.0579 9.18767 15.4019C8.44234 15.7173 7.78301 16.1616 7.20967 16.7349C6.63634 17.3083 6.17767 17.9819 5.83367 18.7559C5.51834 19.5299 5.36067 20.3613 5.36067 21.2499C5.36067 22.1099 5.51834 22.9269 5.83367 23.7009C6.17767 24.4463 6.63634 25.1056 7.20967 25.6789C7.78301 26.2523 8.44234 26.7109 9.18767 27.0549C9.96167 27.3703 10.7787 27.5279 11.6387 27.5279C11.9253 27.5279 12.1833 27.5136 12.4127 27.4849C12.6707 27.4563 12.9287 27.4133 13.1867 27.3559L14.2187 31.6989C12.9287 31.8996 12.0687 31.9999 11.6387 31.9999Z" fill="black"/>
<path d="M24.6163 21.2499C24.5876 19.7879 24.8456 18.4119 25.3903 17.1219C25.9636 15.8033 26.7376 14.6566 27.7123 13.6819C28.6869 12.7073 29.8336 11.9333 31.1523 11.3599C32.4709 10.7866 33.8756 10.4999 35.3663 10.4999V14.9719C34.5063 14.9719 33.6893 15.1439 32.9153 15.4879C32.1699 15.8033 31.5106 16.2476 30.9373 16.8209C30.3639 17.3656 29.9053 18.0249 29.5613 18.7989C29.2459 19.5729 29.0883 20.3899 29.0883 21.2499V31.9999H24.6163V21.2499Z" fill="black"/>
<path d="M51.844 27.5279C53.048 27.5279 54.1803 27.7143 55.241 28.0869C56.3303 28.4596 57.3337 28.9756 58.251 29.6349L55.456 33.0749C54.3667 32.3583 53.1627 31.9999 51.844 31.9999H36.88V26.0659C37.5967 26.0659 38.2703 25.9513 38.901 25.7219C39.761 25.4066 41.395 24.0593 43.803 21.6799L50.511 14.8859C50.3677 14.8859 50.0667 14.8859 49.608 14.8859C49.1493 14.8859 44.9067 14.8859 36.88 14.8859V10.4569C44.6773 10.4569 48.7767 10.4569 49.178 10.4569C49.5793 10.4569 49.909 10.4569 50.167 10.4569C50.425 10.4569 50.5683 10.4569 50.597 10.4569C51.801 10.4569 52.9333 10.6576 53.994 11.0589C55.0833 11.4603 56.0867 11.9906 57.004 12.6499C57.52 12.9653 57.8783 13.2949 58.079 13.6389C48.9057 22.8696 44.2903 27.5136 44.233 27.5709L51.844 27.5279Z" fill="black"/>
<path d="M69.4639 27.5279C70.3239 27.5279 71.1266 27.3703 71.8719 27.0549C72.6459 26.7109 73.3196 26.2666 73.8929 25.7219C74.4663 25.1486 74.9106 24.4893 75.2259 23.7439C75.5699 22.9699 75.7419 22.1386 75.7419 21.2499H80.2139C80.2139 22.7406 79.9273 24.1453 79.3539 25.4639C78.8093 26.7539 78.0496 27.8863 77.0749 28.8609C76.1003 29.8356 74.9536 30.6096 73.6349 31.1829C72.3449 31.7276 70.9546 31.9999 69.4639 31.9999C67.9733 31.9999 66.5686 31.7276 65.2499 31.1829C63.9599 30.6096 62.8276 29.8356 61.8529 28.8609C60.8783 27.8863 60.1043 26.7539 59.5309 25.4639C58.9863 24.1453 58.7139 22.7406 58.7139 21.2499C58.7139 19.7593 58.9863 18.3689 59.5309 17.0789C60.1043 15.7603 60.8783 14.6136 61.8529 13.6389C62.8276 12.6643 63.9599 11.9046 65.2499 11.3599C66.5686 10.7866 67.9733 10.4999 69.4639 10.4999C70.9259 10.4999 72.2876 10.7723 73.5489 11.3169C74.8103 11.8329 75.9283 12.5496 76.9029 13.4669L76.9889 13.5529L79.9129 16.5629L75.0969 21.3359H69.1629L73.7639 16.6059C73.2193 16.1186 72.5743 15.7316 71.8289 15.4449C71.0836 15.1296 70.2953 14.9719 69.4639 14.9719C68.6039 14.9719 67.7869 15.1439 67.0129 15.4879C66.2676 15.8033 65.6083 16.2476 65.0349 16.8209C64.4616 17.3943 64.0029 18.0679 63.6589 18.8419C63.3436 19.5873 63.1859 20.3899 63.1859 21.2499C63.1859 22.1099 63.3436 22.9269 63.6589 23.7009C64.0029 24.4463 64.4616 25.1056 65.0349 25.6789C65.6083 26.2523 66.2676 26.7109 67.0129 27.0549C67.7869 27.3703 68.6039 27.5279 69.4639 27.5279Z" fill="black"/>
<path d="M98.5266 15.0579C97.6666 15.0579 96.8496 15.2299 96.0756 15.5739C95.3302 15.8893 94.6709 16.3479 94.0976 16.9499C93.5529 17.5233 93.1086 18.1969 92.7646 18.9709C92.4492 19.7163 92.2916 20.5189 92.2916 21.3789C92.2629 22.8409 91.9619 24.2169 91.3886 25.5069C90.8152 26.7683 90.0269 27.8863 89.0236 28.8609C88.0489 29.8069 86.9022 30.5666 85.5836 31.1399C84.2936 31.6846 82.9175 31.9569 81.4556 31.9569V27.3559C82.3156 27.3559 83.1182 27.1983 83.8636 26.8829C84.6376 26.5389 85.2969 26.0946 85.8416 25.5499C86.4149 24.9766 86.8592 24.3173 87.1746 23.5719C87.5186 22.7979 87.6906 21.9809 87.6906 21.1209C87.7192 19.6589 88.0059 18.2829 88.5506 16.9929C89.1239 15.7029 89.8836 14.5706 90.8296 13.5959C91.8042 12.6213 92.9366 11.8616 94.2266 11.3169C95.5166 10.7436 96.8926 10.4569 98.3546 10.4569L98.5266 15.0579Z" fill="black"/>
<path d="M121.839 31.9999H117.367V21.2069C117.367 20.3469 117.195 19.5443 116.851 18.7989C116.536 18.0249 116.092 17.3513 115.518 16.7779C114.945 16.2046 114.271 15.7603 113.497 15.4449C112.752 15.1009 111.949 14.9289 111.089 14.9289C110.201 14.9289 109.369 15.1009 108.595 15.4449C107.821 15.7603 107.148 16.2046 106.574 16.7779C106.03 17.3513 105.585 18.0249 105.241 18.7989C104.926 19.5443 104.768 20.3469 104.768 21.2069V31.9999H100.296V5.03893L104.768 0.523926V12.4779C105.628 11.8473 106.589 11.3599 107.649 11.0159C108.739 10.6433 109.885 10.4569 111.089 10.4569C112.551 10.4856 113.942 10.7866 115.26 11.3599C116.579 11.9333 117.726 12.7073 118.7 13.6819C119.675 14.6279 120.449 15.7603 121.022 17.0789C121.596 18.3689 121.868 19.7449 121.839 21.2069V31.9999Z" fill="black"/>
<path d="M127.853 31.9999H123.424V10.4999H127.853V31.9999ZM127.853 5.98493H123.424V5.03893L127.853 0.566928V5.98493Z" fill="black"/>
<path d="M152.111 31.9999H147.639V21.2499C147.639 20.3899 147.467 19.5729 147.123 18.7989C146.807 18.0249 146.363 17.3656 145.79 16.8209C145.216 16.2476 144.543 15.8033 143.769 15.4879C143.023 15.1439 142.221 14.9719 141.361 14.9719C140.501 14.9719 139.684 15.1439 138.91 15.4879C138.164 15.8033 137.505 16.2476 136.932 16.8209C136.358 17.3656 135.9 18.0249 135.556 18.7989C135.24 19.5729 135.083 20.3899 135.083 21.2499V31.9999H130.611V21.2499C130.582 19.7879 130.84 18.4119 131.385 17.1219C131.958 15.8033 132.732 14.6566 133.707 13.6819C134.681 12.7073 135.828 11.9333 137.147 11.3599C138.465 10.7866 139.87 10.4999 141.361 10.4999C142.851 10.4999 144.256 10.7866 145.575 11.3599C146.893 11.9333 148.04 12.7073 149.015 13.6819C149.989 14.6566 150.749 15.8033 151.294 17.1219C151.867 18.4119 152.139 19.7879 152.111 21.2499V31.9999Z" fill="black"/>
<path d="M176.214 31.9999H171.742V21.2499C171.742 20.3899 171.57 19.5729 171.226 18.7989C170.911 18.0249 170.466 17.3656 169.893 16.8209C169.32 16.2476 168.646 15.8033 167.872 15.4879C167.127 15.1439 166.324 14.9719 165.464 14.9719C164.604 14.9719 163.787 15.1439 163.013 15.4879C162.268 15.8033 161.608 16.2476 161.035 16.8209C160.462 17.3656 160.003 18.0249 159.659 18.7989C159.344 19.5729 159.186 20.3899 159.186 21.2499V31.9999H154.714V21.2499C154.685 19.7879 154.943 18.4119 155.488 17.1219C156.061 15.8033 156.835 14.6566 157.81 13.6819C158.785 12.7073 159.931 11.9333 161.25 11.3599C162.569 10.7866 163.973 10.4999 165.464 10.4999C166.955 10.4999 168.359 10.7866 169.678 11.3599C170.997 11.9333 172.143 12.7073 173.118 13.6819C174.093 14.6566 174.852 15.8033 175.397 17.1219C175.97 18.4119 176.243 19.7879 176.214 21.2499V31.9999Z" fill="black"/>
<path d="M189.224 10.4999C190.686 10.4999 192.062 10.7866 193.352 11.3599C194.67 11.9046 195.817 12.6643 196.792 13.6389C197.766 14.6136 198.54 15.7603 199.114 17.0789C199.687 18.3689 199.974 19.7593 199.974 21.2499C199.974 22.7406 199.687 24.1453 199.114 25.4639C198.54 26.7539 197.766 27.8863 196.792 28.8609C195.817 29.8069 194.67 30.5666 193.352 31.1399C192.062 31.6846 190.686 31.9569 189.224 31.9569C187.733 31.9569 186.328 31.6846 185.01 31.1399C183.72 30.5666 182.587 29.8069 181.613 28.8609C180.667 27.8863 179.907 26.7539 179.334 25.4639C178.789 24.1453 178.517 22.7406 178.517 21.2499C178.517 19.7593 178.789 18.3689 179.334 17.0789C179.907 15.7603 180.667 14.6136 181.613 13.6389C182.587 12.6643 183.72 11.9046 185.01 11.3599C186.328 10.7866 187.733 10.4999 189.224 10.4999ZM189.224 27.4849C190.084 27.4849 190.901 27.3273 191.675 27.0119C192.449 26.6679 193.108 26.2236 193.653 25.6789C194.226 25.1056 194.67 24.4463 194.986 23.7009C195.33 22.9269 195.502 22.1099 195.502 21.2499C195.502 20.3899 195.33 19.5729 194.986 18.7989C194.67 18.0249 194.226 17.3656 193.653 16.8209C193.108 16.2476 192.449 15.8033 191.675 15.4879C190.901 15.1439 190.084 14.9719 189.224 14.9719C188.364 14.9719 187.547 15.1439 186.773 15.4879C185.999 15.8033 185.325 16.2476 184.752 16.8209C184.178 17.3656 183.72 18.0249 183.376 18.7989C183.06 19.5729 182.903 20.3899 182.903 21.2499C182.903 22.1099 183.06 22.9269 183.376 23.7009C183.72 24.4463 184.178 25.1056 184.752 25.6789C185.325 26.2236 185.999 26.6679 186.773 27.0119C187.547 27.3273 188.364 27.4849 189.224 27.4849Z" fill="black"/>
</svg>
